<svg xmlns="http://www.w3.org/2000/svg" viewBox="0 0 320 200" preserveAspectRatio="xMidYMid slice" aria-hidden="true">
  <defs>
    <filter id="bb1Blur3" x="-60%" y="-60%" width="220%" height="220%">
      <feGaussianBlur stdDeviation="3"/>
    </filter>
    <radialGradient id="bb1bg" cx="85%" cy="-5%" r="100%">
      <stop offset="0%" stop-color="#123138"/><stop offset="45%" stop-color="#0b090a"/><stop offset="100%" stop-color="#060506"/>
    </radialGradient>
    <linearGradient id="bb1pot" x1="0" y1="0" x2="0" y2="1">
      <stop offset="0%" stop-color="#6b4029"/><stop offset="55%" stop-color="#3d2113"/><stop offset="100%" stop-color="#1c0d06"/>
    </linearGradient>
    <radialGradient id="bb1liq" cx="50%" cy="30%" r="85%">
      <stop offset="0%" stop-color="#9c2b10"/><stop offset="55%" stop-color="#661408"/><stop offset="100%" stop-color="#3b0b05"/>
    </radialGradient>
    <radialGradient id="bb1beef" cx="40%" cy="28%" r="82%">
      <stop offset="0%" stop-color="#a24c22"/><stop offset="55%" stop-color="#7a3316"/><stop offset="100%" stop-color="#4c1d0b"/>
    </radialGradient>
    <radialGradient id="bb1beef2" cx="42%" cy="30%" r="82%">
      <stop offset="0%" stop-color="#93411c"/><stop offset="55%" stop-color="#6e2d13"/><stop offset="100%" stop-color="#451a09"/>
    </radialGradient>
  </defs>
  <rect width="320" height="200" fill="url(#bb1bg)"/>
  <ellipse cx="160" cy="184" rx="160" ry="24" fill="#000" opacity=".5"/>
  <path d="M116 62 C106 44 124 36 116 16" stroke="#fff" stroke-width="7" fill="none" opacity=".1" filter="url(#bb1Blur3)"/>
  <path d="M200 58 C192 42 210 34 202 14" stroke="#fff" stroke-width="6" fill="none" opacity=".08" filter="url(#bb1Blur3)"/>
  <!-- dark clay pot -->
  <path d="M52 102 C52 148 100 174 160 174 C220 174 268 148 268 102 Z" fill="url(#bb1pot)"/>
  <ellipse cx="160" cy="102" rx="108" ry="27" fill="#2c150a"/>
  <ellipse cx="160" cy="102" rx="108" ry="27" fill="none" stroke="#271b22" stroke-width="3"/>
  <!-- braising liquid -->
  <ellipse cx="160" cy="104" rx="97" ry="22" fill="url(#bb1liq)"/>
  <ellipse cx="132" cy="98" rx="28" ry="6" fill="#c73a12" opacity=".4" transform="rotate(-8 132 98)"/>
  <path d="M66 94 Q104 76 156 75" stroke="#35e0ff" stroke-width="2.5" fill="none" opacity=".4" stroke-linecap="round"/>
  <!-- daikon chunks (pale, rounded, tucked among the beef) -->
  <g transform="translate(98 84) rotate(-8)">
    <path d="M0 8 C-2 -2 10 -6 18 -4 C28 -2 30 8 26 16 C22 24 6 24 2 16 Z" fill="#eadfc8"/>
    <path d="M0 8 C-2 -2 10 -6 18 -4 C28 -2 30 8 26 16 C22 24 6 24 2 16 Z" fill="none" stroke="#b58a4a" stroke-width="1.3" opacity=".45"/>
    <ellipse cx="8" cy="2" rx="7" ry="2.6" fill="#fff" opacity=".45"/>
  </g>
  <g transform="translate(196 86) rotate(6)">
    <path d="M0 8 C-2 -1 8 -6 16 -5 C26 -4 30 6 26 14 C22 22 6 22 2 14 Z" fill="#e2d4b8"/>
    <path d="M0 8 C-2 -1 8 -6 16 -5 C26 -4 30 6 26 14 C22 22 6 22 2 14 Z" fill="none" stroke="#b58a4a" stroke-width="1.3" opacity=".45"/>
    <ellipse cx="8" cy="2" rx="6" ry="2.4" fill="#fff" opacity=".4"/>
  </g>
  <!-- BACK braised beef chunks (smaller, dimmer, irregular rounded blobs) -->
  <g transform="translate(120 66) rotate(-6)">
    <path d="M2 14 C-2 4 8 -4 20 -6 C34 -8 44 2 42 16 C40 30 24 34 12 30 C2 26 4 20 2 14 Z" fill="url(#bb1beef2)"/>
    <path d="M6 8 C14 0 30 -2 38 6 C30 4 18 6 10 12 C6 12 4 10 6 8 Z" fill="#a24c22" opacity=".55"/>
    <path d="M2 14 C-2 4 8 -4 20 -6 C34 -8 44 2 42 16 C40 30 24 34 12 30 C2 26 4 20 2 14 Z" fill="none" stroke="#240a03" stroke-width="1.3" opacity=".5"/>
  </g>
  <g transform="translate(176 62) rotate(8)">
    <path d="M2 12 C0 2 12 -4 24 -4 C38 -4 44 6 40 18 C36 30 20 32 10 26 C2 22 4 18 2 12 Z" fill="url(#bb1beef2)"/>
    <path d="M8 6 C16 0 30 0 36 8 C28 5 18 7 10 12 C7 11 6 8 8 6 Z" fill="#a24c22" opacity=".5"/>
    <path d="M2 12 C0 2 12 -4 24 -4 C38 -4 44 6 40 18 C36 30 20 32 10 26 C2 22 4 18 2 12 Z" fill="none" stroke="#240a03" stroke-width="1.3" opacity=".5"/>
  </g>
  <!-- FRONT braised beef chunks (larger, glossier, varied shapes) -->
  <g transform="translate(74 86) rotate(-5)">
    <path d="M4 20 C-4 8 6 -6 24 -8 C44 -10 58 4 54 24 C50 42 26 46 12 38 C2 32 6 26 4 20 Z" fill="url(#bb1beef)"/>
    <path d="M10 10 C22 -2 42 -2 50 10 C40 6 24 8 14 18 C9 17 6 13 10 10 Z" fill="#c05e2c" opacity=".6"/>
    <ellipse cx="22" cy="6" rx="12" ry="4" fill="#ffc491" opacity=".55"/>
    <circle cx="40" cy="8" r="2" fill="#fff" opacity=".9"/>
    <path d="M4 20 C-4 8 6 -6 24 -8 C44 -10 58 4 54 24 C50 42 26 46 12 38 C2 32 6 26 4 20 Z" fill="none" stroke="#240a03" stroke-width="1.5" opacity=".55"/>
  </g>
  <g transform="translate(134 96) rotate(4)">
    <path d="M4 18 C-2 6 10 -8 28 -8 C48 -8 60 6 56 26 C52 44 28 46 14 38 C4 32 6 24 4 18 Z" fill="url(#bb1beef)"/>
    <path d="M12 8 C24 -4 44 -2 52 10 C42 5 26 7 16 16 C11 15 8 11 12 8 Z" fill="#c05e2c" opacity=".6"/>
    <ellipse cx="24" cy="6" rx="13" ry="4" fill="#ffc491" opacity=".55"/>
    <circle cx="44" cy="8" r="2" fill="#fff" opacity=".9"/>
    <path d="M4 18 C-2 6 10 -8 28 -8 C48 -8 60 6 56 26 C52 44 28 46 14 38 C4 32 6 24 4 18 Z" fill="none" stroke="#240a03" stroke-width="1.5" opacity=".55"/>
  </g>
  <g transform="translate(196 88) rotate(-4)">
    <path d="M4 18 C-2 8 8 -6 26 -6 C44 -6 54 6 52 22 C50 40 28 44 14 36 C4 30 6 24 4 18 Z" fill="url(#bb1beef)"/>
    <path d="M10 8 C22 -2 40 -2 48 8 C38 5 24 7 14 16 C10 15 7 11 10 8 Z" fill="#c05e2c" opacity=".55"/>
    <ellipse cx="22" cy="6" rx="11" ry="3.6" fill="#ffc491" opacity=".55"/>
    <circle cx="40" cy="8" r="1.9" fill="#fff" opacity=".9"/>
    <path d="M4 18 C-2 8 8 -6 26 -6 C44 -6 54 6 52 22 C50 40 28 44 14 36 C4 30 6 24 4 18 Z" fill="none" stroke="#240a03" stroke-width="1.5" opacity=".55"/>
  </g>
  <!-- glossy sauce laps pooling between chunks -->
  <ellipse cx="98" cy="126" rx="26" ry="5" fill="#55110a" opacity=".8"/>
  <ellipse cx="158" cy="134" rx="28" ry="5" fill="#55110a" opacity=".8"/>
  <ellipse cx="214" cy="126" rx="24" ry="5" fill="#55110a" opacity=".8"/>
  <!-- star anise resting on top -->
  <g transform="translate(150 110) rotate(20)">
    <path d="M0 -7 L2 -2 L7 0 L2 2 L0 7 L-2 2 L-7 0 L-2 -2 Z" fill="#4a1f0a"/>
    <path d="M0 -7 L2 -2 L7 0 L2 2 L0 7 L-2 2 L-7 0 L-2 -2 Z" fill="none" stroke="#6e3a18" stroke-width=".8" opacity=".7"/>
    <circle cx="0" cy="0" r="1.4" fill="#7a4a26"/>
  </g>
  <!-- scallion garnish -->
  <rect x="96" y="80" width="7" height="2.6" rx="1.3" fill="#5ecb4e" transform="rotate(-18 99 81)"/>
  <rect x="150" y="90" width="7" height="2.6" rx="1.3" fill="#3f9c37" transform="rotate(14 153 91)"/>
  <rect x="204" y="82" width="7" height="2.6" rx="1.3" fill="#5ecb4e" transform="rotate(-8 207 83)"/>
  <rect x="126" y="112" width="6" height="2.4" rx="1.2" fill="#5ecb4e" transform="rotate(24 129 113)"/>
  <rect x="182" y="116" width="6" height="2.4" rx="1.2" fill="#3f9c37" transform="rotate(-22 185 117)"/>
  <!-- gloss dots -->
  <circle cx="112" cy="98" r="1.4" fill="#fff" opacity=".6"/>
  <circle cx="172" cy="108" r="1.3" fill="#fff" opacity=".55"/>
  <circle cx="218" cy="100" r="1.2" fill="#fff" opacity=".5"/>
</svg>
