<svg xmlns="http://www.w3.org/2000/svg" viewBox="0 0 320 200" preserveAspectRatio="xMidYMid slice" aria-hidden="true">
  <defs>
    <filter id="bbBlur3" x="-60%" y="-60%" width="220%" height="220%">
      <feGaussianBlur stdDeviation="3"/>
    </filter>
    <radialGradient id="bbbg" cx="85%" cy="-5%" r="100%">
      <stop offset="0%" stop-color="#332818"/><stop offset="45%" stop-color="#0b0a08"/><stop offset="100%" stop-color="#060606"/>
    </radialGradient>
    <radialGradient id="bbbowl" cx="50%" cy="34%" r="80%">
      <stop offset="0%" stop-color="#1a1420"/><stop offset="100%" stop-color="#0b0b0d"/>
    </radialGradient>
    <radialGradient id="bbrice" cx="45%" cy="35%" r="75%">
      <stop offset="0%" stop-color="#fbf3df"/><stop offset="100%" stop-color="#ddc79a"/>
    </radialGradient>
    <radialGradient id="bbavo" cx="42%" cy="32%" r="80%">
      <stop offset="0%" stop-color="#b6d36a"/><stop offset="100%" stop-color="#7ba03c"/>
    </radialGradient>
  </defs>
  <rect width="320" height="200" fill="url(#bbbg)"/>
  <!-- steam -->
  <path d="M120 58 C110 40 130 32 120 12" stroke="#fff" stroke-width="7" fill="none" opacity=".1" filter="url(#bbBlur3)"/>
  <path d="M204 54 C196 38 214 30 206 10" stroke="#fff" stroke-width="6" fill="none" opacity=".08" filter="url(#bbBlur3)"/>
  <ellipse cx="160" cy="188" rx="156" ry="22" fill="#000" opacity=".5"/>
  <!-- wide shallow bowl -->
  <ellipse cx="160" cy="126" rx="136" ry="52" fill="url(#bbbowl)"/>
  <ellipse cx="160" cy="126" rx="136" ry="52" fill="none" stroke="#2c2136" stroke-width="3"/>
  <ellipse cx="160" cy="124" rx="120" ry="44" fill="#0d0b10"/>
  <!-- neon steam arc -->
  <path d="M50 112 Q104 82 168 80" stroke="#35e0ff" stroke-width="2.5" fill="none" opacity=".4" stroke-linecap="round"/>
  <!-- cilantro-lime rice base filling the bowl -->
  <ellipse cx="160" cy="122" rx="116" ry="41" fill="url(#bbrice)"/>
  <!-- rice grain hints -->
  <g stroke-linecap="round" fill="none" opacity=".55">
    <path d="M70 118 l6 -2" stroke="#fff8e6" stroke-width="1.8"/>
    <path d="M96 132 l6 2" stroke="#d8c095" stroke-width="1.8"/>
    <path d="M132 138 l-6 2" stroke="#fff8e6" stroke-width="1.8"/>
    <path d="M228 120 l6 -2" stroke="#d8c095" stroke-width="1.8"/>
    <path d="M250 130 l-6 2" stroke="#fff8e6" stroke-width="1.8"/>
  </g>
  <!-- SECTION: black beans (left) -->
  <path d="M62 118 C58 100 88 96 108 104 C118 118 108 134 90 138 C70 138 62 130 62 118 Z" fill="#241a26"/>
  <g fill="#0f0a12">
    <ellipse cx="74" cy="112" rx="4.2" ry="3" transform="rotate(-16 74 112)"/>
    <ellipse cx="88" cy="108" rx="4.2" ry="3" transform="rotate(10 88 108)"/>
    <ellipse cx="98" cy="118" rx="4.2" ry="3" transform="rotate(-8 98 118)"/>
    <ellipse cx="80" cy="124" rx="4.2" ry="3" transform="rotate(18 80 124)"/>
    <ellipse cx="94" cy="128" rx="4.2" ry="3" transform="rotate(-4 94 128)"/>
    <ellipse cx="70" cy="122" rx="4" ry="2.8" transform="rotate(6 70 122)"/>
  </g>
  <g fill="#4a3a4d" opacity=".7">
    <ellipse cx="73" cy="110" rx="1.4" ry="1" transform="rotate(-16 73 110)"/>
    <ellipse cx="87" cy="106" rx="1.4" ry="1" transform="rotate(10 87 106)"/>
    <ellipse cx="97" cy="116" rx="1.4" ry="1"/>
  </g>
  <!-- SECTION: corn salsa (top) -->
  <path d="M124 100 C130 88 168 88 176 98 C182 110 168 120 148 118 C132 118 122 110 124 100 Z" fill="#2a2214"/>
  <g>
    <rect x="130" y="98" width="5" height="4" rx="1.6" fill="#ffcf3a" transform="rotate(-10 132 100)"/>
    <rect x="142" y="94" width="5" height="4" rx="1.6" fill="#ffd94f" transform="rotate(12 144 96)"/>
    <rect x="154" y="98" width="5" height="4" rx="1.6" fill="#ffcf3a" transform="rotate(-6 156 100)"/>
    <rect x="164" y="102" width="5" height="4" rx="1.6" fill="#ffd94f" transform="rotate(8 166 104)"/>
    <rect x="136" y="106" width="5" height="4" rx="1.6" fill="#ffcf3a" transform="rotate(6 138 108)"/>
    <rect x="150" y="108" width="5" height="4" rx="1.6" fill="#ffd94f" transform="rotate(-12 152 110)"/>
    <rect x="160" y="110" width="5" height="4" rx="1.6" fill="#ffcf3a" transform="rotate(14 162 112)"/>
  </g>
  <circle cx="146" cy="104" r="1.6" fill="#d8300f"/>
  <circle cx="160" cy="106" r="1.4" fill="#5ecb4e"/>
  <!-- SECTION: pico de gallo salsa (right) -->
  <path d="M198 108 C196 94 228 92 246 102 C256 116 244 132 224 134 C204 132 198 122 198 108 Z" fill="#2a1410"/>
  <g>
    <rect x="206" y="104" width="5.5" height="5" rx="1.4" fill="#e0341f" transform="rotate(-14 208 106)"/>
    <rect x="220" y="100" width="5.5" height="5" rx="1.4" fill="#ff5a3a" transform="rotate(10 222 102)"/>
    <rect x="232" y="106" width="5.5" height="5" rx="1.4" fill="#e0341f" transform="rotate(-6 234 108)"/>
    <rect x="212" y="116" width="5.5" height="5" rx="1.4" fill="#ff5a3a" transform="rotate(16 214 118)"/>
    <rect x="228" y="118" width="5.5" height="5" rx="1.4" fill="#e0341f" transform="rotate(-8 230 120)"/>
    <rect x="238" y="118" width="4.5" height="4.5" rx="1.4" fill="#c31f12" transform="rotate(12 240 120)"/>
  </g>
  <rect x="216" y="108" width="4" height="3" rx="1" fill="#f4ead0" transform="rotate(20 218 109)"/>
  <rect x="234" y="112" width="4" height="3" rx="1" fill="#5ecb4e" transform="rotate(-10 236 113)"/>
  <!-- SECTION: avocado / guac scoop (front-center) -->
  <g transform="translate(160 138)">
    <path d="M-30 -8 C-30 -18 -12 -20 0 -18 C14 -20 30 -16 30 -6 C30 6 12 12 -2 10 C-18 12 -30 4 -30 -8 Z" fill="url(#bbavo)"/>
    <path d="M-30 -8 C-30 -18 -12 -20 0 -18 C14 -20 30 -16 30 -6" fill="none" stroke="#94b84e" stroke-width="1.4" opacity=".7"/>
    <!-- mashed texture -->
    <path d="M-20 -6 q6 -4 12 0 M-2 -8 q6 -3 12 1 M-14 2 q6 -3 12 1" stroke="#6b8f32" stroke-width="1.4" fill="none" opacity=".5"/>
    <ellipse cx="-8" cy="-10" rx="7" ry="3" fill="#cfe488" opacity=".7"/>
    <ellipse cx="14" cy="-8" rx="5" ry="2.4" fill="#cfe488" opacity=".6"/>
  </g>
  <!-- crema drizzle over the top -->
  <path d="M96 116 C130 128 200 128 236 114" stroke="#fbf3df" stroke-width="2.4" fill="none" opacity=".7" stroke-linecap="round"/>
  <path d="M110 122 C140 132 190 132 220 122" stroke="#fbf3df" stroke-width="1.8" fill="none" opacity=".55" stroke-linecap="round"/>
  <!-- cilantro flecks -->
  <rect x="118" y="120" width="6" height="2.4" rx="1.2" fill="#5ecb4e" transform="rotate(-18 121 121)"/>
  <rect x="188" y="118" width="6" height="2.4" rx="1.2" fill="#3f9c37" transform="rotate(16 191 119)"/>
  <rect x="150" y="130" width="6" height="2.4" rx="1.2" fill="#58c14a" transform="rotate(24 153 131)"/>
  <!-- gloss dots -->
  <circle cx="120" cy="106" r="1.4" fill="#fff" opacity=".6"/>
  <circle cx="200" cy="104" r="1.3" fill="#fff" opacity=".55"/>
  <circle cx="160" cy="128" r="1.2" fill="#fff" opacity=".5"/>
</svg>
