<svg xmlns="http://www.w3.org/2000/svg" viewBox="0 0 320 200" preserveAspectRatio="xMidYMid slice" aria-hidden="true">
  <defs>
    <filter id="bcBlur3" x="-60%" y="-60%" width="220%" height="220%">
      <feGaussianBlur stdDeviation="3"/>
    </filter>
    <radialGradient id="bcbg" cx="85%" cy="-5%" r="100%">
      <stop offset="0%" stop-color="#3a1120"/><stop offset="45%" stop-color="#0b090a"/><stop offset="100%" stop-color="#060506"/>
    </radialGradient>
    <radialGradient id="bcgravy" cx="48%" cy="30%" r="82%">
      <stop offset="0%" stop-color="#f2823a"/><stop offset="48%" stop-color="#d95a20"/><stop offset="100%" stop-color="#a83512"/>
    </radialGradient>
    <linearGradient id="bcchick" x1="0" y1="0" x2="0" y2="1">
      <stop offset="0%" stop-color="#e2a25a"/><stop offset="100%" stop-color="#b56a2a"/>
    </linearGradient>
  </defs>
  <rect width="320" height="200" fill="url(#bcbg)"/>
  <!-- steam -->
  <path d="M122 56 C112 38 132 30 122 10" stroke="#fff" stroke-width="7" fill="none" opacity=".1" filter="url(#bcBlur3)"/>
  <path d="M202 54 C194 38 212 30 204 10" stroke="#fff" stroke-width="6" fill="none" opacity=".08" filter="url(#bcBlur3)"/>
  <ellipse cx="160" cy="188" rx="154" ry="22" fill="#000" opacity=".5"/>
  <!-- shallow round bowl -->
  <ellipse cx="160" cy="126" rx="132" ry="46" fill="#161018"/>
  <ellipse cx="160" cy="126" rx="132" ry="46" fill="none" stroke="#2c2136" stroke-width="3"/>
  <ellipse cx="160" cy="126" rx="118" ry="38" fill="#0f0c11"/>
  <!-- neon steam arc (rose) -->
  <path d="M50 116 Q100 86 164 84" stroke="#ff4d6d" stroke-width="2.5" fill="none" opacity=".4" stroke-linecap="round"/>
  <!-- creamy tomato gravy pool -->
  <ellipse cx="160" cy="128" rx="106" ry="32" fill="url(#bcgravy)"/>
  <ellipse cx="132" cy="118" rx="34" ry="9" fill="#ffab6a" opacity=".35" transform="rotate(-8 132 118)"/>
  <!-- chicken chunks (glossy, coated) -->
  <g>
    <path d="M104 112 C100 104 112 100 122 104 C132 100 140 108 136 116 C140 124 128 130 118 126 C108 128 100 120 104 112 Z" fill="url(#bcchick)" stroke="#8a4a18" stroke-width="1.3"/>
    <ellipse cx="116" cy="108" rx="7" ry="3" fill="#ffce8f" opacity=".7"/>
  </g>
  <g>
    <path d="M160 108 C156 100 168 96 178 100 C188 96 196 104 192 112 C196 120 184 126 174 122 C164 124 156 116 160 108 Z" fill="url(#bcchick)" stroke="#8a4a18" stroke-width="1.3"/>
    <ellipse cx="172" cy="104" rx="7" ry="3" fill="#ffce8f" opacity=".7"/>
  </g>
  <g>
    <path d="M126 132 C122 124 134 120 144 124 C154 120 162 128 158 136 C162 144 150 150 140 146 C130 148 122 140 126 132 Z" fill="url(#bcchick)" stroke="#8a4a18" stroke-width="1.3"/>
    <ellipse cx="138" cy="128" rx="7" ry="3" fill="#ffce8f" opacity=".65"/>
  </g>
  <g>
    <path d="M186 130 C182 122 194 118 204 122 C214 118 222 126 218 134 C222 142 210 148 200 144 C190 146 182 138 186 130 Z" fill="url(#bcchick)" stroke="#8a4a18" stroke-width="1.3"/>
    <ellipse cx="198" cy="126" rx="7" ry="3" fill="#ffce8f" opacity=".7"/>
  </g>
  <!-- cream swirl on top -->
  <path d="M92 132 C120 122 150 138 178 128 C198 121 214 132 228 126" stroke="#fbecd6" stroke-width="3.4" fill="none" opacity=".85" stroke-linecap="round"/>
  <path d="M100 138 C126 130 152 142 176 134" stroke="#fff6ea" stroke-width="2" fill="none" opacity=".6" stroke-linecap="round"/>
  <!-- kasoori methi / cilantro flecks -->
  <rect x="118" y="116" width="6" height="2.4" rx="1.2" fill="#3f9c37" transform="rotate(-18 121 117)"/>
  <rect x="150" y="118" width="6" height="2.4" rx="1.2" fill="#58c14a" transform="rotate(16 153 119)"/>
  <rect x="182" y="120" width="6" height="2.4" rx="1.2" fill="#2f7d2b" transform="rotate(-10 185 121)"/>
  <rect x="140" y="136" width="6" height="2.4" rx="1.2" fill="#58c14a" transform="rotate(24 143 137)"/>
  <!-- butter melt highlight + gloss -->
  <ellipse cx="154" cy="116" rx="8" ry="3" fill="#ffe6b0" opacity=".5"/>
  <circle cx="128" cy="112" r="1.4" fill="#fff" opacity=".6"/>
  <circle cx="182" cy="116" r="1.3" fill="#fff" opacity=".55"/>
  <circle cx="150" cy="134" r="1.2" fill="#fff" opacity=".5"/>
</svg>
