<svg xmlns="http://www.w3.org/2000/svg" viewBox="0 0 320 200" preserveAspectRatio="xMidYMid slice" aria-hidden="true">
  <defs>
    <filter id="cmBlur3" x="-60%" y="-60%" width="220%" height="220%">
      <feGaussianBlur stdDeviation="3"/>
    </filter>
    <radialGradient id="cmbg" cx="85%" cy="-5%" r="100%">
      <stop offset="0%" stop-color="#332015"/><stop offset="45%" stop-color="#0b0908"/><stop offset="100%" stop-color="#060506"/>
    </radialGradient>
    <radialGradient id="cmgravy" cx="48%" cy="32%" r="82%">
      <stop offset="0%" stop-color="#a85a26"/><stop offset="50%" stop-color="#7c3d14"/><stop offset="100%" stop-color="#4f2409"/>
    </radialGradient>
    <linearGradient id="cmbowl" x1="0" y1="0" x2="0" y2="1">
      <stop offset="0%" stop-color="#1a1420"/><stop offset="55%" stop-color="#100b0d"/><stop offset="100%" stop-color="#070506"/>
    </linearGradient>
    <radialGradient id="cmpea" cx="40%" cy="32%" r="78%">
      <stop offset="0%" stop-color="#e8c98a"/><stop offset="60%" stop-color="#cba55e"/><stop offset="100%" stop-color="#9c7838"/>
    </radialGradient>
  </defs>
  <rect width="320" height="200" fill="url(#cmbg)"/>
  <!-- steam -->
  <path d="M120 58 C110 40 130 32 120 12" stroke="#fff" stroke-width="7" fill="none" opacity=".1" filter="url(#cmBlur3)"/>
  <path d="M200 54 C192 38 210 30 202 10" stroke="#fff" stroke-width="6" fill="none" opacity=".08" filter="url(#cmBlur3)"/>
  <ellipse cx="160" cy="188" rx="150" ry="22" fill="#000" opacity=".5"/>
  <!-- deep round bowl -->
  <path d="M46 108 C46 152 100 176 160 176 C220 176 274 152 274 108 Z" fill="url(#cmbowl)"/>
  <ellipse cx="160" cy="108" rx="118" ry="30" fill="#0d0d10"/>
  <ellipse cx="160" cy="108" rx="118" ry="30" fill="none" stroke="#271b22" stroke-width="3"/>
  <ellipse cx="160" cy="108" rx="106" ry="25" fill="#120b0a"/>
  <!-- neon steam arc (warm) -->
  <path d="M58 100 Q104 74 164 72" stroke="#ffe9c9" stroke-width="2.5" fill="none" opacity=".42" stroke-linecap="round"/>
  <!-- spiced masala gravy pool -->
  <ellipse cx="160" cy="110" rx="99" ry="22" fill="url(#cmgravy)"/>
  <ellipse cx="132" cy="102" rx="30" ry="7" fill="#c07a34" opacity=".3" transform="rotate(-8 132 102)"/>
  <!-- chickpeas: round pale-gold spheres heaped, each with a highlight -->
  <g>
    <circle cx="106" cy="106" r="7" fill="url(#cmpea)" stroke="#8a6528" stroke-width="1"/>
    <ellipse cx="103" cy="103" rx="2.6" ry="1.8" fill="#fff0cc" opacity=".8"/>
    <path d="M106 100 L106 112" stroke="#8a6528" stroke-width=".8" opacity=".5"/>
  </g>
  <g>
    <circle cx="128" cy="100" r="7.5" fill="url(#cmpea)" stroke="#8a6528" stroke-width="1"/>
    <ellipse cx="125" cy="97" rx="2.8" ry="1.9" fill="#fff0cc" opacity=".8"/>
    <path d="M128 93 L128 106" stroke="#8a6528" stroke-width=".8" opacity=".5"/>
  </g>
  <g>
    <circle cx="152" cy="104" r="8" fill="url(#cmpea)" stroke="#8a6528" stroke-width="1"/>
    <ellipse cx="149" cy="101" rx="3" ry="2" fill="#fff0cc" opacity=".85"/>
    <path d="M152 96 L152 111" stroke="#8a6528" stroke-width=".9" opacity=".5"/>
  </g>
  <g>
    <circle cx="176" cy="100" r="7.5" fill="url(#cmpea)" stroke="#8a6528" stroke-width="1"/>
    <ellipse cx="173" cy="97" rx="2.8" ry="1.9" fill="#fff0cc" opacity=".8"/>
    <path d="M176 93 L176 106" stroke="#8a6528" stroke-width=".8" opacity=".5"/>
  </g>
  <g>
    <circle cx="200" cy="106" r="7" fill="url(#cmpea)" stroke="#8a6528" stroke-width="1"/>
    <ellipse cx="197" cy="103" rx="2.6" ry="1.8" fill="#fff0cc" opacity=".8"/>
    <path d="M200 100 L200 112" stroke="#8a6528" stroke-width=".8" opacity=".5"/>
  </g>
  <g>
    <circle cx="118" cy="116" r="7" fill="url(#cmpea)" stroke="#8a6528" stroke-width="1"/>
    <ellipse cx="115" cy="113" rx="2.6" ry="1.8" fill="#fff0cc" opacity=".75"/>
    <path d="M118 110 L118 122" stroke="#8a6528" stroke-width=".8" opacity=".5"/>
  </g>
  <g>
    <circle cx="142" cy="118" r="7.5" fill="url(#cmpea)" stroke="#8a6528" stroke-width="1"/>
    <ellipse cx="139" cy="115" rx="2.8" ry="1.9" fill="#fff0cc" opacity=".8"/>
    <path d="M142 111 L142 124" stroke="#8a6528" stroke-width=".8" opacity=".5"/>
  </g>
  <g>
    <circle cx="166" cy="118" r="7.5" fill="url(#cmpea)" stroke="#8a6528" stroke-width="1"/>
    <ellipse cx="163" cy="115" rx="2.8" ry="1.9" fill="#fff0cc" opacity=".8"/>
    <path d="M166 111 L166 124" stroke="#8a6528" stroke-width=".8" opacity=".5"/>
  </g>
  <g>
    <circle cx="190" cy="116" r="7" fill="url(#cmpea)" stroke="#8a6528" stroke-width="1"/>
    <ellipse cx="187" cy="113" rx="2.6" ry="1.8" fill="#fff0cc" opacity=".75"/>
    <path d="M190 110 L190 122" stroke="#8a6528" stroke-width=".8" opacity=".5"/>
  </g>
  <!-- diced tomato + onion + cilantro garnish -->
  <path d="M132 108 l6 0 l0 6 l-6 0 Z" fill="#d43a22" opacity=".85" transform="rotate(12 135 111)"/>
  <path d="M180 112 l5 0 l0 5 l-5 0 Z" fill="#c62f1a" opacity=".8" transform="rotate(-10 182 114)"/>
  <rect x="120" y="98" width="6" height="2.4" rx="1.2" fill="#3f9c37" transform="rotate(-20 123 99)"/>
  <rect x="158" y="98" width="6" height="2.4" rx="1.2" fill="#58c14a" transform="rotate(14 161 99)"/>
  <rect x="196" y="112" width="6" height="2.4" rx="1.2" fill="#2f7d2b" transform="rotate(-10 199 113)"/>
  <rect x="150" y="112" width="5" height="2.2" rx="1.1" fill="#f2ddb0" transform="rotate(20 152 113)"/>
  <!-- red chili sliver + gloss -->
  <rect x="172" y="106" width="8" height="2.2" rx="1.1" fill="#e0341f" transform="rotate(-16 176 107)"/>
  <circle cx="128" cy="104" r="1.4" fill="#fff" opacity=".6"/>
  <circle cx="182" cy="104" r="1.3" fill="#fff" opacity=".55"/>
  <circle cx="154" cy="116" r="1.2" fill="#fff" opacity=".5"/>
</svg>
