<svg xmlns="http://www.w3.org/2000/svg" viewBox="0 0 320 200" preserveAspectRatio="xMidYMid slice" aria-hidden="true">
  <defs>
    <filter id="cckBlur3" x="-60%" y="-60%" width="220%" height="220%">
      <feGaussianBlur stdDeviation="3"/>
    </filter>
    <radialGradient id="cckbg" cx="85%" cy="-5%" r="100%">
      <stop offset="0%" stop-color="#332818"/><stop offset="45%" stop-color="#0b0a08"/><stop offset="100%" stop-color="#060606"/>
    </radialGradient>
    <radialGradient id="cckpot" cx="50%" cy="30%" r="82%">
      <stop offset="0%" stop-color="#3a2116"/><stop offset="60%" stop-color="#22120a"/><stop offset="100%" stop-color="#140a06"/>
    </radialGradient>
    <radialGradient id="ccksauce" cx="46%" cy="34%" r="78%">
      <stop offset="0%" stop-color="#8f2f12"/><stop offset="55%" stop-color="#5f1608"/><stop offset="100%" stop-color="#380904"/>
    </radialGradient>
    <linearGradient id="cckchicken" x1="0" y1="0" x2="0" y2="1">
      <stop offset="0%" stop-color="#cf5226"/><stop offset="50%" stop-color="#93340f"/><stop offset="100%" stop-color="#5e2410"/>
    </linearGradient>
    <radialGradient id="cckchestnut" cx="38%" cy="30%" r="80%">
      <stop offset="0%" stop-color="#e0a860"/><stop offset="55%" stop-color="#b47232"/><stop offset="100%" stop-color="#7c4416"/>
    </radialGradient>
  </defs>
  <rect width="320" height="200" fill="url(#cckbg)"/>
  <!-- rising steam wisps -->
  <path d="M122 52 C112 34 132 28 122 8" stroke="#fff" stroke-width="7" fill="none" opacity=".1" filter="url(#cckBlur3)"/>
  <path d="M198 50 C190 34 208 26 200 8" stroke="#fff" stroke-width="6" fill="none" opacity=".08" filter="url(#cckBlur3)"/>
  <!-- cast shadow -->
  <ellipse cx="160" cy="188" rx="140" ry="21" fill="#000" opacity=".5"/>
  <!-- curved braise pot -->
  <path d="M58 110 C58 98 92 90 160 90 C228 90 262 98 262 110 L256 150 C256 168 214 180 160 180 C106 180 64 168 64 150 Z" fill="url(#cckpot)"/>
  <path d="M58 110 C58 98 92 90 160 90 C228 90 262 98 262 110 L256 150 C256 168 214 180 160 180 C106 180 64 168 64 150 Z" fill="none" stroke="#4a2a19" stroke-width="2.5"/>
  <!-- pot rim -->
  <ellipse cx="160" cy="108" rx="102" ry="23" fill="#241209"/>
  <ellipse cx="160" cy="108" rx="102" ry="23" fill="none" stroke="#5a3320" stroke-width="2.5"/>
  <!-- neon steam arc (warm white) -->
  <path d="M54 98 Q106 66 170 68" stroke="#ffe9c9" stroke-width="2.5" fill="none" opacity=".42" stroke-linecap="round"/>
  <!-- braising liquid -->
  <ellipse cx="160" cy="110" rx="92" ry="18" fill="url(#ccksauce)"/>
  <ellipse cx="128" cy="104" rx="16" ry="4.5" fill="#c2451f" opacity=".45"/>
  <ellipse cx="196" cy="106" rx="14" ry="4" fill="#c2451f" opacity=".4"/>
  <!-- back-row chicken chunks -->
  <g transform="translate(108 94) rotate(-8) scale(.84)">
    <path d="M0 8 C-2 -2 12 -6 20 -2 C30 -6 40 2 36 10 C40 18 28 24 16 20 C4 22 -2 16 0 8 Z" fill="url(#cckchicken)" stroke="#3a1607" stroke-width="1.3"/>
    <ellipse cx="14" cy="0" rx="8" ry="3" fill="#e88a4c" opacity=".55"/>
  </g>
  <g transform="translate(180 94) rotate(10) scale(.84)">
    <path d="M0 8 C-2 -2 12 -6 20 -2 C30 -6 40 2 36 10 C40 18 28 24 16 20 C4 22 -2 16 0 8 Z" fill="url(#cckchicken)" stroke="#3a1607" stroke-width="1.3"/>
    <ellipse cx="14" cy="0" rx="8" ry="3" fill="#e88a4c" opacity=".55"/>
  </g>
  <!-- front-row chicken chunks (larger, glossy) -->
  <g transform="translate(84 106) rotate(-12)">
    <path d="M0 10 C-3 -3 16 -8 26 -3 C39 -8 52 3 47 13 C52 23 37 31 21 26 C6 29 -3 21 0 10 Z" fill="url(#cckchicken)" stroke="#3a1607" stroke-width="1.4"/>
    <ellipse cx="18" cy="-1" rx="11" ry="4" fill="#f09656" opacity=".6"/>
    <circle cx="12" cy="4" r="1.6" fill="#fff" opacity=".6"/>
  </g>
  <g transform="translate(174 110) rotate(8)">
    <path d="M0 10 C-3 -3 16 -8 26 -3 C39 -8 52 3 47 13 C52 23 37 31 21 26 C6 29 -3 21 0 10 Z" fill="url(#cckchicken)" stroke="#3a1607" stroke-width="1.4"/>
    <ellipse cx="18" cy="-1" rx="11" ry="4" fill="#f09656" opacity=".6"/>
    <circle cx="40" cy="5" r="1.5" fill="#fff" opacity=".55"/>
  </g>
  <!-- ROUND GLOSSY CHESTNUTS (the distinctive hero — smooth domes, flat base) -->
  <g transform="translate(138 116)">
    <path d="M-13 6 C-13 -6 -6 -12 0 -12 C6 -12 13 -6 13 6 C13 10 8 12 0 12 C-8 12 -13 10 -13 6 Z" fill="url(#cckchestnut)" stroke="#5e3410" stroke-width="1.4"/>
    <ellipse cx="-4" cy="-4" rx="6" ry="4" fill="#f0cf90" opacity=".7"/>
    <circle cx="-6" cy="-6" r="1.6" fill="#fff" opacity=".65"/>
  </g>
  <g transform="translate(112 124) scale(.9)">
    <path d="M-13 6 C-13 -6 -6 -12 0 -12 C6 -12 13 -6 13 6 C13 10 8 12 0 12 C-8 12 -13 10 -13 6 Z" fill="url(#cckchestnut)" stroke="#5e3410" stroke-width="1.4"/>
    <ellipse cx="-4" cy="-4" rx="6" ry="4" fill="#f0cf90" opacity=".65"/>
    <circle cx="-6" cy="-6" r="1.5" fill="#fff" opacity=".6"/>
  </g>
  <g transform="translate(196 122) scale(.95)">
    <path d="M-13 6 C-13 -6 -6 -12 0 -12 C6 -12 13 -6 13 6 C13 10 8 12 0 12 C-8 12 -13 10 -13 6 Z" fill="url(#cckchestnut)" stroke="#5e3410" stroke-width="1.4"/>
    <ellipse cx="-4" cy="-4" rx="6" ry="4" fill="#f0cf90" opacity=".65"/>
    <circle cx="-6" cy="-6" r="1.5" fill="#fff" opacity=".6"/>
  </g>
  <g transform="translate(162 128) scale(.82)">
    <path d="M-13 6 C-13 -6 -6 -12 0 -12 C6 -12 13 -6 13 6 C13 10 8 12 0 12 C-8 12 -13 10 -13 6 Z" fill="url(#cckchestnut)" stroke="#5e3410" stroke-width="1.4"/>
    <ellipse cx="-4" cy="-4" rx="5" ry="3.4" fill="#f0cf90" opacity=".6"/>
  </g>
  <!-- ginger + scallion garnish -->
  <ellipse cx="98" cy="120" rx="6" ry="4" fill="#e8c98a" opacity=".9" transform="rotate(-16 98 120)"/>
  <rect x="150" y="106" width="8" height="2.8" rx="1.4" fill="#5ecb4e" transform="rotate(-14 154 107)"/>
  <rect x="178" y="130" width="7" height="2.6" rx="1.3" fill="#3f9c37" transform="rotate(18 181 131)"/>
  <rect x="118" y="132" width="7" height="2.6" rx="1.3" fill="#58c14a" transform="rotate(-20 121 133)"/>
  <!-- gloss dots -->
  <circle cx="146" cy="110" r="1.4" fill="#fff" opacity=".6"/>
  <circle cx="184" cy="118" r="1.3" fill="#fff" opacity=".5"/>
  <circle cx="106" cy="114" r="1.2" fill="#fff" opacity=".5"/>
</svg>
