<svg xmlns="http://www.w3.org/2000/svg" viewBox="0 0 320 200" preserveAspectRatio="xMidYMid slice" aria-hidden="true">
  <defs>
    <filter id="cq1Blur3" x="-60%" y="-60%" width="220%" height="220%">
      <feGaussianBlur stdDeviation="3"/>
    </filter>
    <radialGradient id="cq1bg" cx="85%" cy="-5%" r="100%">
      <stop offset="0%" stop-color="#123138"/><stop offset="45%" stop-color="#0b090a"/><stop offset="100%" stop-color="#060506"/>
    </radialGradient>
    <radialGradient id="cq1wok" cx="50%" cy="34%" r="80%">
      <stop offset="0%" stop-color="#1a1420"/><stop offset="100%" stop-color="#0b0b0d"/>
    </radialGradient>
    <!-- dried chili: deep glossy red, darker toward the tip -->
    <linearGradient id="cq1chili" x1="0" y1="0" x2="1" y2="0.25">
      <stop offset="0%" stop-color="#d8281a"/><stop offset="52%" stop-color="#a51808"/><stop offset="100%" stop-color="#6c0f04"/>
    </linearGradient>
    <!-- craggy fried chicken: golden-brown fried crust -->
    <linearGradient id="cq1chik" x1="0" y1="0" x2="1" y2="1">
      <stop offset="0%" stop-color="#c07a2e"/><stop offset="50%" stop-color="#8a4d16"/><stop offset="100%" stop-color="#5a2f0c"/>
    </linearGradient>
  </defs>
  <rect width="320" height="200" fill="url(#cq1bg)"/>
  <!-- steam -->
  <path d="M122 52 C112 34 132 28 122 8" stroke="#fff" stroke-width="7" fill="none" opacity=".1" filter="url(#cq1Blur3)"/>
  <path d="M198 50 C190 34 208 28 200 8" stroke="#fff" stroke-width="6" fill="none" opacity=".08" filter="url(#cq1Blur3)"/>
  <ellipse cx="160" cy="188" rx="150" ry="22" fill="#000" opacity=".5"/>
  <!-- wok: dark ring -->
  <ellipse cx="160" cy="128" rx="128" ry="54" fill="url(#cq1wok)"/>
  <ellipse cx="160" cy="128" rx="128" ry="54" fill="none" stroke="#26262e" stroke-width="3"/>
  <ellipse cx="160" cy="128" rx="112" ry="45" fill="#0c0c0f"/>
  <!-- neon steam arc (cyan) -->
  <path d="M52 112 Q104 80 168 78" stroke="#35e0ff" stroke-width="2.5" fill="none" opacity=".4" stroke-linecap="round"/>
  <!-- glossy chili-oil base pooled in wok -->
  <path d="M62 130 C68 108 110 96 160 96 C210 96 252 108 258 130 C232 152 198 158 160 158 C122 158 88 152 62 130 Z" fill="#4d1305" opacity=".9"/>

  <!-- ===== BACK LAYER: dried chili pods (dimmer, smaller, filling the mound behind) ===== -->
  <g stroke="#5a0d03" stroke-width="1" stroke-linejoin="round" stroke-linecap="round" opacity=".9">
    <g transform="translate(74 106) rotate(-30) scale(.86)"><path d="M0 4 C10 -2 30 -4 44 0 C50 2 52 5 50 8 C40 6 40 9 30 8 C18 9 8 8 0 6 Z" fill="url(#cq1chili)"/><path d="M50 4 C55 3 58 6 59 10" stroke="#3a3016" stroke-width="1.8" fill="none"/></g>
    <g transform="translate(118 98) rotate(16) scale(.86)"><path d="M0 4 C10 -2 30 -4 44 0 C50 2 52 5 50 8 C40 6 40 9 30 8 C18 9 8 8 0 6 Z" fill="url(#cq1chili)"/><path d="M50 4 C55 3 58 6 59 10" stroke="#3a3016" stroke-width="1.8" fill="none"/></g>
    <g transform="translate(172 96) rotate(-14) scale(.86)"><path d="M0 4 C10 -2 30 -4 44 0 C50 2 52 5 50 8 C40 6 40 9 30 8 C18 9 8 8 0 6 Z" fill="url(#cq1chili)"/><path d="M50 4 C55 3 58 6 59 10" stroke="#3a3016" stroke-width="1.8" fill="none"/></g>
    <g transform="translate(210 108) rotate(24) scale(.82)"><path d="M0 4 C10 -2 30 -4 44 0 C50 2 52 5 50 8 C40 6 40 9 30 8 C18 9 8 8 0 6 Z" fill="url(#cq1chili)"/><path d="M50 4 C55 3 58 6 59 10" stroke="#3a3016" stroke-width="1.8" fill="none"/></g>
  </g>

  <!-- ===== craggy golden-brown fried chicken pieces peeking out among the chilies ===== -->
  <g stroke="#3a1c06" stroke-width="1.3" stroke-linejoin="round">
    <path d="M96 122 q4 -9 13 -8 q7 -5 12 1 q9 -1 9 8 q4 7 -4 11 q-6 8 -15 4 q-11 2 -14 -6 q-6 -4 -1 -11 Z" fill="url(#cq1chik)"/>
    <path d="M150 132 q4 -9 13 -8 q7 -5 12 1 q9 -1 9 8 q4 7 -4 11 q-6 8 -15 4 q-11 2 -14 -6 q-6 -4 -1 -11 Z" fill="url(#cq1chik)"/>
    <path d="M198 124 q3 -8 11 -7 q6 -4 10 1 q8 -1 8 7 q3 6 -4 10 q-5 7 -13 3 q-9 1 -12 -5 q-5 -4 -1 -10 Z" fill="url(#cq1chik)"/>
  </g>
  <!-- craggy chicken speckle + gloss -->
  <g>
    <ellipse cx="106" cy="120" rx="5" ry="2.3" fill="#e0a556" opacity=".55"/>
    <ellipse cx="160" cy="130" rx="5" ry="2.3" fill="#e0a556" opacity=".55"/>
    <ellipse cx="207" cy="122" rx="4.4" ry="2" fill="#e0a556" opacity=".5"/>
    <circle cx="102" cy="126" r="1.2" fill="#6a3410"/><circle cx="116" cy="128" r="1" fill="#6a3410"/>
    <circle cx="156" cy="138" r="1.2" fill="#6a3410"/><circle cx="170" cy="134" r="1" fill="#6a3410"/>
    <circle cx="203" cy="128" r="1" fill="#6a3410"/>
  </g>

  <!-- ===== FRONT LAYER: the HERO — big glossy curved dried red chili pods, mounded thickly ===== -->
  <g stroke="#5a0d03" stroke-width="1.2" stroke-linejoin="round" stroke-linecap="round">
    <!-- each pod: tapered curved body + a green-brown stem nub + a bright glossy sheen -->
    <g transform="translate(60 118) rotate(-22)">
      <path d="M0 5 C12 -3 34 -5 50 -1 C57 1 60 5 57 9 C46 7 46 11 34 10 C20 11 8 10 0 7 Z" fill="url(#cq1chili)"/>
      <path d="M57 3 C63 2 67 5 68 10" stroke="#4a3a1a" stroke-width="2" fill="none"/>
      <path d="M4 4 C16 0 34 -2 48 1" stroke="#ff6a4a" stroke-width="1.5" fill="none" opacity=".65"/>
    </g>
    <g transform="translate(112 110) rotate(10)">
      <path d="M0 5 C12 -3 34 -5 50 -1 C57 1 60 5 57 9 C46 7 46 11 34 10 C20 11 8 10 0 7 Z" fill="url(#cq1chili)"/>
      <path d="M57 3 C63 2 67 5 68 10" stroke="#4a3a1a" stroke-width="2" fill="none"/>
      <path d="M4 4 C16 0 34 -2 48 1" stroke="#ff6a4a" stroke-width="1.5" fill="none" opacity=".65"/>
    </g>
    <g transform="translate(166 108) rotate(-30)">
      <path d="M0 5 C12 -3 34 -5 50 -1 C57 1 60 5 57 9 C46 7 46 11 34 10 C20 11 8 10 0 7 Z" fill="url(#cq1chili)"/>
      <path d="M57 3 C63 2 67 5 68 10" stroke="#4a3a1a" stroke-width="2" fill="none"/>
      <path d="M4 4 C16 0 34 -2 48 1" stroke="#ff6a4a" stroke-width="1.5" fill="none" opacity=".65"/>
    </g>
    <g transform="translate(214 116) rotate(18)">
      <path d="M0 5 C11 -3 31 -5 46 -1 C53 1 56 5 53 9 C43 7 43 11 32 10 C19 11 8 10 0 7 Z" fill="url(#cq1chili)"/>
      <path d="M53 3 C59 2 63 5 64 10" stroke="#4a3a1a" stroke-width="2" fill="none"/>
      <path d="M4 4 C15 0 31 -2 44 1" stroke="#ff6a4a" stroke-width="1.4" fill="none" opacity=".6"/>
    </g>
    <g transform="translate(78 138) rotate(24)">
      <path d="M0 5 C12 -3 34 -5 50 -1 C57 1 60 5 57 9 C46 7 46 11 34 10 C20 11 8 10 0 7 Z" fill="url(#cq1chili)"/>
      <path d="M57 3 C63 2 67 5 68 10" stroke="#4a3a1a" stroke-width="2" fill="none"/>
      <path d="M4 4 C16 0 34 -2 48 1" stroke="#ff6a4a" stroke-width="1.5" fill="none" opacity=".6"/>
    </g>
    <g transform="translate(134 142) rotate(-12)">
      <path d="M0 5 C12 -3 34 -5 50 -1 C57 1 60 5 57 9 C46 7 46 11 34 10 C20 11 8 10 0 7 Z" fill="url(#cq1chili)"/>
      <path d="M57 3 C63 2 67 5 68 10" stroke="#4a3a1a" stroke-width="2" fill="none"/>
      <path d="M4 4 C16 0 34 -2 48 1" stroke="#ff6a4a" stroke-width="1.5" fill="none" opacity=".6"/>
    </g>
    <g transform="translate(188 140) rotate(30)">
      <path d="M0 5 C11 -3 31 -5 46 -1 C53 1 56 5 53 9 C43 7 43 11 32 10 C19 11 8 10 0 7 Z" fill="url(#cq1chili)"/>
      <path d="M53 3 C59 2 63 5 64 10" stroke="#4a3a1a" stroke-width="2" fill="none"/>
      <path d="M4 4 C15 0 31 -2 44 1" stroke="#ff6a4a" stroke-width="1.4" fill="none" opacity=".6"/>
    </g>
  </g>

  <!-- Sichuan peppercorns (麻) scattered on top -->
  <circle cx="98" cy="112" r="2.1" fill="#3a1206"/><circle cx="97.2" cy="111.2" r=".7" fill="#a05a26" opacity=".7"/>
  <circle cx="150" cy="106" r="2.1" fill="#3a1206"/><circle cx="149.2" cy="105.2" r=".7" fill="#a05a26" opacity=".7"/>
  <circle cx="200" cy="112" r="2" fill="#3a1206"/><circle cx="199.3" cy="111.3" r=".7" fill="#a05a26" opacity=".7"/>
  <circle cx="122" cy="134" r="2" fill="#3a1206"/><circle cx="121.3" cy="133.3" r=".7" fill="#a05a26" opacity=".7"/>
  <circle cx="176" cy="132" r="1.9" fill="#3a1206"/><circle cx="175.3" cy="131.3" r=".6" fill="#a05a26" opacity=".7"/>
  <!-- white sesame -->
  <ellipse cx="112" cy="120" rx="1.9" ry="1.1" fill="#f8eed6" transform="rotate(20 112 120)"/>
  <ellipse cx="164" cy="118" rx="1.9" ry="1.1" fill="#f8eed6" transform="rotate(-14 164 118)"/>
  <ellipse cx="138" cy="128" rx="1.8" ry="1" fill="#f8eed6" transform="rotate(8 138 128)"/>
  <ellipse cx="190" cy="122" rx="1.8" ry="1" fill="#f8eed6" transform="rotate(-24 190 122)"/>
  <ellipse cx="88" cy="126" rx="1.7" ry="1" fill="#f8eed6" transform="rotate(30 88 126)"/>
  <!-- scallion greens -->
  <rect x="144" y="114" width="7" height="2.6" rx="1.3" fill="#5ecb4e" transform="rotate(-12 147 115)"/>
  <rect x="106" y="140" width="6" height="2.4" rx="1.2" fill="#3f9c37" transform="rotate(22 109 141)"/>
  <rect x="198" y="134" width="6" height="2.4" rx="1.2" fill="#58c14a" transform="rotate(-18 201 135)"/>
  <!-- oil gloss dots -->
  <circle cx="128" cy="112" r="1.4" fill="#fff" opacity=".55"/>
  <circle cx="182" cy="114" r="1.3" fill="#fff" opacity=".5"/>
  <circle cx="156" cy="132" r="1.2" fill="#fff" opacity=".5"/>
</svg>
