<svg xmlns="http://www.w3.org/2000/svg" viewBox="0 0 320 200" preserveAspectRatio="xMidYMid slice" aria-hidden="true">
  <defs>
    <filter id="nnBlur3" x="-60%" y="-60%" width="220%" height="220%">
      <feGaussianBlur stdDeviation="3"/>
    </filter>
    <radialGradient id="cc1bg" cx="85%" cy="-5%" r="100%">
      <stop offset="0%" stop-color="#123138"/><stop offset="45%" stop-color="#0b090a"/><stop offset="100%" stop-color="#060506"/>
    </radialGradient>
    <radialGradient id="cc1plate" cx="50%" cy="34%" r="80%">
      <stop offset="0%" stop-color="#1a1420"/><stop offset="100%" stop-color="#0b0b0d"/>
    </radialGradient>
    <linearGradient id="cc1cuke" x1="0" y1="0" x2="0" y2="1">
      <stop offset="0%" stop-color="#bfe66a"/><stop offset="45%" stop-color="#8fce4c"/><stop offset="100%" stop-color="#4f9a34"/>
    </linearGradient>
    <linearGradient id="cc1flesh" x1="0" y1="0" x2="0" y2="1">
      <stop offset="0%" stop-color="#eaf6cf"/><stop offset="100%" stop-color="#c4e59a"/>
    </linearGradient>
  </defs>
  <rect width="320" height="200" fill="url(#cc1bg)"/>
  <!-- steam -->
  <path d="M122 58 C112 42 130 34 122 14" stroke="#fff" stroke-width="7" fill="none" opacity=".08" filter="url(#nnBlur3)"/>
  <path d="M200 54 C192 38 208 30 202 12" stroke="#fff" stroke-width="6" fill="none" opacity=".06" filter="url(#nnBlur3)"/>
  <ellipse cx="160" cy="188" rx="156" ry="21" fill="#000" opacity=".5"/>
  <!-- wide shallow plate -->
  <ellipse cx="160" cy="130" rx="138" ry="46" fill="url(#cc1plate)"/>
  <ellipse cx="160" cy="130" rx="138" ry="46" fill="none" stroke="#26262e" stroke-width="3"/>
  <ellipse cx="160" cy="130" rx="122" ry="37" fill="#0c0c0f"/>
  <!-- neon steam arc -->
  <path d="M52 118 Q102 90 166 88" stroke="#35e0ff" stroke-width="2.5" fill="none" opacity=".4" stroke-linecap="round"/>
  <!-- glossy chili-oil / vinegar pool -->
  <ellipse cx="160" cy="134" rx="108" ry="26" fill="#3a1c08" opacity=".8"/>
  <ellipse cx="140" cy="128" rx="34" ry="8" fill="#8a4a16" opacity=".35"/>
  <!-- smashed cucumber chunks (irregular jade batons, cracked edges) -->
  <g stroke="#3c7a26" stroke-width="1.3">
    <path d="M92 118 C88 110 96 104 108 106 C120 102 128 110 126 120 C130 128 118 134 106 130 C96 132 90 126 92 118 Z" fill="url(#cc1cuke)"/>
    <path d="M150 108 C146 100 156 96 168 98 C180 96 186 104 182 112 C186 120 174 124 162 120 C152 122 148 116 150 108 Z" fill="url(#cc1cuke)"/>
    <path d="M204 116 C200 108 210 104 222 106 C232 104 238 112 234 120 C238 128 226 132 214 128 C206 130 202 124 204 116 Z" fill="url(#cc1cuke)"/>
    <path d="M118 138 C114 130 124 126 136 128 C146 126 152 134 148 142 C150 150 138 152 128 148 C120 150 116 144 118 138 Z" fill="url(#cc1cuke)"/>
    <path d="M176 136 C172 128 182 124 194 126 C204 124 210 132 206 140 C208 148 196 150 186 146 C178 148 174 142 176 136 Z" fill="url(#cc1cuke)"/>
  </g>
  <!-- pale inner flesh on each chunk + seed hints -->
  <g>
    <path d="M100 112 C106 108 116 110 118 116 C114 122 104 122 100 118 Z" fill="url(#cc1flesh)" opacity=".9"/>
    <circle cx="108" cy="115" r="1" fill="#d7ecac"/><circle cx="112" cy="117" r="1" fill="#d7ecac"/>
    <path d="M158 104 C164 100 174 102 176 108 C172 114 162 114 158 110 Z" fill="url(#cc1flesh)" opacity=".9"/>
    <circle cx="166" cy="107" r="1" fill="#d7ecac"/><circle cx="170" cy="109" r="1" fill="#d7ecac"/>
    <path d="M212 112 C218 108 228 110 230 116 C226 122 216 122 212 118 Z" fill="url(#cc1flesh)" opacity=".9"/>
    <circle cx="220" cy="115" r="1" fill="#d7ecac"/><circle cx="224" cy="117" r="1" fill="#d7ecac"/>
    <path d="M126 132 C132 128 142 130 144 136 C140 142 130 142 126 138 Z" fill="url(#cc1flesh)" opacity=".85"/>
    <path d="M184 130 C190 126 200 128 202 134 C198 140 188 140 184 136 Z" fill="url(#cc1flesh)" opacity=".85"/>
  </g>
  <!-- minced garlic dots scattered on top -->
  <circle cx="120" cy="120" r="2" fill="#f2ddb0"/><circle cx="146" cy="124" r="1.8" fill="#f2ddb0"/>
  <circle cx="172" cy="118" r="2" fill="#f2ddb0"/><circle cx="198" cy="122" r="1.8" fill="#f2ddb0"/>
  <circle cx="134" cy="112" r="1.6" fill="#f2ddb0"/><circle cx="208" cy="130" r="1.7" fill="#f2ddb0"/>
  <!-- diced red chili flecks -->
  <rect x="112" y="126" width="6" height="2.6" rx="1.3" fill="#e0341f" transform="rotate(-20 115 127)"/>
  <rect x="158" y="118" width="6" height="2.6" rx="1.3" fill="#e0341f" transform="rotate(18 161 119)"/>
  <rect x="196" y="128" width="6" height="2.4" rx="1.2" fill="#e0341f" transform="rotate(-10 199 129)"/>
  <rect x="138" y="140" width="5.5" height="2.4" rx="1.2" fill="#c31f12" transform="rotate(24 141 141)"/>
  <!-- scallion + cilantro flecks -->
  <rect x="128" y="108" width="7" height="2.6" rx="1.3" fill="#58c14a" transform="rotate(-18 131 109)"/>
  <rect x="182" y="112" width="7" height="2.6" rx="1.3" fill="#3f9c37" transform="rotate(14 185 113)"/>
  <rect x="150" y="138" width="6" height="2.4" rx="1.2" fill="#5ecb4e" transform="rotate(-24 153 139)"/>
  <!-- sesame -->
  <ellipse cx="132" cy="124" rx="1.4" ry="1" fill="#f8eed6"/><ellipse cx="176" cy="126" rx="1.4" ry="1" fill="#f8eed6"/>
  <ellipse cx="204" cy="120" rx="1.4" ry="1" fill="#f8eed6"/>
  <!-- oil gloss dots -->
  <circle cx="118" cy="114" r="1.4" fill="#fff" opacity=".6"/>
  <circle cx="180" cy="120" r="1.3" fill="#fff" opacity=".55"/>
  <circle cx="150" cy="132" r="1.2" fill="#fff" opacity=".5"/>
</svg>
