<svg xmlns="http://www.w3.org/2000/svg" viewBox="0 0 320 200" preserveAspectRatio="xMidYMid slice" aria-hidden="true">
  <defs>
    <filter id="nnBlur3" x="-60%" y="-60%" width="220%" height="220%">
      <feGaussianBlur stdDeviation="3"/>
    </filter>
    <radialGradient id="a4bg" cx="85%" cy="-5%" r="100%">
      <stop offset="0%" stop-color="#3a1120"/><stop offset="45%" stop-color="#0b090a"/><stop offset="100%" stop-color="#060506"/>
    </radialGradient>
    <radialGradient id="a4egg" cx="40%" cy="30%" r="80%">
      <stop offset="0%" stop-color="#ffeaa6"/><stop offset="100%" stop-color="#f6ac25"/>
    </radialGradient>
    <linearGradient id="a4tom" x1="0" y1="0" x2="0" y2="1">
      <stop offset="0%" stop-color="#ff7350"/><stop offset="100%" stop-color="#dd3320"/>
    </linearGradient>
    <radialGradient id="a4juice" cx="50%" cy="40%" r="80%">
      <stop offset="0%" stop-color="#d8451f"/><stop offset="100%" stop-color="#992810"/>
    </radialGradient>
  </defs>
  <rect width="320" height="200" fill="url(#a4bg)"/>
  <path d="M140 52 C132 36 148 28 140 10" stroke="#fff" stroke-width="6" fill="none" opacity=".09" filter="url(#nnBlur3)"/>
  <ellipse cx="160" cy="186" rx="152" ry="20" fill="#000" opacity=".5"/>
  <ellipse cx="160" cy="126" rx="122" ry="50" fill="#151016"/>
  <ellipse cx="160" cy="126" rx="122" ry="50" fill="none" stroke="#271b22" stroke-width="2.5"/>
  <ellipse cx="160" cy="126" rx="108" ry="42" fill="#0f0a0e"/>
  <path d="M58 110 Q102 80 164 76" stroke="#ff4d6d" stroke-width="2.5" fill="none" opacity=".4" stroke-linecap="round"/>
  <ellipse cx="160" cy="128" rx="90" ry="32" fill="url(#a4juice)" opacity=".8"/>
  <!-- egg curds -->
  <g transform="translate(86 84) rotate(-6)">
    <path d="M2 18 C-2 8 10 -2 24 1 C38 -4 52 4 50 15 C54 24 42 32 28 30 C14 34 4 28 2 18 Z" fill="url(#a4egg)"/>
    <ellipse cx="18" cy="10" rx="8" ry="3.5" fill="#fff3c8" opacity=".75"/>
  </g>
  <g transform="translate(150 76) rotate(4)">
    <path d="M2 18 C-2 8 10 -2 24 1 C38 -4 52 4 50 15 C54 24 42 32 28 30 C14 34 4 28 2 18 Z" fill="url(#a4egg)"/>
    <ellipse cx="18" cy="10" rx="8" ry="3.5" fill="#fff3c8" opacity=".75"/>
  </g>
  <g transform="translate(196 96) rotate(-9)">
    <path d="M2 18 C-2 8 10 -2 24 1 C38 -4 52 4 50 15 C54 24 42 32 28 30 C14 34 4 28 2 18 Z" fill="url(#a4egg)"/>
    <ellipse cx="18" cy="10" rx="8" ry="3.5" fill="#fff3c8" opacity=".75"/>
  </g>
  <g transform="translate(106 116) rotate(3)">
    <path d="M2 18 C-2 8 10 -2 24 1 C38 -4 52 4 50 15 C54 24 42 32 28 30 C14 34 4 28 2 18 Z" fill="url(#a4egg)"/>
    <ellipse cx="18" cy="10" rx="8" ry="3.5" fill="#fff3c8" opacity=".75"/>
  </g>
  <g transform="translate(164 120) rotate(-4)">
    <path d="M2 18 C-2 8 10 -2 24 1 C38 -4 52 4 50 15 C54 24 42 32 28 30 C14 34 4 28 2 18 Z" fill="url(#a4egg)"/>
    <ellipse cx="18" cy="10" rx="8" ry="3.5" fill="#fff3c8" opacity=".75"/>
  </g>
  <!-- tomato wedges -->
  <g transform="translate(72 110) rotate(14)">
    <path d="M0 6 C16 -6 40 -6 52 6 C42 20 12 22 0 6 Z" fill="url(#a4tom)"/>
    <path d="M0 6 C16 -6 40 -6 52 6" stroke="#c31f12" stroke-width="5" fill="none" stroke-linecap="round"/>
    <path d="M8 7 C18 -1 36 -1 45 7 C36 15 16 16 8 7 Z" fill="#ff9d7d" opacity=".8"/>
    <ellipse cx="18" cy="7" rx="2.2" ry="1.3" fill="#ffd9a2" transform="rotate(-20 18 7)"/>
    <ellipse cx="28" cy="5" rx="2.2" ry="1.3" fill="#ffd9a2" transform="rotate(16 28 5)"/>
    <ellipse cx="37" cy="8" rx="2" ry="1.2" fill="#ffd9a2" transform="rotate(-8 37 8)"/>
  </g>
  <g transform="translate(138 132) rotate(-6)">
    <path d="M0 6 C16 -6 40 -6 52 6 C42 20 12 22 0 6 Z" fill="url(#a4tom)"/>
    <path d="M0 6 C16 -6 40 -6 52 6" stroke="#c31f12" stroke-width="5" fill="none" stroke-linecap="round"/>
    <path d="M8 7 C18 -1 36 -1 45 7 C36 15 16 16 8 7 Z" fill="#ff9d7d" opacity=".8"/>
    <ellipse cx="18" cy="7" rx="2.2" ry="1.3" fill="#ffd9a2" transform="rotate(-20 18 7)"/>
    <ellipse cx="30" cy="6" rx="2.2" ry="1.3" fill="#ffd9a2" transform="rotate(12 30 6)"/>
  </g>
  <g transform="translate(196 122) rotate(10)">
    <path d="M0 6 C16 -6 40 -6 52 6 C42 20 12 22 0 6 Z" fill="url(#a4tom)"/>
    <path d="M0 6 C16 -6 40 -6 52 6" stroke="#c31f12" stroke-width="5" fill="none" stroke-linecap="round"/>
    <path d="M8 7 C18 -1 36 -1 45 7 C36 15 16 16 8 7 Z" fill="#ff9d7d" opacity=".8"/>
    <ellipse cx="20" cy="6" rx="2.2" ry="1.3" fill="#ffd9a2" transform="rotate(-14 20 6)"/>
    <ellipse cx="33" cy="8" rx="2" ry="1.2" fill="#ffd9a2" transform="rotate(20 33 8)"/>
  </g>
  <g transform="translate(122 92) rotate(-18)">
    <path d="M0 6 C16 -6 40 -6 52 6 C42 20 12 22 0 6 Z" fill="url(#a4tom)"/>
    <path d="M0 6 C16 -6 40 -6 52 6" stroke="#c31f12" stroke-width="5" fill="none" stroke-linecap="round"/>
    <path d="M8 7 C18 -1 36 -1 45 7 C36 15 16 16 8 7 Z" fill="#ff9d7d" opacity=".8"/>
    <ellipse cx="22" cy="6" rx="2.2" ry="1.3" fill="#ffd9a2" transform="rotate(10 22 6)"/>
  </g>
  <!-- scallion + glints -->
  <rect x="112" y="102" width="7" height="2.6" rx="1.3" fill="#58c14a" transform="rotate(-14 115 103)"/>
  <rect x="176" y="98" width="7" height="2.6" rx="1.3" fill="#2f7d2b" transform="rotate(20 179 99)"/>
  <rect x="148" y="120" width="6" height="2.4" rx="1.2" fill="#58c14a" transform="rotate(-28 151 121)"/>
  <rect x="202" y="140" width="6" height="2.4" rx="1.2" fill="#58c14a" transform="rotate(10 205 141)"/>
  <circle cx="96" cy="118" r="1.5" fill="#fff" opacity=".65"/><circle cx="172" cy="136" r="1.4" fill="#fff" opacity=".55"/>
  <circle cx="216" cy="126" r="1.4" fill="#fff" opacity=".5"/>
</svg>
