<svg xmlns="http://www.w3.org/2000/svg" viewBox="0 0 320 200" preserveAspectRatio="xMidYMid slice" aria-hidden="true">
  <defs>
    <filter id="nnBlur3" x="-60%" y="-60%" width="220%" height="220%">
      <feGaussianBlur stdDeviation="3"/>
    </filter>
    <radialGradient id="b4bg" cx="85%" cy="-5%" r="100%">
      <stop offset="0%" stop-color="#332818"/><stop offset="45%" stop-color="#0b0a08"/><stop offset="100%" stop-color="#060606"/>
    </radialGradient>
    <radialGradient id="b4mound" cx="46%" cy="32%" r="78%">
      <stop offset="0%" stop-color="#fff3c8"/><stop offset="58%" stop-color="#f6dfa0"/><stop offset="100%" stop-color="#e0be76"/>
    </radialGradient>
    <radialGradient id="b4wok" cx="50%" cy="34%" r="80%">
      <stop offset="0%" stop-color="#1a1420"/><stop offset="100%" stop-color="#0b0b0d"/>
    </radialGradient>
    <radialGradient id="b4egg" cx="42%" cy="30%" r="80%">
      <stop offset="0%" stop-color="#ffeaa6"/><stop offset="55%" stop-color="#ffc23a"/><stop offset="100%" stop-color="#f6941f"/>
    </radialGradient>
  </defs>
  <rect width="320" height="200" fill="url(#b4bg)"/>
  <ellipse cx="160" cy="186" rx="152" ry="22" fill="#000" opacity=".5"/>
  <path d="M126 54 C118 38 134 30 126 12" stroke="#fff" stroke-width="7" fill="none" opacity=".1" filter="url(#nnBlur3)"/>
  <path d="M196 50 C188 34 204 26 196 8" stroke="#fff" stroke-width="6" fill="none" opacity=".08" filter="url(#nnBlur3)"/>
  <!-- wok -->
  <ellipse cx="160" cy="128" rx="126" ry="54" fill="url(#b4wok)"/>
  <ellipse cx="160" cy="128" rx="126" ry="54" fill="none" stroke="#26262e" stroke-width="3"/>
  <ellipse cx="160" cy="128" rx="110" ry="45" fill="#0c0c0f"/>
  <path d="M60 110 Q104 78 168 74" stroke="#ffe9c9" stroke-width="2.5" fill="none" opacity=".45" stroke-linecap="round"/>
  <!-- fluffy rice mound: base shadow then lit body for form -->
  <path d="M60 132 C66 102 106 90 160 90 C214 90 254 102 260 132 C232 154 196 160 160 160 C124 160 88 154 60 132 Z" fill="#9a7c42" opacity=".6"/>
  <path d="M64 128 C70 96 108 82 160 82 C212 82 250 96 256 128 C230 146 196 152 160 152 C124 152 90 146 64 128 Z" fill="url(#b4mound)"/>
  <path d="M64 128 C70 96 108 82 160 82 C212 82 250 96 256 128" fill="none" stroke="#fff6d8" stroke-width="1.4" opacity=".35"/>
  <!-- rice-grain texture: dense scattered short warm/pale strokes -->
  <g stroke-linecap="round" fill="none" opacity=".9">
    <path d="M92 110 l7 -3" stroke="#fffbe8" stroke-width="2.4"/>
    <path d="M108 122 l6 3" stroke="#dcc088" stroke-width="2.4"/>
    <path d="M126 104 l7 -2" stroke="#fffbe8" stroke-width="2.4"/>
    <path d="M144 118 l-6 3" stroke="#dcc088" stroke-width="2.4"/>
    <path d="M160 100 l6 3" stroke="#fffbe8" stroke-width="2.4"/>
    <path d="M176 116 l7 -3" stroke="#dcc088" stroke-width="2.4"/>
    <path d="M194 106 l-6 3" stroke="#fffbe8" stroke-width="2.4"/>
    <path d="M210 122 l7 2" stroke="#dcc088" stroke-width="2.4"/>
    <path d="M226 112 l-6 -3" stroke="#fffbe8" stroke-width="2.4"/>
    <path d="M100 134 l7 2" stroke="#dcc088" stroke-width="2.4"/>
    <path d="M136 138 l6 -2" stroke="#fffbe8" stroke-width="2.4"/>
    <path d="M172 138 l-7 2" stroke="#dcc088" stroke-width="2.4"/>
    <path d="M206 136 l6 -3" stroke="#fffbe8" stroke-width="2.4"/>
    <path d="M118 128 l6 3" stroke="#fffbe8" stroke-width="2.4"/>
    <path d="M188 128 l-6 3" stroke="#dcc088" stroke-width="2.4"/>
    <path d="M84 122 l6 2" stroke="#fffbe8" stroke-width="2.2"/>
    <path d="M152 132 l6 -3" stroke="#dcc088" stroke-width="2.2"/>
    <path d="M220 128 l-6 3" stroke="#fffbe8" stroke-width="2.2"/>
    <path d="M114 96 l6 3" stroke="#dcc088" stroke-width="2.2"/>
    <path d="M186 98 l6 -2" stroke="#fffbe8" stroke-width="2.2"/>
    <path d="M148 96 l-6 2" stroke="#dcc088" stroke-width="2.2"/>
  </g>
  <!-- golden scrambled-egg chunks folded through (hairline outline to lift off rice) -->
  <g>
    <path d="M96 106 C90 98 100 90 112 92 C124 88 132 98 128 106 C132 114 120 120 108 116 C98 118 92 112 96 106 Z" fill="url(#b4egg)" stroke="#d98a17" stroke-width="1.2" opacity="1"/>
    <ellipse cx="106" cy="98" rx="7" ry="3" fill="#fff3c8" opacity=".85"/>
  </g>
  <g>
    <path d="M158 96 C152 88 162 80 174 82 C186 78 194 88 190 96 C194 104 182 110 170 106 C160 108 154 102 158 96 Z" fill="url(#b4egg)" stroke="#d98a17" stroke-width="1.2"/>
    <ellipse cx="168" cy="88" rx="7" ry="3" fill="#ffeaa6" opacity=".9"/>
  </g>
  <g>
    <path d="M122 130 C116 122 126 114 138 116 C150 112 158 122 154 130 C158 138 146 144 134 140 C124 142 118 136 122 130 Z" fill="url(#b4egg)" stroke="#d98a17" stroke-width="1.2"/>
    <ellipse cx="132" cy="122" rx="7" ry="3" fill="#fff3c8" opacity=".85"/>
  </g>
  <g>
    <path d="M188 126 C182 118 192 110 204 112 C216 108 224 118 220 126 C224 134 212 140 200 136 C190 138 184 132 188 126 Z" fill="url(#b4egg)" stroke="#d98a17" stroke-width="1.2"/>
    <ellipse cx="198" cy="118" rx="7" ry="3" fill="#ffeaa6" opacity=".9"/>
  </g>
  <!-- garnish: scallion greens + a few pea/corn dots -->
  <rect x="108" y="118" width="7" height="2.6" rx="1.3" fill="#5ecb4e" transform="rotate(-18 111 119)"/>
  <rect x="146" y="106" width="7" height="2.6" rx="1.3" fill="#3f9c37" transform="rotate(16 149 107)"/>
  <rect x="180" y="120" width="7" height="2.6" rx="1.3" fill="#5ecb4e" transform="rotate(-10 183 121)"/>
  <rect x="132" y="140" width="6" height="2.4" rx="1.2" fill="#58c14a" transform="rotate(24 135 141)"/>
  <rect x="204" y="132" width="6" height="2.4" rx="1.2" fill="#3f9c37" transform="rotate(-14 207 133)"/>
  <circle cx="126" cy="112" r="2" fill="#6abf5a"/>
  <circle cx="166" cy="128" r="2" fill="#e0341f"/>
  <circle cx="212" cy="118" r="2" fill="#6abf5a"/>
  <!-- oil gloss dots -->
  <circle cx="112" cy="100" r="1.4" fill="#fff" opacity=".6"/>
  <circle cx="178" cy="110" r="1.3" fill="#fff" opacity=".55"/>
  <circle cx="150" cy="134" r="1.2" fill="#fff" opacity=".5"/>
</svg>
