<svg xmlns="http://www.w3.org/2000/svg" viewBox="0 0 320 200" preserveAspectRatio="xMidYMid slice" aria-hidden="true">
  <defs>
    <filter id="nnBlur3" x="-60%" y="-60%" width="220%" height="220%">
      <feGaussianBlur stdDeviation="3"/>
    </filter>
    <radialGradient id="a3bg" cx="85%" cy="-5%" r="100%">
      <stop offset="0%" stop-color="#102e35"/><stop offset="45%" stop-color="#0b090b"/><stop offset="100%" stop-color="#060507"/>
    </radialGradient>
    <linearGradient id="a3egg" x1="0" y1="0" x2="1" y2="0">
      <stop offset="0%" stop-color="#5c2c52"/><stop offset="45%" stop-color="#7a3a4e"/><stop offset="100%" stop-color="#96502a"/>
    </linearGradient>
    <radialGradient id="a3sauce" cx="50%" cy="35%" r="80%">
      <stop offset="0%" stop-color="#cf5110"/><stop offset="100%" stop-color="#8a2a08"/>
    </radialGradient>
  </defs>
  <rect width="320" height="200" fill="url(#a3bg)"/>
  <path d="M148 56 C140 40 156 32 148 14" stroke="#fff" stroke-width="6" fill="none" opacity=".09" filter="url(#nnBlur3)"/>
  <ellipse cx="160" cy="188" rx="152" ry="20" fill="#000" opacity=".5"/>
  <ellipse cx="160" cy="132" rx="124" ry="46" fill="#1a1420"/>
  <ellipse cx="160" cy="132" rx="124" ry="46" fill="none" stroke="#2c2136" stroke-width="2.5"/>
  <ellipse cx="160" cy="132" rx="110" ry="38" fill="#0f0a13"/>
  <path d="M56 118 Q100 90 162 87" stroke="#35e0ff" stroke-width="2.5" fill="none" opacity=".35" stroke-linecap="round"/>
  <ellipse cx="160" cy="136" rx="88" ry="26" fill="url(#a3sauce)" opacity=".95"/>
  <ellipse cx="134" cy="128" rx="26" ry="7" fill="#ff9840" opacity=".3"/>
  <!-- eggplant batons -->
  <g transform="translate(64 94) rotate(-7)">
    <rect width="106" height="24" rx="12" fill="url(#a3egg)"/>
    <path d="M12 5 C40 1 74 1 96 6" stroke="#e7b6d8" stroke-width="3" fill="none" opacity=".5" stroke-linecap="round"/>
    <ellipse cx="101" cy="12" rx="5" ry="9" fill="#d9b483" opacity=".9"/>
    <ellipse cx="101" cy="12" rx="5" ry="9" fill="none" stroke="#5a2c26" stroke-width="1.2" opacity=".6"/>
  </g>
  <g transform="translate(126 102) rotate(5)">
    <rect width="106" height="24" rx="12" fill="url(#a3egg)"/>
    <path d="M12 5 C40 1 74 1 96 6" stroke="#e7b6d8" stroke-width="3" fill="none" opacity=".5" stroke-linecap="round"/>
    <ellipse cx="101" cy="12" rx="5" ry="9" fill="#d9b483" opacity=".9"/>
    <ellipse cx="101" cy="12" rx="5" ry="9" fill="none" stroke="#5a2c26" stroke-width="1.2" opacity=".6"/>
  </g>
  <g transform="translate(80 122) rotate(-2)">
    <rect width="106" height="24" rx="12" fill="url(#a3egg)"/>
    <path d="M12 5 C40 1 74 1 96 6" stroke="#e7b6d8" stroke-width="3" fill="none" opacity=".5" stroke-linecap="round"/>
    <ellipse cx="101" cy="12" rx="5" ry="9" fill="#d9b483" opacity=".9"/>
    <ellipse cx="101" cy="12" rx="5" ry="9" fill="none" stroke="#5a2c26" stroke-width="1.2" opacity=".6"/>
  </g>
  <g transform="translate(142 128) rotate(-10)">
    <rect width="106" height="24" rx="12" fill="url(#a3egg)"/>
    <path d="M12 5 C40 1 74 1 96 6" stroke="#e7b6d8" stroke-width="3" fill="none" opacity=".5" stroke-linecap="round"/>
    <ellipse cx="101" cy="12" rx="5" ry="9" fill="#d9b483" opacity=".9"/>
    <ellipse cx="101" cy="12" rx="5" ry="9" fill="none" stroke="#5a2c26" stroke-width="1.2" opacity=".6"/>
  </g>
  <g transform="translate(102 144) rotate(3)">
    <rect width="106" height="24" rx="12" fill="url(#a3egg)"/>
    <path d="M12 5 C40 1 74 1 96 6" stroke="#e7b6d8" stroke-width="3" fill="none" opacity=".5" stroke-linecap="round"/>
    <ellipse cx="101" cy="12" rx="5" ry="9" fill="#d9b483" opacity=".9"/>
    <ellipse cx="101" cy="12" rx="5" ry="9" fill="none" stroke="#5a2c26" stroke-width="1.2" opacity=".6"/>
  </g>
  <!-- sauce drizzle -->
  <path d="M72 112 C112 100 192 102 246 122" stroke="#ef7a20" stroke-width="3" fill="none" opacity=".85" stroke-linecap="round"/>
  <path d="M84 134 C124 124 196 126 240 140" stroke="#d8560f" stroke-width="2.6" fill="none" opacity=".7" stroke-linecap="round"/>
  <!-- garlic + chili + scallion -->
  <circle cx="102" cy="108" r="1.8" fill="#f2ddb0"/><circle cx="150" cy="98" r="1.8" fill="#f2ddb0"/>
  <circle cx="188" cy="118" r="1.8" fill="#f2ddb0"/><circle cx="132" cy="140" r="1.6" fill="#f2ddb0"/>
  <circle cx="212" cy="132" r="1.7" fill="#f2ddb0"/><circle cx="164" cy="150" r="1.6" fill="#f2ddb0"/>
  <rect x="116" y="104" width="5" height="2.4" rx="1.2" fill="#e0341f" transform="rotate(20 118 105)"/>
  <rect x="170" y="110" width="5" height="2.4" rx="1.2" fill="#e0341f" transform="rotate(-12 172 111)"/>
  <rect x="140" y="126" width="5" height="2.4" rx="1.2" fill="#e0341f" transform="rotate(30 142 127)"/>
  <rect x="200" y="142" width="5" height="2.4" rx="1.2" fill="#e0341f" transform="rotate(-24 202 143)"/>
  <rect x="126" y="112" width="6" height="2.4" rx="1.2" fill="#58c14a" transform="rotate(-16 129 113)"/>
  <rect x="182" y="132" width="6" height="2.4" rx="1.2" fill="#58c14a" transform="rotate(10 185 133)"/>
  <!-- gloss dots -->
  <circle cx="98" cy="100" r="1.4" fill="#fff" opacity=".6"/><circle cx="176" cy="106" r="1.4" fill="#fff" opacity=".55"/>
  <circle cx="148" cy="134" r="1.3" fill="#fff" opacity=".5"/>
</svg>
