<svg xmlns="http://www.w3.org/2000/svg" viewBox="0 0 320 200" preserveAspectRatio="xMidYMid slice" aria-hidden="true">
  <defs>
    <filter id="gzBlur3" x="-60%" y="-60%" width="220%" height="220%">
      <feGaussianBlur stdDeviation="3"/>
    </filter>
    <radialGradient id="gzbg" cx="85%" cy="-5%" r="100%">
      <stop offset="0%" stop-color="#332818"/><stop offset="45%" stop-color="#0b0a08"/><stop offset="100%" stop-color="#060606"/>
    </radialGradient>
    <radialGradient id="gzpan" cx="50%" cy="34%" r="80%">
      <stop offset="0%" stop-color="#20202a"/><stop offset="60%" stop-color="#131318"/><stop offset="100%" stop-color="#08080a"/>
    </radialGradient>
    <linearGradient id="gzwrap" x1="0" y1="0" x2="0" y2="1">
      <stop offset="0%" stop-color="#f4ead0"/><stop offset="55%" stop-color="#e7d3a6"/><stop offset="100%" stop-color="#cbb079"/>
    </linearGradient>
    <linearGradient id="gzbase" x1="0" y1="0" x2="0" y2="1">
      <stop offset="0%" stop-color="#d68a3a"/><stop offset="100%" stop-color="#8a4712"/>
    </linearGradient>
  </defs>
  <rect width="320" height="200" fill="url(#gzbg)"/>
  <!-- steam -->
  <path d="M118 56 C108 38 128 30 118 12" stroke="#fff" stroke-width="7" fill="none" opacity=".1" filter="url(#gzBlur3)"/>
  <path d="M198 52 C190 36 208 28 200 10" stroke="#fff" stroke-width="6" fill="none" opacity=".08" filter="url(#gzBlur3)"/>
  <ellipse cx="160" cy="188" rx="156" ry="22" fill="#000" opacity=".5"/>
  <!-- cast-iron skillet with handle -->
  <rect x="272" y="120" width="46" height="12" rx="6" fill="#16161c"/>
  <rect x="272" y="120" width="46" height="12" rx="6" fill="none" stroke="#2c2136" stroke-width="2" opacity=".7"/>
  <ellipse cx="158" cy="126" rx="140" ry="50" fill="url(#gzpan)"/>
  <ellipse cx="158" cy="126" rx="140" ry="50" fill="none" stroke="#2c2136" stroke-width="3"/>
  <ellipse cx="158" cy="126" rx="126" ry="42" fill="#0e0e12"/>
  <!-- oil sheen on the pan -->
  <ellipse cx="130" cy="116" rx="40" ry="9" fill="#3a3020" opacity=".4" transform="rotate(-8 130 116)"/>
  <!-- neon steam arc -->
  <path d="M44 116 Q98 86 164 84" stroke="#35e0ff" stroke-width="2.5" fill="none" opacity=".4" stroke-linecap="round"/>
  <!-- gyoza ring: crescents with pleated tops + browned bottoms -->
  <!-- back row (smaller/dimmer) -->
  <g transform="translate(106 100) rotate(-8) scale(.9)">
    <path d="M-26 6 C-24 -12 24 -12 26 6 C10 12 -10 12 -26 6 Z" fill="url(#gzwrap)"/>
    <path d="M-26 6 C-14 10 14 10 26 6 C22 14 -22 14 -26 6 Z" fill="url(#gzbase)"/>
    <path d="M-26 6 C-14 10 14 10 26 6" stroke="#5e2f0c" stroke-width="1.2" fill="none" opacity=".5"/>
    <path d="M-20 -3 l4 -7 M-10 -6 l3 -8 M0 -7 l0 -9 M10 -6 l-3 -8 M20 -3 l-4 -7" stroke="#c9ad74" stroke-width="2" opacity=".8" stroke-linecap="round"/>
    <ellipse cx="-6" cy="-3" rx="8" ry="3" fill="#fff" opacity=".18"/>
  </g>
  <g transform="translate(158 96) rotate(4) scale(.9)">
    <path d="M-26 6 C-24 -12 24 -12 26 6 C10 12 -10 12 -26 6 Z" fill="url(#gzwrap)"/>
    <path d="M-26 6 C-14 10 14 10 26 6 C22 14 -22 14 -26 6 Z" fill="url(#gzbase)"/>
    <path d="M-26 6 C-14 10 14 10 26 6" stroke="#5e2f0c" stroke-width="1.2" fill="none" opacity=".5"/>
    <path d="M-20 -3 l4 -7 M-10 -6 l3 -8 M0 -7 l0 -9 M10 -6 l-3 -8 M20 -3 l-4 -7" stroke="#c9ad74" stroke-width="2" opacity=".8" stroke-linecap="round"/>
    <ellipse cx="-6" cy="-3" rx="8" ry="3" fill="#fff" opacity=".18"/>
  </g>
  <g transform="translate(210 102) rotate(12) scale(.9)">
    <path d="M-26 6 C-24 -12 24 -12 26 6 C10 12 -10 12 -26 6 Z" fill="url(#gzwrap)"/>
    <path d="M-26 6 C-14 10 14 10 26 6 C22 14 -22 14 -26 6 Z" fill="url(#gzbase)"/>
    <path d="M-26 6 C-14 10 14 10 26 6" stroke="#5e2f0c" stroke-width="1.2" fill="none" opacity=".5"/>
    <path d="M-20 -3 l4 -7 M-10 -6 l3 -8 M0 -7 l0 -9 M10 -6 l-3 -8 M20 -3 l-4 -7" stroke="#c9ad74" stroke-width="2" opacity=".8" stroke-linecap="round"/>
    <ellipse cx="-6" cy="-3" rx="8" ry="3" fill="#fff" opacity=".18"/>
  </g>
  <!-- front row (larger/brighter) -->
  <g transform="translate(120 126) rotate(-6)">
    <path d="M-28 6 C-26 -14 26 -14 28 6 C11 13 -11 13 -28 6 Z" fill="url(#gzwrap)"/>
    <path d="M-28 6 C-15 11 15 11 28 6 C24 16 -24 16 -28 6 Z" fill="url(#gzbase)"/>
    <path d="M-28 6 C-15 11 15 11 28 6" stroke="#5e2f0c" stroke-width="1.3" fill="none" opacity=".55"/>
    <ellipse cx="8" cy="12" rx="6" ry="2" fill="#4a2408" opacity=".5"/>
    <path d="M-22 -3 l4 -8 M-11 -7 l3 -9 M0 -8 l0 -10 M11 -7 l-3 -9 M22 -3 l-4 -8" stroke="#d3b880" stroke-width="2.2" opacity=".9" stroke-linecap="round"/>
    <ellipse cx="-6" cy="-4" rx="10" ry="3.4" fill="#fff" opacity=".22"/>
  </g>
  <g transform="translate(196 130) rotate(8)">
    <path d="M-28 6 C-26 -14 26 -14 28 6 C11 13 -11 13 -28 6 Z" fill="url(#gzwrap)"/>
    <path d="M-28 6 C-15 11 15 11 28 6 C24 16 -24 16 -28 6 Z" fill="url(#gzbase)"/>
    <path d="M-28 6 C-15 11 15 11 28 6" stroke="#5e2f0c" stroke-width="1.3" fill="none" opacity=".55"/>
    <ellipse cx="8" cy="12" rx="6" ry="2" fill="#4a2408" opacity=".5"/>
    <path d="M-22 -3 l4 -8 M-11 -7 l3 -9 M0 -8 l0 -10 M11 -7 l-3 -9 M22 -3 l-4 -8" stroke="#d3b880" stroke-width="2.2" opacity=".9" stroke-linecap="round"/>
    <ellipse cx="-6" cy="-4" rx="10" ry="3.4" fill="#fff" opacity=".22"/>
  </g>
  <!-- little dipping-sauce dish tucked front-left -->
  <g transform="translate(60 138)">
    <ellipse rx="20" ry="9" fill="#12161a"/>
    <ellipse rx="20" ry="9" fill="none" stroke="#2c2136" stroke-width="2"/>
    <ellipse rx="15" ry="6" fill="#3a1e0c"/>
    <ellipse cx="-4" cy="-1.5" rx="5" ry="1.6" fill="#7a3c14" opacity=".6"/>
  </g>
  <!-- scallion + sesame garnish over front gyoza -->
  <rect x="112" y="118" width="7" height="2.6" rx="1.3" fill="#58c14a" transform="rotate(-18 115 119)"/>
  <rect x="190" y="122" width="7" height="2.6" rx="1.3" fill="#3f9c37" transform="rotate(16 193 123)"/>
  <rect x="150" y="120" width="6" height="2.4" rx="1.2" fill="#5ecb4e" transform="rotate(-10 153 121)"/>
  <circle cx="126" cy="120" r="1.2" fill="#f8eed6"/>
  <circle cx="200" cy="126" r="1.2" fill="#f8eed6"/>
  <circle cx="170" cy="112" r="1.1" fill="#f8eed6"/>
  <!-- oil gloss dots -->
  <circle cx="118" cy="118" r="1.4" fill="#fff" opacity=".6"/>
  <circle cx="196" cy="122" r="1.3" fill="#fff" opacity=".5"/>
  <circle cx="158" cy="94" r="1.2" fill="#fff" opacity=".5"/>
</svg>
