<svg xmlns="http://www.w3.org/2000/svg" viewBox="0 0 320 200" preserveAspectRatio="xMidYMid slice" aria-hidden="true">
  <defs>
    <filter id="kpBlur3" x="-60%" y="-60%" width="220%" height="220%">
      <feGaussianBlur stdDeviation="3"/>
    </filter>
    <radialGradient id="kpbg" cx="85%" cy="-5%" r="100%">
      <stop offset="0%" stop-color="#332818"/><stop offset="45%" stop-color="#0b0a08"/><stop offset="100%" stop-color="#060606"/>
    </radialGradient>
    <radialGradient id="kprice" cx="46%" cy="32%" r="78%">
      <stop offset="0%" stop-color="#fdf6e2"/><stop offset="58%" stop-color="#f2e6c9"/><stop offset="100%" stop-color="#dcc79c"/>
    </radialGradient>
    <linearGradient id="kpshrimp" x1="0" y1="0" x2="0" y2="1">
      <stop offset="0%" stop-color="#ff9d6a"/><stop offset="100%" stop-color="#e2542a"/>
    </linearGradient>
    <radialGradient id="kpwok" cx="50%" cy="34%" r="80%">
      <stop offset="0%" stop-color="#1a1420"/><stop offset="100%" stop-color="#0b0b0d"/>
    </radialGradient>
  </defs>
  <rect width="320" height="200" fill="url(#kpbg)"/>
  <!-- steam -->
  <path d="M124 54 C114 36 134 28 124 8" stroke="#fff" stroke-width="7" fill="none" opacity=".1" filter="url(#kpBlur3)"/>
  <path d="M196 52 C188 36 206 28 198 8" stroke="#fff" stroke-width="6" fill="none" opacity=".08" filter="url(#kpBlur3)"/>
  <ellipse cx="160" cy="186" rx="152" ry="22" fill="#000" opacity=".5"/>
  <!-- oval plate -->
  <ellipse cx="160" cy="132" rx="140" ry="46" fill="url(#kpwok)"/>
  <ellipse cx="160" cy="132" rx="140" ry="46" fill="none" stroke="#26262e" stroke-width="3"/>
  <ellipse cx="160" cy="132" rx="124" ry="38" fill="#0c0c0f"/>
  <!-- neon steam arc (warm) -->
  <path d="M56 114 Q104 82 168 78" stroke="#ffe9c9" stroke-width="2.5" fill="none" opacity=".45" stroke-linecap="round"/>
  <!-- fried-rice mound (loose, tossed) -->
  <path d="M62 132 C68 104 106 94 160 94 C214 94 252 104 258 132 C230 152 196 158 160 158 C124 158 90 152 62 132 Z" fill="#a89361" opacity=".55"/>
  <path d="M64 128 C70 100 108 90 160 90 C212 90 250 100 256 128 C230 146 196 152 160 152 C124 152 90 146 64 128 Z" fill="url(#kprice)"/>
  <path d="M64 128 C70 100 108 90 160 90 C212 90 250 100 256 128" fill="none" stroke="#fff7dc" stroke-width="1.3" opacity=".4"/>
  <!-- grain texture, some tinted by soy/curry (amber flecks) -->
  <g stroke-linecap="round" fill="none">
    <path d="M92 112 l6 -2" stroke="#fffbe8" stroke-width="2.4"/>
    <path d="M110 122 l6 3" stroke="#e0c58e" stroke-width="2.4"/>
    <path d="M128 106 l6 -2" stroke="#fffbe8" stroke-width="2.4"/>
    <path d="M146 118 l-6 3" stroke="#d9b46e" stroke-width="2.4"/>
    <path d="M162 104 l6 3" stroke="#fffbe8" stroke-width="2.4"/>
    <path d="M180 116 l6 -2" stroke="#e0c58e" stroke-width="2.4"/>
    <path d="M198 108 l-6 3" stroke="#fffbe8" stroke-width="2.4"/>
    <path d="M214 120 l6 2" stroke="#d9b46e" stroke-width="2.4"/>
    <path d="M100 136 l6 2" stroke="#fffbe8" stroke-width="2.2"/>
    <path d="M138 140 l6 -2" stroke="#e0c58e" stroke-width="2.2"/>
    <path d="M176 138 l-6 2" stroke="#fffbe8" stroke-width="2.2"/>
    <path d="M210 134 l6 -2" stroke="#d9b46e" stroke-width="2.2"/>
    <path d="M120 128 l6 3" stroke="#fffbe8" stroke-width="2.2"/>
    <path d="M188 126 l-6 3" stroke="#e0c58e" stroke-width="2.2"/>
  </g>
  <!-- scrambled egg bits + peas/carrot dice folded through -->
  <path d="M118 118 C114 112 122 108 130 110 C136 108 140 116 136 120 C130 124 120 124 118 118 Z" fill="#ffdf7a" stroke="#e0a930" stroke-width="1" opacity=".95"/>
  <path d="M176 112 C172 106 180 102 188 104 C194 102 198 110 194 114 C188 118 178 118 176 112 Z" fill="#ffe38a" stroke="#e0a930" stroke-width="1"/>
  <circle cx="150" cy="124" r="2.4" fill="#5ecb4e"/><circle cx="205" cy="126" r="2.2" fill="#4ba53f"/>
  <circle cx="132" cy="132" r="2.2" fill="#f4972f"/><circle cx="182" cy="130" r="2" fill="#f4972f"/>
  <!-- two whole prawns arranged on top (Thai touch) -->
  <g>
    <path d="M128 100 C120 92 122 82 132 80 C142 78 150 86 148 96 C146 104 138 108 132 106 C142 108 148 104 150 98" fill="none" stroke="url(#kpshrimp)" stroke-width="7" stroke-linecap="round"/>
    <path d="M129 82 l-5 -6" stroke="#e2542a" stroke-width="1.6" stroke-linecap="round"/>
    <circle cx="130" cy="88" r="1.4" fill="#3a140a"/>
    <ellipse cx="138" cy="92" rx="4" ry="2" fill="#ffc2a0" opacity=".7"/>
  </g>
  <g>
    <path d="M192 106 C200 98 198 88 188 86 C178 84 170 92 172 102 C174 110 182 114 188 112 C178 114 172 110 170 104" fill="none" stroke="url(#kpshrimp)" stroke-width="7" stroke-linecap="round"/>
    <path d="M191 88 l5 -6" stroke="#e2542a" stroke-width="1.6" stroke-linecap="round"/>
    <circle cx="190" cy="94" r="1.4" fill="#3a140a"/>
    <ellipse cx="182" cy="98" rx="4" ry="2" fill="#ffc2a0" opacity=".7"/>
  </g>
  <!-- lime wedge on the rim -->
  <g transform="translate(230 128) rotate(-16)">
    <path d="M0 0 A22 22 0 0 1 30 8 L15 4 Z" fill="#a8d13a"/>
    <path d="M2 2 A18 18 0 0 1 26 8" fill="none" stroke="#d6ee7a" stroke-width="2.4"/>
    <path d="M6 4 L20 7 M9 3 L18 9" stroke="#eaf7b0" stroke-width="1" opacity=".7"/>
  </g>
  <!-- cilantro + scallion garnish -->
  <path d="M104 106 q-3 -8 1 -14" stroke="#3f9c37" stroke-width="1.8" fill="none" stroke-linecap="round"/>
  <circle cx="105" cy="90" r="2.4" fill="#58c14a"/><circle cx="160" cy="98" r="2.2" fill="#5ecb4e"/>
  <rect x="146" y="112" width="7" height="2.6" rx="1.3" fill="#3f9c37" transform="rotate(-14 149 113)"/>
  <rect x="200" y="118" width="6" height="2.4" rx="1.2" fill="#58c14a" transform="rotate(18 203 119)"/>
  <!-- red chili sliver -->
  <path d="M158 138 q8 1 12 6" stroke="#e0341f" stroke-width="3" fill="none" stroke-linecap="round"/>
  <!-- gloss dots -->
  <circle cx="132" cy="120" r="1.4" fill="#fff" opacity=".55"/>
  <circle cx="184" cy="118" r="1.3" fill="#fff" opacity=".5"/>
  <circle cx="152" cy="134" r="1.2" fill="#fff" opacity=".5"/>
</svg>
