<svg xmlns="http://www.w3.org/2000/svg" viewBox="0 0 320 200" preserveAspectRatio="xMidYMid slice" aria-hidden="true">
  <defs>
    <filter id="kp1Blur3" x="-60%" y="-60%" width="220%" height="220%">
      <feGaussianBlur stdDeviation="3"/>
    </filter>
    <radialGradient id="kp1bg" cx="85%" cy="-5%" r="100%">
      <stop offset="0%" stop-color="#113036"/><stop offset="45%" stop-color="#0b090a"/><stop offset="100%" stop-color="#060506"/>
    </radialGradient>
    <!-- shallow glossy glaze on the plate (amber-brown sauce, NOT a deep chili-oil pool) -->
    <radialGradient id="kp1glaze" cx="46%" cy="34%" r="82%">
      <stop offset="0%" stop-color="#8a3c14"/><stop offset="55%" stop-color="#5e260c"/><stop offset="100%" stop-color="#3a1606"/>
    </radialGradient>
    <!-- diced chicken: warm cooked brown, glazed — clearly not tofu-white -->
    <linearGradient id="kp1chk" x1="0" y1="0" x2="0" y2="1">
      <stop offset="0%" stop-color="#c67c34"/><stop offset="55%" stop-color="#9c5420"/><stop offset="100%" stop-color="#6e370f"/>
    </linearGradient>
    <linearGradient id="kp1chili" x1="0" y1="0" x2="1" y2="1">
      <stop offset="0%" stop-color="#d13214"/><stop offset="100%" stop-color="#8f1c07"/>
    </linearGradient>
  </defs>
  <rect width="320" height="200" fill="url(#kp1bg)"/>
  <path d="M132 44 C124 28 140 22 132 4" stroke="#fff" stroke-width="6" fill="none" opacity=".09" filter="url(#kp1Blur3)"/>
  <path d="M196 40 C188 26 204 18 196 2" stroke="#fff" stroke-width="6" fill="none" opacity=".08" filter="url(#kp1Blur3)"/>
  <ellipse cx="160" cy="190" rx="150" ry="20" fill="#000" opacity=".5"/>
  <!-- oval plate: dark ring + shallow interior (not a deep pool) -->
  <ellipse cx="160" cy="122" rx="132" ry="52" fill="#141018"/>
  <ellipse cx="160" cy="122" rx="132" ry="52" fill="none" stroke="#26262e" stroke-width="3"/>
  <ellipse cx="160" cy="122" rx="118" ry="44" fill="#0f0d13"/>
  <path d="M56 108 Q104 72 168 66" stroke="#35e0ff" stroke-width="2.5" fill="none" opacity=".35" stroke-linecap="round"/>
  <!-- thin glossy glaze sheen tossed onto the plate (shallow, irregular — not a filled pool) -->
  <path d="M64 122 C90 104 230 104 256 124 C232 142 88 142 64 122 Z" fill="url(#kp1glaze)" opacity=".92"/>
  <ellipse cx="130" cy="112" rx="30" ry="6" fill="#b0561e" opacity=".45" transform="rotate(-8 130 112)"/>
  <!-- DRIED RED CHILIES — the signature hero, prominent + numerous -->
  <g transform="translate(80 92) rotate(-26)">
    <path d="M0 0 C18 -5 40 0 52 7 C40 10 18 10 0 5 Z" fill="url(#kp1chili)"/>
    <path d="M52 7 C58 6 63 9 66 14" stroke="#4d3b17" stroke-width="2.2" fill="none" stroke-linecap="round"/>
    <path d="M2 1 C18 -1 34 1 46 6" stroke="#ff6a3a" stroke-width="1.4" fill="none" opacity=".6"/>
  </g>
  <g transform="translate(198 84) rotate(20)">
    <path d="M0 0 C18 -5 40 0 52 7 C40 10 18 10 0 5 Z" fill="url(#kp1chili)"/>
    <path d="M52 7 C58 6 63 9 66 14" stroke="#4d3b17" stroke-width="2.2" fill="none" stroke-linecap="round"/>
    <path d="M2 1 C18 -1 34 1 46 6" stroke="#ff6a3a" stroke-width="1.4" fill="none" opacity=".6"/>
  </g>
  <g transform="translate(112 138) rotate(10)">
    <path d="M0 0 C15 -4 34 0 44 5 C34 8 15 8 0 3 Z" fill="url(#kp1chili)"/>
    <path d="M44 5 C50 4 54 7 56 11" stroke="#4d3b17" stroke-width="2" fill="none" stroke-linecap="round"/>
    <path d="M2 1 C15 -1 30 1 40 4" stroke="#ff6a3a" stroke-width="1.2" fill="none" opacity=".55"/>
  </g>
  <g transform="translate(190 132) rotate(-14)">
    <path d="M0 0 C14 -3 32 0 42 5 C32 8 14 8 0 3 Z" fill="url(#kp1chili)"/>
    <path d="M42 5 C48 4 52 7 54 11" stroke="#4d3b17" stroke-width="1.9" fill="none" stroke-linecap="round"/>
  </g>
  <!-- back diced chicken (smaller, dimmer) -->
  <g transform="translate(108 82) rotate(-8)">
    <path d="M2 8 C-1 2 5 -3 13 -4 C22 -5 26 2 24 10 C22 18 12 20 6 16 C1 13 3 12 2 8 Z" fill="url(#kp1chk)"/>
    <ellipse cx="8" cy="1" rx="6" ry="2.2" fill="#e2a45e" opacity=".55"/>
    <path d="M2 8 C-1 2 5 -3 13 -4 C22 -5 26 2 24 10 C22 18 12 20 6 16 C1 13 3 12 2 8 Z" fill="none" stroke="#4a230a" stroke-opacity=".5" stroke-width="1.3"/>
  </g>
  <g transform="translate(170 78) rotate(6)">
    <path d="M2 8 C-1 2 5 -3 13 -4 C22 -5 26 2 24 10 C22 18 12 20 6 16 C1 13 3 12 2 8 Z" fill="url(#kp1chk)"/>
    <ellipse cx="8" cy="1" rx="6" ry="2.2" fill="#e2a45e" opacity=".55"/>
    <path d="M2 8 C-1 2 5 -3 13 -4 C22 -5 26 2 24 10 C22 18 12 20 6 16 C1 13 3 12 2 8 Z" fill="none" stroke="#4a230a" stroke-opacity=".5" stroke-width="1.3"/>
  </g>
  <!-- front diced chicken (bigger, glossier) -->
  <g transform="translate(120 98) rotate(4)">
    <path d="M2 10 C-2 2 6 -5 16 -5 C28 -5 32 4 30 13 C28 23 16 25 8 20 C1 16 3 14 2 10 Z" fill="url(#kp1chk)"/>
    <ellipse cx="10" cy="1" rx="8" ry="2.8" fill="#e8ab63" opacity=".65"/>
    <circle cx="22" cy="1" r="1.6" fill="#fff" opacity=".85"/>
    <path d="M2 10 C-2 2 6 -5 16 -5 C28 -5 32 4 30 13 C28 23 16 25 8 20 C1 16 3 14 2 10 Z" fill="none" stroke="#4a230a" stroke-opacity=".55" stroke-width="1.5"/>
  </g>
  <g transform="translate(156 106) rotate(-6)">
    <path d="M2 10 C-2 2 6 -5 16 -5 C28 -5 32 4 30 13 C28 23 16 25 8 20 C1 16 3 14 2 10 Z" fill="url(#kp1chk)"/>
    <ellipse cx="10" cy="1" rx="8" ry="2.8" fill="#e8ab63" opacity=".65"/>
    <circle cx="22" cy="1" r="1.6" fill="#fff" opacity=".85"/>
    <path d="M2 10 C-2 2 6 -5 16 -5 C28 -5 32 4 30 13 C28 23 16 25 8 20 C1 16 3 14 2 10 Z" fill="none" stroke="#4a230a" stroke-opacity=".55" stroke-width="1.5"/>
  </g>
  <g transform="translate(84 106) rotate(9)">
    <path d="M2 9 C-1 2 5 -4 14 -4 C25 -4 28 4 26 12 C24 21 13 22 6 18 C1 14 3 12 2 9 Z" fill="url(#kp1chk)"/>
    <ellipse cx="9" cy="1" rx="7" ry="2.6" fill="#e8ab63" opacity=".6"/>
    <path d="M2 9 C-1 2 5 -4 14 -4 C25 -4 28 4 26 12 C24 21 13 22 6 18 C1 14 3 12 2 9 Z" fill="none" stroke="#4a230a" stroke-opacity=".55" stroke-width="1.5"/>
  </g>
  <g transform="translate(196 102) rotate(-3)">
    <path d="M2 9 C-1 2 5 -4 14 -4 C25 -4 28 4 26 12 C24 21 13 22 6 18 C1 14 3 12 2 9 Z" fill="url(#kp1chk)"/>
    <ellipse cx="9" cy="1" rx="7" ry="2.6" fill="#e8ab63" opacity=".6"/>
    <path d="M2 9 C-1 2 5 -4 14 -4 C25 -4 28 4 26 12 C24 21 13 22 6 18 C1 14 3 12 2 9 Z" fill="none" stroke="#4a230a" stroke-opacity=".55" stroke-width="1.5"/>
  </g>
  <!-- SPLIT PEANUTS — the other signature hero (halved, showing the seam) -->
  <g stroke="#a9772e" stroke-width="1" stroke-opacity=".5">
    <g transform="translate(96 124) rotate(-18)"><ellipse rx="7" ry="5" fill="#e6b866"/><path d="M0 -5 L0 5" stroke="#c99a48" stroke-width="1.4"/><ellipse cx="-1.5" cy="0" rx="2" ry="3.4" fill="#f0cd88" opacity=".7"/></g>
    <g transform="translate(150 88) rotate(24)"><ellipse rx="7" ry="5" fill="#e6b866"/><path d="M0 -5 L0 5" stroke="#c99a48" stroke-width="1.4"/><ellipse cx="-1.5" cy="0" rx="2" ry="3.4" fill="#f0cd88" opacity=".7"/></g>
    <g transform="translate(216 122) rotate(10)"><ellipse rx="7" ry="5" fill="#e6b866"/><path d="M0 -5 L0 5" stroke="#c99a48" stroke-width="1.4"/><ellipse cx="-1.5" cy="0" rx="2" ry="3.4" fill="#f0cd88" opacity=".7"/></g>
    <g transform="translate(134 134) rotate(-30)"><ellipse rx="6.4" ry="4.6" fill="#e6b866"/><path d="M0 -4.6 L0 4.6" stroke="#c99a48" stroke-width="1.3"/></g>
    <g transform="translate(186 136) rotate(16)"><ellipse rx="6.4" ry="4.6" fill="#e6b866"/><path d="M0 -4.6 L0 4.6" stroke="#c99a48" stroke-width="1.3"/></g>
    <g transform="translate(110 142) rotate(6)"><ellipse rx="6" ry="4.4" fill="#e6b866"/><path d="M0 -4.4 L0 4.4" stroke="#c99a48" stroke-width="1.2"/></g>
  </g>
  <!-- scallion whites -->
  <rect x="106" y="88" width="8" height="5" rx="2.5" fill="#dfe7cf" transform="rotate(-20 110 90)"/>
  <rect x="176" y="92" width="8" height="5" rx="2.5" fill="#e6ecdc" transform="rotate(14 180 94)"/>
  <rect x="144" y="128" width="8" height="5" rx="2.5" fill="#dfe7cf" transform="rotate(-8 148 130)"/>
  <!-- scallion greens -->
  <rect x="128" y="102" width="6" height="2.6" rx="1.3" fill="#58c14a" transform="rotate(28 131 103)"/>
  <rect x="202" y="112" width="6" height="2.6" rx="1.3" fill="#2f7d2b" transform="rotate(-14 205 113)"/>
  <!-- peppercorn dust (麻) -->
  <circle cx="122" cy="86" r="1.1" fill="#260903"/><circle cx="164" cy="128" r="1.1" fill="#260903"/>
  <circle cx="100" cy="112" r="1" fill="#260903"/><circle cx="204" cy="96" r="1" fill="#260903"/>
  <!-- gloss dots -->
  <circle cx="140" cy="100" r="1.3" fill="#fff" opacity=".6"/>
  <circle cx="176" cy="118" r="1.2" fill="#fff" opacity=".55"/>
</svg>
