<svg xmlns="http://www.w3.org/2000/svg" viewBox="0 0 320 200" preserveAspectRatio="xMidYMid slice" aria-hidden="true">
  <defs>
    <filter id="nnnBlur3" x="-60%" y="-60%" width="220%" height="220%">
      <feGaussianBlur stdDeviation="3"/>
    </filter>
    <radialGradient id="nnnbg" cx="85%" cy="-5%" r="100%">
      <stop offset="0%" stop-color="#332818"/><stop offset="45%" stop-color="#0b0a08"/><stop offset="100%" stop-color="#060606"/>
    </radialGradient>
    <radialGradient id="nnnbread" cx="42%" cy="34%" r="82%">
      <stop offset="0%" stop-color="#f2d59a"/><stop offset="55%" stop-color="#e0b672"/><stop offset="100%" stop-color="#c2914c"/>
    </radialGradient>
    <linearGradient id="nnnboard" x1="0" y1="0" x2="0" y2="1">
      <stop offset="0%" stop-color="#4a3620"/><stop offset="100%" stop-color="#2c1f11"/>
    </linearGradient>
  </defs>
  <rect width="320" height="200" fill="url(#nnnbg)"/>
  <!-- faint warm aroma wisp (baked bread, subtle) -->
  <path d="M150 46 C142 30 158 24 150 8" stroke="#fff" stroke-width="6" fill="none" opacity=".07" filter="url(#nnnBlur3)"/>
  <!-- cast shadow -->
  <ellipse cx="160" cy="184" rx="146" ry="22" fill="#000" opacity=".5"/>
  <!-- wooden serving board -->
  <ellipse cx="160" cy="140" rx="140" ry="44" fill="url(#nnnboard)"/>
  <ellipse cx="160" cy="140" rx="140" ry="44" fill="none" stroke="#5a4228" stroke-width="2.5"/>
  <path d="M40 132 Q160 118 280 132" stroke="#6b4e2e" stroke-width="1.5" fill="none" opacity=".5"/>
  <path d="M46 150 Q160 164 274 150" stroke="#3a2915" stroke-width="1.4" fill="none" opacity=".5"/>
  <!-- warm-white steam arc -->
  <path d="M58 112 Q112 84 176 84" stroke="#ffe9c9" stroke-width="2.5" fill="none" opacity=".4" stroke-linecap="round"/>
  <!-- teardrop naan (classic tandoor shape: rounded top, tapered point) -->
  <path d="M160 78 C110 78 68 96 68 120 C68 144 108 156 148 158 C150 168 156 176 160 178 C164 176 170 168 172 158 C214 156 252 144 252 120 C252 96 210 78 160 78 Z" fill="url(#nnnbread)"/>
  <path d="M160 78 C110 78 68 96 68 120 C68 144 108 156 148 158 C150 168 156 176 160 178 C164 176 170 168 172 158 C214 156 252 144 252 120 C252 96 210 78 160 78 Z" fill="none" stroke="#a06f38" stroke-width="1.6" opacity=".6"/>
  <!-- puffy bubbled surface highlight -->
  <path d="M92 108 C120 96 200 96 228 108" stroke="#fce9c2" stroke-width="2" fill="none" opacity=".45" stroke-linecap="round"/>
  <!-- tandoor char blisters (dark bubbled spots) -->
  <g fill="#6b3d16" opacity=".85">
    <ellipse cx="104" cy="118" rx="7" ry="4.5" transform="rotate(-16 104 118)"/>
    <ellipse cx="138" cy="106" rx="6" ry="4" transform="rotate(12 138 106)"/>
    <ellipse cx="176" cy="112" rx="7.5" ry="4.5" transform="rotate(-8 176 112)"/>
    <ellipse cx="212" cy="120" rx="6.5" ry="4" transform="rotate(18 212 120)"/>
    <ellipse cx="150" cy="132" rx="6" ry="4" transform="rotate(-14 150 132)"/>
    <ellipse cx="192" cy="138" rx="5.5" ry="3.6" transform="rotate(10 192 138)"/>
    <ellipse cx="120" cy="140" rx="5.5" ry="3.6" transform="rotate(6 120 140)"/>
  </g>
  <!-- darkest char cores -->
  <g fill="#3a1e08" opacity=".9">
    <circle cx="104" cy="118" r="2.4"/>
    <circle cx="176" cy="112" r="2.6"/>
    <circle cx="212" cy="120" r="2.2"/>
    <circle cx="150" cy="132" r="2"/>
  </g>
  <!-- glossy melted butter/ghee brush sheen -->
  <ellipse cx="150" cy="104" rx="40" ry="10" fill="#ffe9b0" opacity=".28"/>
  <!-- garlic slivers + cilantro flecks scattered on top -->
  <g>
    <ellipse cx="128" cy="114" rx="4" ry="2" fill="#f4e4c2" transform="rotate(-24 128 114)"/>
    <ellipse cx="164" cy="122" rx="4.4" ry="2" fill="#f8ecd0" transform="rotate(14 164 122)"/>
    <ellipse cx="198" cy="110" rx="3.8" ry="1.8" fill="#f4e4c2" transform="rotate(-10 198 110)"/>
    <ellipse cx="146" cy="146" rx="3.6" ry="1.8" fill="#f8ecd0" transform="rotate(20 146 146)"/>
  </g>
  <rect x="140" y="124" width="6" height="2.6" rx="1.3" fill="#5ecb4e" transform="rotate(-18 143 125)"/>
  <rect x="184" y="126" width="6" height="2.6" rx="1.3" fill="#3f9c37" transform="rotate(22 187 127)"/>
  <rect x="112" y="128" width="5.5" height="2.4" rx="1.2" fill="#58c14a" transform="rotate(10 115 129)"/>
  <!-- oil gloss dots -->
  <circle cx="132" cy="100" r="1.5" fill="#fff" opacity=".6"/>
  <circle cx="188" cy="102" r="1.3" fill="#fff" opacity=".5"/>
  <circle cx="160" cy="118" r="1.2" fill="#fff" opacity=".45"/>
</svg>
