<svg xmlns="http://www.w3.org/2000/svg" viewBox="0 0 320 200" preserveAspectRatio="xMidYMid slice" aria-hidden="true">
  <defs>
    <filter id="nnBlur3" x="-60%" y="-60%" width="220%" height="220%">
      <feGaussianBlur stdDeviation="3"/>
    </filter>
    <radialGradient id="a6bg" cx="85%" cy="-5%" r="100%">
      <stop offset="0%" stop-color="#332818"/><stop offset="45%" stop-color="#0b0a08"/><stop offset="100%" stop-color="#060606"/>
    </radialGradient>
  </defs>
  <rect width="320" height="200" fill="url(#a6bg)"/>
  <path d="M120 54 C112 38 128 30 120 12" stroke="#fff" stroke-width="6" fill="none" opacity=".09" filter="url(#nnBlur3)"/>
  <ellipse cx="160" cy="188" rx="150" ry="20" fill="#000" opacity=".5"/>
  <ellipse cx="160" cy="124" rx="112" ry="62" fill="#131007"/>
  <ellipse cx="160" cy="124" rx="112" ry="62" fill="none" stroke="#2e2517" stroke-width="3"/>
  <path d="M66 104 Q108 68 168 62" stroke="#ffe9c9" stroke-width="2.5" fill="none" opacity=".45" stroke-linecap="round"/>
  <ellipse cx="160" cy="122" rx="96" ry="50" fill="#1d1408"/>
  <!-- noodle nest -->
  <g fill="none" stroke-linecap="round">
    <path d="M92 106 C122 88 198 86 228 104" stroke="#d9bd85" stroke-width="6"/>
    <path d="M112 94 C136 82 184 82 208 94" stroke="#e6cf9d" stroke-width="6"/>
    <path d="M74 122 C104 96 216 96 246 124" stroke="#d9bd85" stroke-width="7"/>
    <path d="M82 136 C116 108 204 108 238 138" stroke="#e6cf9d" stroke-width="7"/>
    <path d="M100 148 C130 124 190 124 220 148" stroke="#cdb078" stroke-width="6"/>
    <path d="M118 128 C110 114 128 104 142 112 C152 118 146 132 130 130" stroke="#e6cf9d" stroke-width="6"/>
    <path d="M186 116 C198 106 212 114 208 128 C204 138 188 138 184 128" stroke="#d9bd85" stroke-width="6"/>
    <path d="M96 106 C126 88 196 86 224 104" stroke="#fff1c9" stroke-width="2" opacity=".8"/>
    <path d="M86 134 C118 108 202 108 234 136" stroke="#fff1c9" stroke-width="2" opacity=".65"/>
    <path d="M104 142 C134 120 186 120 216 142" stroke="#7a4c14" stroke-width="2.4" opacity=".6"/>
    <path d="M78 122 C108 98 212 98 242 122" stroke="#8a5a1e" stroke-width="2" opacity=".5"/>
  </g>
  <!-- chopsticks lifting a strand -->
  <path d="M258 6 L206 88" stroke="#b98a4e" stroke-width="5" stroke-linecap="round"/>
  <path d="M272 14 L220 92" stroke="#a67a40" stroke-width="5" stroke-linecap="round"/>
  <path d="M208 86 C192 62 172 68 162 92" stroke="#e6cf9d" stroke-width="5" fill="none" stroke-linecap="round"/>
  <path d="M219 90 C206 70 188 74 178 96" stroke="#d9bd85" stroke-width="4.5" fill="none" stroke-linecap="round"/>
  <!-- crispy + fresh scallions -->
  <rect x="118" y="108" width="6" height="3.4" rx="1.6" fill="#6b5420" transform="rotate(18 121 110)"/>
  <rect x="142" y="98" width="6" height="3.4" rx="1.6" fill="#4d3b17" transform="rotate(-24 145 100)"/>
  <rect x="168" y="106" width="6" height="3.4" rx="1.6" fill="#6b5420" transform="rotate(8 171 108)"/>
  <rect x="150" y="120" width="6" height="3.4" rx="1.6" fill="#4d3b17" transform="rotate(32 153 122)"/>
  <rect x="128" y="132" width="6" height="3.4" rx="1.6" fill="#6b5420" transform="rotate(-12 131 134)"/>
  <rect x="188" y="126" width="6" height="3.4" rx="1.6" fill="#4d3b17" transform="rotate(20 191 128)"/>
  <rect x="176" y="140" width="6" height="3.4" rx="1.6" fill="#6b5420" transform="rotate(-30 179 142)"/>
  <rect x="108" y="122" width="6" height="3.4" rx="1.6" fill="#4d3b17" transform="rotate(6 111 124)"/>
  <rect x="160" y="94" width="6" height="2.6" rx="1.3" fill="#6abf5a" transform="rotate(-16 163 95)"/>
  <rect x="134" y="114" width="6" height="2.6" rx="1.3" fill="#6abf5a" transform="rotate(22 137 115)"/>
  <rect x="198" y="112" width="6" height="2.6" rx="1.3" fill="#6abf5a" transform="rotate(-8 201 113)"/>
  <!-- oil glints -->
  <circle cx="124" cy="102" r="1.2" fill="#ffe9b0" opacity=".8"/>
  <circle cx="176" cy="120" r="1.2" fill="#ffe9b0" opacity=".75"/>
  <circle cx="146" cy="136" r="1.1" fill="#ffe9b0" opacity=".7"/>
</svg>
