<svg xmlns="http://www.w3.org/2000/svg" viewBox="0 0 320 200" preserveAspectRatio="xMidYMid slice" aria-hidden="true">
  <defs>
    <filter id="pfdBlur3" x="-60%" y="-60%" width="220%" height="220%">
      <feGaussianBlur stdDeviation="3"/>
    </filter>
    <radialGradient id="pfdbg" cx="85%" cy="-5%" r="100%">
      <stop offset="0%" stop-color="#332818"/><stop offset="45%" stop-color="#0b0a08"/><stop offset="100%" stop-color="#060606"/>
    </radialGradient>
    <radialGradient id="pfdpan" cx="50%" cy="34%" r="82%">
      <stop offset="0%" stop-color="#232128"/><stop offset="60%" stop-color="#131218"/><stop offset="100%" stop-color="#0a0a0d"/>
    </radialGradient>
    <linearGradient id="pfdwrap" x1="0" y1="0" x2="0" y2="1">
      <stop offset="0%" stop-color="#f4e6c4"/><stop offset="52%" stop-color="#e6cf9d"/><stop offset="100%" stop-color="#cbae74"/>
    </linearGradient>
    <linearGradient id="pfdbottom" x1="0" y1="0" x2="0" y2="1">
      <stop offset="0%" stop-color="#c17232"/><stop offset="55%" stop-color="#94481a"/><stop offset="100%" stop-color="#6e2f0d"/>
    </linearGradient>
  </defs>
  <rect width="320" height="200" fill="url(#pfdbg)"/>
  <!-- steam -->
  <path d="M124 56 C114 38 134 30 124 12" stroke="#fff" stroke-width="7" fill="none" opacity=".1" filter="url(#pfdBlur3)"/>
  <path d="M202 52 C194 36 212 28 204 10" stroke="#fff" stroke-width="6" fill="none" opacity=".08" filter="url(#pfdBlur3)"/>
  <ellipse cx="160" cy="188" rx="156" ry="21" fill="#000" opacity=".5"/>
  <!-- cast-iron skillet -->
  <ellipse cx="160" cy="130" rx="132" ry="48" fill="url(#pfdpan)"/>
  <ellipse cx="160" cy="130" rx="132" ry="48" fill="none" stroke="#2c2c34" stroke-width="3"/>
  <ellipse cx="160" cy="130" rx="118" ry="40" fill="#0f0f13"/>
  <!-- neon steam arc -->
  <path d="M52 118 Q100 84 168 82" stroke="#ffe9c9" stroke-width="2.5" fill="none" opacity=".42" stroke-linecap="round"/>
  <!-- oily sheen in the pan -->
  <ellipse cx="140" cy="128" rx="52" ry="12" fill="#3a2a12" opacity=".45"/>
  <!-- row of five potstickers: elongated crescents, browned base, pleated ridge on top -->
  <!-- back row (smaller, dimmer) -->
  <g transform="translate(108 108) scale(.86)" opacity=".92">
    <path d="M-30 6 C-30 -12 -8 -18 0 -18 C10 -18 30 -12 30 6 C18 12 -16 12 -30 6 Z" fill="url(#pfdwrap)" stroke="#a3781f" stroke-width="1.3"/>
    <path d="M-30 6 C-14 12 16 12 30 6 C28 15 14 20 0 20 C-14 20 -26 15 -30 6 Z" fill="url(#pfdbottom)"/>
    <path d="M-24 -6 q6 -8 12 0 M-8 -10 q6 -8 12 0 M8 -8 q6 -8 12 0" stroke="#b48f45" stroke-width="1.3" fill="none" opacity=".7"/>
    <ellipse cx="-6" cy="-10" rx="10" ry="3" fill="#fff6d8" opacity=".4"/>
  </g>
  <g transform="translate(210 108) scale(.86)" opacity=".92">
    <path d="M-30 6 C-30 -12 -8 -18 0 -18 C10 -18 30 -12 30 6 C18 12 -16 12 -30 6 Z" fill="url(#pfdwrap)" stroke="#a3781f" stroke-width="1.3"/>
    <path d="M-30 6 C-14 12 16 12 30 6 C28 15 14 20 0 20 C-14 20 -26 15 -30 6 Z" fill="url(#pfdbottom)"/>
    <path d="M-24 -6 q6 -8 12 0 M-8 -10 q6 -8 12 0 M8 -8 q6 -8 12 0" stroke="#b48f45" stroke-width="1.3" fill="none" opacity=".7"/>
    <ellipse cx="-6" cy="-10" rx="10" ry="3" fill="#fff6d8" opacity=".4"/>
  </g>
  <!-- front row (larger, brighter) -->
  <g transform="translate(88 132)">
    <path d="M-32 6 C-32 -14 -9 -20 0 -20 C11 -20 32 -14 32 6 C19 13 -17 13 -32 6 Z" fill="url(#pfdwrap)" stroke="#9c701c" stroke-width="1.5"/>
    <path d="M-32 6 C-15 13 17 13 32 6 C30 16 15 22 0 22 C-15 22 -28 16 -32 6 Z" fill="url(#pfdbottom)"/>
    <path d="M-30 8 C-14 14 16 14 30 8" stroke="#5a2408" stroke-width="1.4" fill="none" opacity=".6"/>
    <path d="M-26 -7 q6 -9 13 0 M-9 -11 q6 -9 13 0 M8 -9 q6 -9 13 0" stroke="#c39a4d" stroke-width="1.5" fill="none" opacity=".8"/>
    <ellipse cx="-6" cy="-11" rx="12" ry="3.4" fill="#fff6d8" opacity=".5"/>
  </g>
  <g transform="translate(160 136)">
    <path d="M-32 6 C-32 -14 -9 -20 0 -20 C11 -20 32 -14 32 6 C19 13 -17 13 -32 6 Z" fill="url(#pfdwrap)" stroke="#9c701c" stroke-width="1.5"/>
    <path d="M-32 6 C-15 13 17 13 32 6 C30 16 15 22 0 22 C-15 22 -28 16 -32 6 Z" fill="url(#pfdbottom)"/>
    <path d="M-30 8 C-14 14 16 14 30 8" stroke="#5a2408" stroke-width="1.4" fill="none" opacity=".6"/>
    <path d="M-26 -7 q6 -9 13 0 M-9 -11 q6 -9 13 0 M8 -9 q6 -9 13 0" stroke="#c39a4d" stroke-width="1.5" fill="none" opacity=".8"/>
    <ellipse cx="-6" cy="-11" rx="12" ry="3.4" fill="#fff6d8" opacity=".5"/>
  </g>
  <g transform="translate(232 132)">
    <path d="M-32 6 C-32 -14 -9 -20 0 -20 C11 -20 32 -14 32 6 C19 13 -17 13 -32 6 Z" fill="url(#pfdwrap)" stroke="#9c701c" stroke-width="1.5"/>
    <path d="M-32 6 C-15 13 17 13 32 6 C30 16 15 22 0 22 C-15 22 -28 16 -32 6 Z" fill="url(#pfdbottom)"/>
    <path d="M-30 8 C-14 14 16 14 30 8" stroke="#5a2408" stroke-width="1.4" fill="none" opacity=".6"/>
    <path d="M-26 -7 q6 -9 13 0 M-9 -11 q6 -9 13 0 M8 -9 q6 -9 13 0" stroke="#c39a4d" stroke-width="1.5" fill="none" opacity=".8"/>
    <ellipse cx="-6" cy="-11" rx="12" ry="3.4" fill="#fff6d8" opacity=".5"/>
  </g>
  <!-- scallion garnish flecks on top -->
  <rect x="98" y="120" width="7" height="2.6" rx="1.3" fill="#5ecb4e" transform="rotate(-16 101 121)"/>
  <rect x="150" y="122" width="7" height="2.6" rx="1.3" fill="#3f9c37" transform="rotate(14 153 123)"/>
  <rect x="220" y="120" width="7" height="2.6" rx="1.3" fill="#5ecb4e" transform="rotate(-8 223 121)"/>
  <rect x="128" y="128" width="6" height="2.4" rx="1.2" fill="#58c14a" transform="rotate(22 131 129)"/>
  <rect x="196" y="126" width="6" height="2.4" rx="1.2" fill="#2f7d2b" transform="rotate(-24 199 127)"/>
  <!-- sesame -->
  <circle cx="112" cy="116" r="1.3" fill="#f8eed6"/>
  <circle cx="176" cy="118" r="1.3" fill="#f8eed6"/>
  <circle cx="244" cy="116" r="1.2" fill="#f8eed6"/>
  <!-- oil gloss dots -->
  <circle cx="120" cy="112" r="1.4" fill="#fff" opacity=".6"/>
  <circle cx="192" cy="114" r="1.3" fill="#fff" opacity=".55"/>
  <circle cx="160" cy="124" r="1.2" fill="#fff" opacity=".5"/>
</svg>
