<svg xmlns="http://www.w3.org/2000/svg" viewBox="0 0 320 200" preserveAspectRatio="xMidYMid slice" aria-hidden="true">
  <defs>
    <filter id="nnBlur3" x="-60%" y="-60%" width="220%" height="220%">
      <feGaussianBlur stdDeviation="3"/>
    </filter>
    <radialGradient id="a2bg" cx="85%" cy="-5%" r="100%">
      <stop offset="0%" stop-color="#113036"/><stop offset="45%" stop-color="#0b090a"/><stop offset="100%" stop-color="#060506"/>
    </radialGradient>
    <radialGradient id="a2oil" cx="50%" cy="35%" r="80%">
      <stop offset="0%" stop-color="#ef5520"/><stop offset="55%" stop-color="#b02408"/><stop offset="100%" stop-color="#7a1305"/>
    </radialGradient>
    <linearGradient id="a2tofu" x1="0" y1="0" x2="0" y2="1">
      <stop offset="0%" stop-color="#f9f2df"/><stop offset="100%" stop-color="#e3cda4"/>
    </linearGradient>
  </defs>
  <rect width="320" height="200" fill="url(#a2bg)"/>
  <path d="M132 44 C124 28 140 22 132 4" stroke="#fff" stroke-width="6" fill="none" opacity=".09" filter="url(#nnBlur3)"/>
  <path d="M196 40 C188 26 204 18 196 2" stroke="#fff" stroke-width="6" fill="none" opacity=".08" filter="url(#nnBlur3)"/>
  <ellipse cx="160" cy="190" rx="150" ry="20" fill="#000" opacity=".5"/>
  <ellipse cx="160" cy="116" rx="114" ry="66" fill="#0d0d10"/>
  <ellipse cx="160" cy="116" rx="114" ry="66" fill="none" stroke="#26262e" stroke-width="3"/>
  <path d="M64 96 Q106 58 168 52" stroke="#35e0ff" stroke-width="2.5" fill="none" opacity=".35" stroke-linecap="round"/>
  <ellipse cx="160" cy="114" rx="97" ry="52" fill="url(#a2oil)"/>
  <ellipse cx="130" cy="92" rx="36" ry="10" fill="#ff9a55" opacity=".28" transform="rotate(-10 130 92)"/>
  <!-- tofu cubes -->
  <g transform="translate(100 80) rotate(-8)"><rect width="26" height="24" rx="4" fill="url(#a2tofu)"/><rect y="16" width="26" height="8" rx="3" fill="#dbc194" opacity=".8"/><rect width="26" height="24" rx="4" fill="none" stroke="#a3300f" stroke-opacity=".4" stroke-width="1.4"/></g>
  <g transform="translate(138 72) rotate(5)"><rect width="26" height="24" rx="4" fill="url(#a2tofu)"/><rect y="16" width="26" height="8" rx="3" fill="#dbc194" opacity=".8"/><rect width="26" height="24" rx="4" fill="none" stroke="#a3300f" stroke-opacity=".4" stroke-width="1.4"/></g>
  <g transform="translate(172 84) rotate(-4)"><rect width="26" height="24" rx="4" fill="url(#a2tofu)"/><rect y="16" width="26" height="8" rx="3" fill="#dbc194" opacity=".8"/><rect width="26" height="24" rx="4" fill="none" stroke="#a3300f" stroke-opacity=".4" stroke-width="1.4"/></g>
  <g transform="translate(200 98) rotate(10)"><rect width="26" height="24" rx="4" fill="url(#a2tofu)"/><rect y="16" width="26" height="8" rx="3" fill="#dbc194" opacity=".8"/><rect width="26" height="24" rx="4" fill="none" stroke="#a3300f" stroke-opacity=".4" stroke-width="1.4"/></g>
  <g transform="translate(112 106) rotate(4)"><rect width="26" height="24" rx="4" fill="url(#a2tofu)"/><rect y="16" width="26" height="8" rx="3" fill="#dbc194" opacity=".8"/><rect width="26" height="24" rx="4" fill="none" stroke="#a3300f" stroke-opacity=".4" stroke-width="1.4"/></g>
  <g transform="translate(150 110) rotate(-7)"><rect width="26" height="24" rx="4" fill="url(#a2tofu)"/><rect y="16" width="26" height="8" rx="3" fill="#dbc194" opacity=".8"/><rect width="26" height="24" rx="4" fill="none" stroke="#a3300f" stroke-opacity=".4" stroke-width="1.4"/></g>
  <g transform="translate(184 116) rotate(7)"><rect width="26" height="24" rx="4" fill="url(#a2tofu)"/><rect y="16" width="26" height="8" rx="3" fill="#dbc194" opacity=".8"/><rect width="26" height="24" rx="4" fill="none" stroke="#a3300f" stroke-opacity=".4" stroke-width="1.4"/></g>
  <g transform="translate(132 132) rotate(-3)"><rect width="26" height="24" rx="4" fill="url(#a2tofu)"/><rect y="16" width="26" height="8" rx="3" fill="#dbc194" opacity=".8"/><rect width="26" height="24" rx="4" fill="none" stroke="#a3300f" stroke-opacity=".4" stroke-width="1.4"/></g>
  <!-- beef mince -->
  <circle cx="96" cy="112" r="2.2" fill="#3a1a0b"/><circle cx="103" cy="118" r="1.8" fill="#2e1408"/>
  <circle cx="146" cy="100" r="2" fill="#3a1a0b"/><circle cx="170" cy="112" r="2.2" fill="#2e1408"/>
  <circle cx="214" cy="126" r="2" fill="#3a1a0b"/><circle cx="196" cy="90" r="1.8" fill="#2e1408"/>
  <circle cx="126" cy="128" r="1.9" fill="#3a1a0b"/><circle cx="182" cy="142" r="2" fill="#2e1408"/>
  <!-- scallion -->
  <rect x="108" y="94" width="7" height="2.6" rx="1.3" fill="#58c14a" transform="rotate(-20 111 95)"/>
  <rect x="150" y="90" width="7" height="2.6" rx="1.3" fill="#2f7d2b" transform="rotate(14 153 91)"/>
  <rect x="190" y="108" width="7" height="2.6" rx="1.3" fill="#58c14a" transform="rotate(-6 193 109)"/>
  <rect x="164" y="130" width="7" height="2.6" rx="1.3" fill="#58c14a" transform="rotate(28 167 131)"/>
  <rect x="122" y="144" width="6" height="2.4" rx="1.2" fill="#2f7d2b" transform="rotate(-14 125 145)"/>
  <rect x="210" y="112" width="6" height="2.4" rx="1.2" fill="#58c14a" transform="rotate(8 213 113)"/>
  <!-- peppercorn dust -->
  <circle cx="118" cy="88" r="1.1" fill="#260903"/><circle cx="158" cy="126" r="1.1" fill="#260903"/>
  <circle cx="200" cy="134" r="1.1" fill="#260903"/><circle cx="136" cy="112" r="1" fill="#260903"/>
</svg>
