<svg xmlns="http://www.w3.org/2000/svg" viewBox="0 0 320 200" preserveAspectRatio="xMidYMid slice" aria-hidden="true">
  <defs>
    <filter id="rvBlur3" x="-60%" y="-60%" width="220%" height="220%">
      <feGaussianBlur stdDeviation="3"/>
    </filter>
    <radialGradient id="rvbg" cx="85%" cy="-5%" r="100%">
      <stop offset="0%" stop-color="#332818"/><stop offset="45%" stop-color="#0b0a08"/><stop offset="100%" stop-color="#060606"/>
    </radialGradient>
    <linearGradient id="rvpasta" x1="0" y1="0" x2="0" y2="1">
      <stop offset="0%" stop-color="#fdeaba"/><stop offset="55%" stop-color="#f0d089"/><stop offset="100%" stop-color="#d6ac5c"/>
    </linearGradient>
    <radialGradient id="rvplate" cx="50%" cy="32%" r="80%">
      <stop offset="0%" stop-color="#1a1420"/><stop offset="100%" stop-color="#0b0b0d"/>
    </radialGradient>
    <radialGradient id="rvsauce" cx="48%" cy="40%" r="72%">
      <stop offset="0%" stop-color="#f6cf6a" stop-opacity=".5"/><stop offset="100%" stop-color="#c8912e" stop-opacity=".22"/>
    </radialGradient>
  </defs>
  <rect width="320" height="200" fill="url(#rvbg)"/>
  <!-- steam -->
  <path d="M118 52 C108 34 128 26 118 8" stroke="#fff" stroke-width="7" fill="none" opacity=".1" filter="url(#rvBlur3)"/>
  <path d="M198 50 C190 34 208 26 200 8" stroke="#fff" stroke-width="6" fill="none" opacity=".08" filter="url(#rvBlur3)"/>
  <!-- cast shadow -->
  <ellipse cx="160" cy="188" rx="150" ry="22" fill="#000" opacity=".5"/>
  <!-- shallow oval plate -->
  <ellipse cx="160" cy="132" rx="142" ry="46" fill="url(#rvplate)"/>
  <ellipse cx="160" cy="132" rx="142" ry="46" fill="none" stroke="#26262e" stroke-width="3"/>
  <ellipse cx="160" cy="132" rx="128" ry="38" fill="#0f0d13"/>
  <!-- neon steam arc (warm/local) -->
  <path d="M50 116 Q102 84 166 82" stroke="#ffe9c9" stroke-width="2.5" fill="none" opacity=".42" stroke-linecap="round"/>
  <!-- light butter-sage sheen pool -->
  <ellipse cx="160" cy="130" rx="112" ry="34" fill="url(#rvsauce)"/>
  <!-- RAVIOLI: square stuffed cushions with crimped fork-edges, plump middles -->
  <g stroke-linejoin="round">
    <!-- back row, smaller/dimmer -->
    <g transform="translate(102 96) rotate(-8) scale(.86)">
      <rect x="-19" y="-14" width="38" height="28" rx="4" fill="url(#rvpasta)" stroke="#b78a4a" stroke-width="1.2" opacity=".9"/>
      <path d="M-16 -14 v4 M-8 -14 v4 M0 -14 v4 M8 -14 v4 M16 -14 v4 M-16 14 v-4 M-8 14 v-4 M0 14 v-4 M8 14 v-4 M16 14 v-4" stroke="#c69a55" stroke-width="1" opacity=".7"/>
      <ellipse cx="0" cy="0" rx="12" ry="8" fill="#fff1c9" opacity=".35"/>
    </g>
    <g transform="translate(160 92) rotate(6) scale(.85)">
      <rect x="-19" y="-14" width="38" height="28" rx="4" fill="url(#rvpasta)" stroke="#b78a4a" stroke-width="1.2" opacity=".9"/>
      <path d="M-16 -14 v4 M-8 -14 v4 M0 -14 v4 M8 -14 v4 M16 -14 v4 M-16 14 v-4 M-8 14 v-4 M0 14 v-4 M8 14 v-4 M16 14 v-4" stroke="#c69a55" stroke-width="1" opacity=".7"/>
      <ellipse cx="0" cy="0" rx="12" ry="8" fill="#fff1c9" opacity=".35"/>
    </g>
    <g transform="translate(214 100) rotate(-6) scale(.84)">
      <rect x="-19" y="-14" width="38" height="28" rx="4" fill="url(#rvpasta)" stroke="#b78a4a" stroke-width="1.2" opacity=".88"/>
      <path d="M-16 -14 v4 M-8 -14 v4 M0 -14 v4 M8 -14 v4 M16 -14 v4 M-16 14 v-4 M-8 14 v-4 M0 14 v-4 M8 14 v-4 M16 14 v-4" stroke="#c69a55" stroke-width="1" opacity=".7"/>
      <ellipse cx="0" cy="0" rx="12" ry="8" fill="#fff1c9" opacity=".3"/>
    </g>
    <!-- front row, larger/brighter -->
    <g transform="translate(102 124) rotate(-12)">
      <rect x="-24" y="-18" width="48" height="36" rx="5" fill="url(#rvpasta)" stroke="#b78a4a" stroke-width="1.4"/>
      <path d="M-20 -18 v5 M-10 -18 v5 M0 -18 v5 M10 -18 v5 M20 -18 v5 M-20 18 v-5 M-10 18 v-5 M0 18 v-5 M10 18 v-5 M20 18 v-5" stroke="#c69a55" stroke-width="1.2" opacity=".75"/>
      <path d="M-24 -12 h5 M-24 -2 h5 M-24 8 h5 M24 -12 h-5 M24 -2 h-5 M24 8 h-5" stroke="#c69a55" stroke-width="1.2" opacity=".75"/>
      <ellipse cx="-6" cy="-6" rx="9" ry="5" fill="#fff6d8" opacity=".55"/>
    </g>
    <g transform="translate(164 130) rotate(8)">
      <rect x="-24" y="-18" width="48" height="36" rx="5" fill="url(#rvpasta)" stroke="#b78a4a" stroke-width="1.4"/>
      <path d="M-20 -18 v5 M-10 -18 v5 M0 -18 v5 M10 -18 v5 M20 -18 v5 M-20 18 v-5 M-10 18 v-5 M0 18 v-5 M10 18 v-5 M20 18 v-5" stroke="#c69a55" stroke-width="1.2" opacity=".75"/>
      <path d="M-24 -12 h5 M-24 -2 h5 M-24 8 h5 M24 -12 h-5 M24 -2 h-5 M24 8 h-5" stroke="#c69a55" stroke-width="1.2" opacity=".75"/>
      <ellipse cx="-6" cy="-6" rx="9" ry="5" fill="#fff6d8" opacity=".55"/>
    </g>
    <g transform="translate(210 122) rotate(18)">
      <rect x="-22" y="-16" width="44" height="32" rx="5" fill="url(#rvpasta)" stroke="#b78a4a" stroke-width="1.4"/>
      <path d="M-18 -16 v5 M-9 -16 v5 M0 -16 v5 M9 -16 v5 M18 -16 v5 M-18 16 v-5 M-9 16 v-5 M0 16 v-5 M9 16 v-5 M18 16 v-5" stroke="#c69a55" stroke-width="1.2" opacity=".75"/>
      <ellipse cx="-5" cy="-5" rx="8" ry="4" fill="#fff6d8" opacity=".5"/>
    </g>
  </g>
  <!-- fried sage + parmesan + pepper garnish -->
  <path d="M110 102 C114 92 124 92 128 100 C126 110 114 112 110 102 Z" fill="#5ecb4e"/>
  <path d="M119 94 L120 108" stroke="#2f7d2b" stroke-width="1" opacity=".7"/>
  <path d="M188 138 C192 130 200 130 203 137 C201 144 192 145 188 138 Z" fill="#3f9c37"/>
  <rect x="146" y="148" width="7" height="3" rx="1.4" fill="#fff3c8" transform="rotate(12 149 149)" opacity=".9"/>
  <circle cx="176" cy="112" r="1.6" fill="#260903"/>
  <circle cx="126" cy="140" r="1.4" fill="#260903"/>
  <!-- buttery gloss dots -->
  <circle cx="96" cy="116" r="1.5" fill="#fff" opacity=".6"/>
  <circle cx="160" cy="122" r="1.3" fill="#fff" opacity=".5"/>
  <circle cx="206" cy="114" r="1.2" fill="#fff" opacity=".5"/>
</svg>
