<svg xmlns="http://www.w3.org/2000/svg" viewBox="0 0 320 200" preserveAspectRatio="xMidYMid slice" aria-hidden="true">
  <defs>
    <filter id="nnBlur3" x="-60%" y="-60%" width="220%" height="220%">
      <feGaussianBlur stdDeviation="3"/>
    </filter>
    <radialGradient id="a1bg" cx="85%" cy="-5%" r="100%">
      <stop offset="0%" stop-color="#123138"/><stop offset="45%" stop-color="#0b090a"/><stop offset="100%" stop-color="#060506"/>
    </radialGradient>
    <linearGradient id="a1pot" x1="0" y1="0" x2="0" y2="1">
      <stop offset="0%" stop-color="#6b4029"/><stop offset="55%" stop-color="#3d2113"/><stop offset="100%" stop-color="#1c0d06"/>
    </linearGradient>
    <radialGradient id="a1liq" cx="50%" cy="30%" r="85%">
      <stop offset="0%" stop-color="#9c2b10"/><stop offset="55%" stop-color="#661408"/><stop offset="100%" stop-color="#3b0b05"/>
    </radialGradient>
    <linearGradient id="a1skin" x1="0" y1="0" x2="0" y2="1">
      <stop offset="0%" stop-color="#cf5226"/><stop offset="100%" stop-color="#82200e"/>
    </linearGradient>
    <linearGradient id="a1fat" x1="0" y1="0" x2="0" y2="1">
      <stop offset="0%" stop-color="#f6ddb2"/><stop offset="100%" stop-color="#d8b47f"/>
    </linearGradient>
  </defs>
  <rect width="320" height="200" fill="url(#a1bg)"/>
  <ellipse cx="160" cy="184" rx="160" ry="24" fill="#000" opacity=".5"/>
  <path d="M118 64 C108 46 126 38 118 18" stroke="#fff" stroke-width="7" fill="none" opacity=".1" filter="url(#nnBlur3)"/>
  <path d="M198 58 C190 42 208 34 200 14" stroke="#fff" stroke-width="6" fill="none" opacity=".08" filter="url(#nnBlur3)"/>
  <path d="M52 102 C52 148 100 174 160 174 C220 174 268 148 268 102 Z" fill="url(#a1pot)"/>
  <ellipse cx="160" cy="102" rx="108" ry="27" fill="#2c150a"/>
  <ellipse cx="160" cy="102" rx="97" ry="22" fill="url(#a1liq)"/>
  <path d="M66 94 Q104 76 156 75" stroke="#35e0ff" stroke-width="2.5" fill="none" opacity=".4" stroke-linecap="round"/>
  <!-- back cubes -->
  <g transform="translate(90 54) rotate(-4) scale(.82)">
    <rect x="0" y="10" width="44" height="36" rx="6" fill="#4e1d0c"/>
    <rect x="0" y="16" width="44" height="8" fill="url(#a1fat)" opacity=".85"/>
    <rect x="0" y="24" width="44" height="8" fill="#6e3018"/>
    <rect x="0" y="32" width="44" height="6" fill="url(#a1fat)" opacity=".75"/>
    <rect x="0" y="38" width="44" height="8" rx="4" fill="#5c2410"/>
    <rect x="0" y="0" width="44" height="16" rx="6" fill="url(#a1skin)" opacity=".92"/>
    <ellipse cx="14" cy="6.5" rx="9" ry="3.2" fill="#ffc491" opacity=".4"/>
    <rect x="0" y="0" width="44" height="46" rx="6" fill="none" stroke="#240a03" stroke-width="1.4" opacity=".55"/>
  </g>
  <g transform="translate(178 50) rotate(3) scale(.82)">
    <rect x="0" y="10" width="44" height="36" rx="6" fill="#4e1d0c"/>
    <rect x="0" y="16" width="44" height="8" fill="url(#a1fat)" opacity=".85"/>
    <rect x="0" y="24" width="44" height="8" fill="#6e3018"/>
    <rect x="0" y="32" width="44" height="6" fill="url(#a1fat)" opacity=".75"/>
    <rect x="0" y="38" width="44" height="8" rx="4" fill="#5c2410"/>
    <rect x="0" y="0" width="44" height="16" rx="6" fill="url(#a1skin)" opacity=".92"/>
    <ellipse cx="14" cy="6.5" rx="9" ry="3.2" fill="#ffc491" opacity=".4"/>
    <rect x="0" y="0" width="44" height="46" rx="6" fill="none" stroke="#240a03" stroke-width="1.4" opacity=".55"/>
  </g>
  <!-- front cubes -->
  <g transform="translate(72 70) rotate(-6)">
    <rect x="0" y="10" width="44" height="36" rx="6" fill="#5e2410"/>
    <rect x="0" y="16" width="44" height="8" fill="url(#a1fat)"/>
    <rect x="0" y="24" width="44" height="8" fill="#7c3a20"/>
    <rect x="0" y="32" width="44" height="6" fill="url(#a1fat)" opacity=".92"/>
    <rect x="0" y="38" width="44" height="8" rx="4" fill="#6b2f16"/>
    <rect x="0" y="0" width="44" height="16" rx="6" fill="url(#a1skin)"/>
    <ellipse cx="14" cy="6.5" rx="9" ry="3.2" fill="#ffc491" opacity=".5"/>
    <circle cx="31" cy="5.5" r="1.7" fill="#fff" opacity=".9"/>
    <rect x="0" y="0" width="44" height="46" rx="6" fill="none" stroke="#240a03" stroke-width="1.4" opacity=".55"/>
  </g>
  <g transform="translate(128 78) rotate(2)">
    <rect x="0" y="10" width="44" height="36" rx="6" fill="#5e2410"/>
    <rect x="0" y="16" width="44" height="8" fill="url(#a1fat)"/>
    <rect x="0" y="24" width="44" height="8" fill="#7c3a20"/>
    <rect x="0" y="32" width="44" height="6" fill="url(#a1fat)" opacity=".92"/>
    <rect x="0" y="38" width="44" height="8" rx="4" fill="#6b2f16"/>
    <rect x="0" y="0" width="44" height="16" rx="6" fill="url(#a1skin)"/>
    <ellipse cx="14" cy="6.5" rx="9" ry="3.2" fill="#ffc491" opacity=".5"/>
    <circle cx="31" cy="5.5" r="1.7" fill="#fff" opacity=".9"/>
    <rect x="0" y="0" width="44" height="46" rx="6" fill="none" stroke="#240a03" stroke-width="1.4" opacity=".55"/>
  </g>
  <g transform="translate(186 72) rotate(-3)">
    <rect x="0" y="10" width="44" height="36" rx="6" fill="#5e2410"/>
    <rect x="0" y="16" width="44" height="8" fill="url(#a1fat)"/>
    <rect x="0" y="24" width="44" height="8" fill="#7c3a20"/>
    <rect x="0" y="32" width="44" height="6" fill="url(#a1fat)" opacity=".92"/>
    <rect x="0" y="38" width="44" height="8" rx="4" fill="#6b2f16"/>
    <rect x="0" y="0" width="44" height="16" rx="6" fill="url(#a1skin)"/>
    <ellipse cx="14" cy="6.5" rx="9" ry="3.2" fill="#ffc491" opacity=".5"/>
    <circle cx="31" cy="5.5" r="1.7" fill="#fff" opacity=".9"/>
    <rect x="0" y="0" width="44" height="46" rx="6" fill="none" stroke="#240a03" stroke-width="1.4" opacity=".55"/>
  </g>
  <!-- liquid laps at cube bases -->
  <ellipse cx="92" cy="114" rx="26" ry="5" fill="#55110a" opacity=".8"/>
  <ellipse cx="150" cy="120" rx="26" ry="5" fill="#55110a" opacity=".8"/>
  <ellipse cx="207" cy="116" rx="26" ry="5" fill="#55110a" opacity=".8"/>
  <!-- scallion garnish -->
  <rect x="86" y="72" width="7" height="2.6" rx="1.3" fill="#5ecb4e" transform="rotate(-18 89 73)"/>
  <rect x="142" y="82" width="7" height="2.6" rx="1.3" fill="#3f9c37" transform="rotate(12 145 83)"/>
  <rect x="200" y="76" width="7" height="2.6" rx="1.3" fill="#5ecb4e" transform="rotate(-8 203 77)"/>
  <rect x="120" y="100" width="6" height="2.4" rx="1.2" fill="#5ecb4e" transform="rotate(24 123 101)"/>
</svg>
