<svg xmlns="http://www.w3.org/2000/svg" viewBox="0 0 320 200" preserveAspectRatio="xMidYMid slice" aria-hidden="true">
  <defs>
    <filter id="rc1Blur3" x="-60%" y="-60%" width="220%" height="220%">
      <feGaussianBlur stdDeviation="3"/>
    </filter>
    <radialGradient id="rc1bg" cx="85%" cy="-5%" r="100%">
      <stop offset="0%" stop-color="#332818"/><stop offset="45%" stop-color="#0b0a08"/><stop offset="100%" stop-color="#060606"/>
    </radialGradient>
    <radialGradient id="rc1body" cx="46%" cy="30%" r="82%">
      <stop offset="0%" stop-color="#f2c073"/><stop offset="42%" stop-color="#d68b30"/><stop offset="100%" stop-color="#9a5416"/>
    </radialGradient>
    <radialGradient id="rc1breast" cx="46%" cy="26%" r="78%">
      <stop offset="0%" stop-color="#f7d28a"/><stop offset="55%" stop-color="#e0a044"/><stop offset="100%" stop-color="#b06e1e"/>
    </radialGradient>
    <linearGradient id="rc1leg" x1="0" y1="0" x2="0" y2="1">
      <stop offset="0%" stop-color="#e6a848"/><stop offset="100%" stop-color="#9a5215"/>
    </linearGradient>
  </defs>
  <rect width="320" height="200" fill="url(#rc1bg)"/>
  <!-- steam -->
  <path d="M118 54 C108 36 128 28 118 8" stroke="#fff" stroke-width="7" fill="none" opacity=".1" filter="url(#rc1Blur3)"/>
  <path d="M204 52 C196 36 214 28 206 8" stroke="#fff" stroke-width="6" fill="none" opacity=".08" filter="url(#rc1Blur3)"/>
  <ellipse cx="160" cy="188" rx="156" ry="22" fill="#000" opacity=".5"/>
  <!-- oval platter -->
  <ellipse cx="160" cy="134" rx="142" ry="46" fill="#141018"/>
  <ellipse cx="160" cy="134" rx="142" ry="46" fill="none" stroke="#2c2136" stroke-width="3"/>
  <ellipse cx="160" cy="134" rx="128" ry="38" fill="#0f0d13"/>
  <!-- pan-juice sheen on the platter -->
  <ellipse cx="160" cy="140" rx="116" ry="26" fill="#3a2208" opacity=".7"/>
  <ellipse cx="132" cy="134" rx="30" ry="7" fill="#6b3e12" opacity=".4"/>
  <!-- neon steam arc (warm white) -->
  <path d="M52 116 Q104 84 168 82" stroke="#ffe9c9" stroke-width="2.5" fill="none" opacity=".42" stroke-linecap="round"/>
  <!-- whole roast bird, trussed, on its back -->
  <!-- far drumstick -->
  <path d="M212 118 C232 108 248 112 252 124 C250 134 240 140 226 136 C218 132 212 126 212 118 Z" fill="url(#rc1leg)"/>
  <path d="M248 122 C254 120 258 122 258 126 C258 130 254 132 250 130 Z" fill="#f2ddb0"/>
  <path d="M212 118 C232 108 248 112 252 124" fill="none" stroke="#7c3a12" stroke-width="1.2" opacity=".5"/>
  <!-- main body (breast up) -->
  <path d="M64 120 C70 92 108 78 158 78 C206 78 236 96 240 118 C236 140 200 152 156 152 C104 152 70 142 64 120 Z" fill="url(#rc1body)"/>
  <!-- twin breast lobes -->
  <path d="M96 106 C104 88 132 84 152 92 C146 112 128 122 108 120 C100 118 94 112 96 106 Z" fill="url(#rc1breast)"/>
  <path d="M156 92 C176 84 202 90 212 106 C204 122 182 128 162 122 C152 116 150 102 156 92 Z" fill="url(#rc1breast)"/>
  <!-- center seam / trussing dip -->
  <path d="M154 88 C152 108 152 128 154 146" stroke="#8a4c16" stroke-width="2" fill="none" opacity=".5"/>
  <!-- crispy-skin highlight sweep -->
  <path d="M92 100 C120 86 190 86 216 102" stroke="#ffe0a0" stroke-width="3" fill="none" opacity=".5" stroke-linecap="round"/>
  <!-- near drumstick + wing (front) -->
  <path d="M66 116 C46 108 30 114 28 126 C32 136 44 140 58 134 C66 130 68 122 66 116 Z" fill="url(#rc1leg)"/>
  <path d="M32 122 C26 120 22 122 22 126 C22 130 26 132 30 130 Z" fill="#f2ddb0"/>
  <path d="M66 116 C46 108 30 114 28 126" fill="none" stroke="#7c3a12" stroke-width="1.2" opacity=".5"/>
  <!-- tucked wing -->
  <path d="M88 132 C78 142 70 144 64 140 C68 130 78 126 90 128 Z" fill="#c07d28" opacity=".95"/>
  <!-- body outline -->
  <path d="M64 120 C70 92 108 78 158 78 C206 78 236 96 240 118 C236 140 200 152 156 152 C104 152 70 142 64 120 Z" fill="none" stroke="#6e2f0d" stroke-width="1.4" opacity=".45"/>
  <!-- roasted-skin blister spots -->
  <ellipse cx="120" cy="100" rx="7" ry="3.4" fill="#a5551a" opacity=".5"/>
  <ellipse cx="182" cy="102" rx="8" ry="3.6" fill="#9a4d16" opacity=".5"/>
  <ellipse cx="150" cy="120" rx="9" ry="4" fill="#8a4413" opacity=".45"/>
  <ellipse cx="200" cy="120" rx="7" ry="3" fill="#a5551a" opacity=".45"/>
  <!-- herb garnish: rosemary sprigs + thyme flecks -->
  <path d="M104 128 L128 116" stroke="#2f7d2b" stroke-width="1.6" opacity=".85"/>
  <path d="M110 126 l-3 -4 M116 123 l3 -4 M122 120 l-3 -4 M126 118 l3 -4" stroke="#3f9c37" stroke-width="1.3"/>
  <path d="M178 126 L200 114" stroke="#2f7d2b" stroke-width="1.6" opacity=".85"/>
  <path d="M184 123 l-3 -4 M190 120 l3 -4 M196 117 l-3 -4" stroke="#3f9c37" stroke-width="1.3"/>
  <rect x="138" y="112" width="6" height="2.4" rx="1.2" fill="#3f9c37" transform="rotate(-18 141 113)"/>
  <rect x="164" y="132" width="6" height="2.4" rx="1.2" fill="#2f7d2b" transform="rotate(20 167 133)"/>
  <!-- lemon wedge on the platter -->
  <path d="M92 146 C100 142 108 142 112 148 C108 152 100 152 92 148 Z" fill="#f6d64a"/>
  <path d="M92 146 C100 142 108 142 112 148" fill="none" stroke="#e0b010" stroke-width="1" opacity=".6"/>
  <path d="M96 147 L108 147 M97 149 L107 149" stroke="#fff4c0" stroke-width=".8" opacity=".7"/>
  <!-- gloss dots -->
  <circle cx="126" cy="96" r="1.5" fill="#fff" opacity=".6"/>
  <circle cx="188" cy="98" r="1.4" fill="#fff" opacity=".55"/>
  <circle cx="158" cy="112" r="1.3" fill="#fff" opacity=".5"/>
</svg>
