<svg xmlns="http://www.w3.org/2000/svg" viewBox="0 0 320 200" preserveAspectRatio="xMidYMid slice" aria-hidden="true">
  <defs>
    <filter id="skfBlur3" x="-60%" y="-60%" width="220%" height="220%">
      <feGaussianBlur stdDeviation="3"/>
    </filter>
    <radialGradient id="skfbg" cx="85%" cy="-5%" r="100%">
      <stop offset="0%" stop-color="#123138"/><stop offset="45%" stop-color="#0b090a"/><stop offset="100%" stop-color="#060506"/>
    </radialGradient>
    <radialGradient id="skfbroth" cx="46%" cy="30%" r="82%">
      <stop offset="0%" stop-color="#fbf3df"/><stop offset="55%" stop-color="#f0e2c0"/><stop offset="100%" stop-color="#d9c398"/>
    </radialGradient>
    <radialGradient id="skfbowl" cx="50%" cy="30%" r="82%">
      <stop offset="0%" stop-color="#1c1622"/><stop offset="100%" stop-color="#0c0c0f"/>
    </radialGradient>
    <linearGradient id="skffish" x1="0" y1="0" x2="0" y2="1">
      <stop offset="0%" stop-color="#fdfaf2"/><stop offset="55%" stop-color="#f2e9d6"/><stop offset="100%" stop-color="#dfceac"/>
    </linearGradient>
  </defs>
  <rect width="320" height="200" fill="url(#skfbg)"/>
  <!-- steam -->
  <path d="M118 50 C108 32 128 26 118 6" stroke="#fff" stroke-width="7" fill="none" opacity=".1" filter="url(#skfBlur3)"/>
  <path d="M198 52 C190 36 208 28 200 8" stroke="#fff" stroke-width="6" fill="none" opacity=".08" filter="url(#skfBlur3)"/>
  <!-- cast shadow -->
  <ellipse cx="160" cy="186" rx="140" ry="22" fill="#000" opacity=".5"/>
  <!-- neon steam arc (cyan) -->
  <path d="M52 112 Q104 78 168 76" stroke="#35e0ff" stroke-width="2.5" fill="none" opacity=".42" stroke-linecap="round"/>
  <!-- deep bowl body -->
  <path d="M40 116 C40 108 60 104 160 104 C260 104 280 108 280 116 C278 156 232 182 160 182 C88 182 42 156 40 116 Z" fill="url(#skfbowl)"/>
  <path d="M40 116 C40 108 60 104 160 104 C260 104 280 108 280 116 C278 156 232 182 160 182 C88 182 42 156 40 116 Z" fill="none" stroke="#2c2136" stroke-width="3"/>
  <!-- rim ellipse -->
  <ellipse cx="160" cy="114" rx="120" ry="30" fill="#141018"/>
  <ellipse cx="160" cy="114" rx="120" ry="30" fill="none" stroke="#2c2136" stroke-width="2.5"/>
  <!-- milky sour broth surface -->
  <ellipse cx="160" cy="114" rx="112" ry="27" fill="url(#skfbroth)"/>
  <ellipse cx="160" cy="110" rx="70" ry="12" fill="#fffdf5" opacity=".4"/>
  <!-- chili-oil sheen slicks floating on the sour broth -->
  <path d="M70 118 C86 112 104 116 96 124 C82 128 66 126 70 118 Z" fill="#e0491d" opacity=".55"/>
  <path d="M212 116 C230 110 250 116 240 124 C224 128 206 124 212 116 Z" fill="#e0491d" opacity=".5"/>
  <ellipse cx="150" cy="128" rx="14" ry="5" fill="#d13c14" opacity=".4"/>
  <!-- pickled sauerkraut strands (translucent yellow-green) -->
  <g stroke-linecap="round" fill="none" opacity=".9">
    <path d="M96 106 C104 102 116 104 122 110" stroke="#cbb352" stroke-width="3.4"/>
    <path d="M126 100 C136 98 146 102 150 108" stroke="#d8c268" stroke-width="3.4"/>
    <path d="M188 104 C198 100 208 104 214 110" stroke="#cbb352" stroke-width="3.4"/>
    <path d="M108 118 C118 116 128 118 134 122" stroke="#c2a944" stroke-width="3"/>
    <path d="M198 118 C208 114 218 118 222 122" stroke="#d8c268" stroke-width="3"/>
  </g>
  <!-- FISH FILLET SLICES: pale, glossy, curled, floating on top -->
  <g stroke="#c9b487" stroke-width="1.3" opacity="1">
    <path d="M96 108 C92 98 108 92 122 96 C134 92 144 100 140 110 C144 118 128 124 116 120 C104 122 98 116 96 108 Z" fill="url(#skffish)"/>
    <path d="M150 100 C146 90 162 84 176 88 C188 84 198 92 194 102 C198 110 182 116 170 112 C158 114 152 108 150 100 Z" fill="url(#skffish)"/>
    <path d="M124 124 C120 114 136 108 150 112 C162 108 172 116 168 126 C172 134 156 140 144 136 C132 138 126 132 124 124 Z" fill="url(#skffish)"/>
    <path d="M188 118 C184 108 200 102 214 106 C226 102 236 110 232 120 C236 128 220 134 208 130 C196 132 190 126 188 118 Z" fill="url(#skffish)"/>
  </g>
  <!-- fish translucency ridge lines -->
  <g stroke="#e9dcc0" stroke-width="1.2" fill="none" opacity=".7">
    <path d="M104 106 C114 102 128 104 134 110"/>
    <path d="M158 98 C170 94 184 96 190 102"/>
    <path d="M132 122 C144 118 158 120 164 126"/>
    <path d="M196 116 C208 112 222 114 228 120"/>
  </g>
  <!-- gloss highlights on fish -->
  <ellipse cx="112" cy="104" rx="7" ry="2.6" fill="#fff" opacity=".55"/>
  <ellipse cx="168" cy="96" rx="7" ry="2.6" fill="#fff" opacity=".55"/>
  <ellipse cx="146" cy="120" rx="6" ry="2.4" fill="#fff" opacity=".5"/>
  <!-- garnish: dried chilies, sichuan pepper, cilantro, scallion -->
  <path d="M118 92 C124 90 130 92 132 96 C126 98 120 96 118 92 Z" fill="#d02c14"/>
  <path d="M178 128 C184 126 190 128 192 132 C186 134 180 132 178 128 Z" fill="#d02c14"/>
  <rect x="140" y="90" width="7" height="2.6" rx="1.3" fill="#5ecb4e" transform="rotate(-16 143 91)"/>
  <rect x="200" y="106" width="7" height="2.6" rx="1.3" fill="#3f9c37" transform="rotate(18 203 107)"/>
  <rect x="106" y="128" width="6" height="2.4" rx="1.2" fill="#58c14a" transform="rotate(22 109 129)"/>
  <circle cx="130" cy="112" r="1.8" fill="#3a1206"/>
  <circle cx="182" cy="98" r="1.8" fill="#3a1206"/>
  <circle cx="160" cy="130" r="1.8" fill="#3a1206"/>
  <!-- oil gloss dots -->
  <circle cx="124" cy="104" r="1.4" fill="#fff" opacity=".6"/>
  <circle cx="196" cy="120" r="1.3" fill="#fff" opacity=".55"/>
  <circle cx="150" cy="132" r="1.2" fill="#fff" opacity=".5"/>
</svg>
