<svg xmlns="http://www.w3.org/2000/svg" viewBox="0 0 320 200" preserveAspectRatio="xMidYMid slice" aria-hidden="true">
  <defs>
    <filter id="snBlur3" x="-60%" y="-60%" width="220%" height="220%">
      <feGaussianBlur stdDeviation="3"/>
    </filter>
    <radialGradient id="snbg" cx="85%" cy="-5%" r="100%">
      <stop offset="0%" stop-color="#332818"/><stop offset="45%" stop-color="#0b0a08"/><stop offset="100%" stop-color="#060606"/>
    </radialGradient>
    <radialGradient id="snplate" cx="50%" cy="32%" r="80%">
      <stop offset="0%" stop-color="#1a1420"/><stop offset="100%" stop-color="#0b0b0d"/>
    </radialGradient>
    <radialGradient id="snsoy" cx="46%" cy="40%" r="80%">
      <stop offset="0%" stop-color="#7c3a20"/><stop offset="55%" stop-color="#5e2410"/><stop offset="100%" stop-color="#3d2113"/>
    </radialGradient>
  </defs>
  <rect width="320" height="200" fill="url(#snbg)"/>
  <!-- rising steam wisps -->
  <path d="M126 52 C116 34 136 28 126 8" stroke="#fff" stroke-width="7" fill="none" opacity=".1" filter="url(#snBlur3)"/>
  <path d="M198 54 C190 38 208 30 200 10" stroke="#fff" stroke-width="6" fill="none" opacity=".08" filter="url(#snBlur3)"/>
  <!-- cast shadow -->
  <ellipse cx="160" cy="188" rx="150" ry="22" fill="#000" opacity=".5"/>
  <!-- wide oval plate (dry tossed noodles) -->
  <ellipse cx="160" cy="132" rx="146" ry="48" fill="url(#snplate)"/>
  <ellipse cx="160" cy="132" rx="146" ry="48" fill="none" stroke="#2c2136" stroke-width="3"/>
  <ellipse cx="160" cy="132" rx="130" ry="40" fill="#0f0d13"/>
  <!-- neon steam arc (warm white, local Shanghai) -->
  <path d="M52 116 Q104 82 168 80" stroke="#ffe9c9" stroke-width="2.5" fill="none" opacity=".42" stroke-linecap="round"/>
  <!-- glossy soy-dressed noodle nest, tossed and mounded -->
  <path d="M64 138 C72 108 108 96 160 96 C212 96 248 108 256 138 C230 156 196 160 160 160 C124 160 90 156 64 138 Z" fill="url(#snsoy)" opacity=".55"/>
  <g stroke-linecap="round" fill="none">
    <!-- shadow strands -->
    <path d="M72 132 C102 112 150 108 200 116 C226 120 246 126 250 134" stroke="#3d2113" stroke-width="7"/>
    <path d="M76 124 C108 104 154 100 202 108 C224 112 242 118 246 126" stroke="#6b4029" stroke-width="7"/>
    <!-- glazed body strands -->
    <path d="M80 118 C112 98 156 94 202 102 C222 106 238 112 242 120" stroke="#8a5a1e" stroke-width="6.5"/>
    <path d="M86 112 C120 92 160 88 204 96 C220 100 234 106 238 114" stroke="#a86a2a" stroke-width="6.5"/>
    <path d="M92 106 C126 88 162 84 204 90 C218 94 230 100 232 108" stroke="#b87a34" stroke-width="6"/>
    <path d="M100 100 C132 84 166 80 200 84" stroke="#c89050" stroke-width="5.5"/>
    <!-- oily highlight strands -->
    <path d="M96 104 C130 86 166 82 202 88" stroke="#e0b878" stroke-width="2" opacity=".8"/>
    <path d="M84 116 C118 96 158 92 202 100" stroke="#d8a862" stroke-width="1.8" opacity=".6"/>
  </g>
  <!-- crispy fried scallion segments (the hero garnish, generous) -->
  <g stroke-linecap="round">
    <path d="M108 96 C116 90 124 92 128 98" stroke="#2f7d2b" stroke-width="4" fill="none"/>
    <path d="M108 96 C116 90 124 92 128 98" stroke="#4d3b17" stroke-width="1.8" fill="none" opacity=".7"/>
  </g>
  <rect x="118" y="104" width="14" height="4" rx="2" fill="#3f9c37" transform="rotate(-14 125 106)"/>
  <rect x="118" y="104" width="14" height="1.6" rx=".8" fill="#6b5420" transform="rotate(-14 125 106)"/>
  <rect x="150" y="94" width="15" height="4.2" rx="2.1" fill="#58c14a" transform="rotate(10 157 96)"/>
  <rect x="150" y="94" width="15" height="1.6" rx=".8" fill="#6b5420" transform="rotate(10 157 96)"/>
  <rect x="184" y="102" width="14" height="4" rx="2" fill="#3f9c37" transform="rotate(-8 191 104)"/>
  <rect x="184" y="102" width="14" height="1.6" rx=".8" fill="#4d3b17" transform="rotate(-8 191 104)"/>
  <rect x="132" y="118" width="13" height="4" rx="2" fill="#5ecb4e" transform="rotate(20 138 120)"/>
  <rect x="132" y="118" width="13" height="1.6" rx=".8" fill="#6b5420" transform="rotate(20 138 120)"/>
  <rect x="170" y="112" width="14" height="4.2" rx="2.1" fill="#3f9c37" transform="rotate(-18 177 114)"/>
  <rect x="170" y="112" width="14" height="1.6" rx=".8" fill="#4d3b17" transform="rotate(-18 177 114)"/>
  <rect x="202" y="118" width="12" height="3.8" rx="1.9" fill="#58c14a" transform="rotate(14 208 120)"/>
  <rect x="98" y="112" width="12" height="3.8" rx="1.9" fill="#2f7d2b" transform="rotate(24 104 114)"/>
  <!-- crispy shallot fried bits -->
  <circle cx="140" cy="106" r="2.2" fill="#6b5420"/>
  <circle cx="176" cy="98" r="2" fill="#4d3b17"/>
  <circle cx="208" cy="108" r="2" fill="#6b5420"/>
  <!-- oily gloss dots -->
  <circle cx="120" cy="110" r="1.6" fill="#fff" opacity=".55"/>
  <circle cx="164" cy="102" r="1.5" fill="#fff" opacity=".5"/>
  <circle cx="196" cy="114" r="1.3" fill="#fff" opacity=".45"/>
  <circle cx="146" cy="124" r="1.3" fill="#fff" opacity=".45"/>
</svg>
