<svg xmlns="http://www.w3.org/2000/svg" viewBox="0 0 320 200" preserveAspectRatio="xMidYMid slice" aria-hidden="true">
  <defs>
    <filter id="nnBlur3" x="-60%" y="-60%" width="220%" height="220%">
      <feGaussianBlur stdDeviation="3"/>
    </filter>
    <radialGradient id="h1bg" cx="85%" cy="-5%" r="100%">
      <stop offset="0%" stop-color="#123138"/><stop offset="45%" stop-color="#0b090a"/><stop offset="100%" stop-color="#060506"/>
    </radialGradient>
    <linearGradient id="h1pot" x1="0" y1="0" x2="0" y2="1">
      <stop offset="0%" stop-color="#1a1420"/><stop offset="55%" stop-color="#100b0d"/><stop offset="100%" stop-color="#070506"/>
    </linearGradient>
    <radialGradient id="h1broth" cx="50%" cy="32%" r="82%">
      <stop offset="0%" stop-color="#ef5520"/><stop offset="50%" stop-color="#b02408"/><stop offset="100%" stop-color="#7a1305"/>
    </radialGradient>
  </defs>
  <rect width="320" height="200" fill="url(#h1bg)"/>
  <!-- steam -->
  <path d="M118 60 C108 42 128 34 118 14" stroke="#fff" stroke-width="7" fill="none" opacity=".1" filter="url(#nnBlur3)"/>
  <path d="M200 56 C192 40 210 32 202 12" stroke="#fff" stroke-width="6" fill="none" opacity=".08" filter="url(#nnBlur3)"/>
  <ellipse cx="160" cy="188" rx="158" ry="22" fill="#000" opacity=".5"/>
  <!-- pot body -->
  <path d="M46 108 C46 152 100 176 160 176 C220 176 274 152 274 108 Z" fill="url(#h1pot)"/>
  <ellipse cx="160" cy="108" rx="118" ry="30" fill="#0d0d10"/>
  <ellipse cx="160" cy="108" rx="118" ry="30" fill="none" stroke="#2c2136" stroke-width="3"/>
  <ellipse cx="160" cy="108" rx="106" ry="25" fill="#120a0c"/>
  <!-- neon steam arc -->
  <path d="M58 100 Q104 74 164 72" stroke="#35e0ff" stroke-width="2.5" fill="none" opacity=".4" stroke-linecap="round"/>
  <!-- boiling chili broth -->
  <ellipse cx="160" cy="110" rx="99" ry="22" fill="url(#h1broth)"/>
  <ellipse cx="132" cy="102" rx="30" ry="7" fill="#ff8a3a" opacity=".3" transform="rotate(-8 132 102)"/>
  <!-- oil sheen bubbles -->
  <circle cx="108" cy="112" r="5" fill="#d8420f" opacity=".7"/>
  <circle cx="108" cy="112" r="5" fill="none" stroke="#ff7a3a" stroke-width="1.2" opacity=".6"/>
  <circle cx="196" cy="116" r="6" fill="#d8420f" opacity=".7"/>
  <circle cx="196" cy="116" r="6" fill="none" stroke="#ff7a3a" stroke-width="1.2" opacity=".6"/>
  <circle cx="152" cy="120" r="4" fill="#c73a0d" opacity=".7"/>
  <circle cx="176" cy="104" r="3.4" fill="#ff8a3a" opacity=".5"/>
  <circle cx="128" cy="120" r="3" fill="#ff8a3a" opacity=".5"/>
  <!-- floating dried chilis -->
  <g transform="translate(90 96) rotate(-24)"><path d="M0 0 C14 -3 26 1 34 6 C26 9 14 9 0 6 Z" fill="#c31f12"/><path d="M0 0 C14 -3 26 1 34 6" stroke="#ff5a3a" stroke-width="1.2" fill="none" opacity=".6"/></g>
  <g transform="translate(158 92) rotate(14)"><path d="M0 0 C14 -3 26 1 34 6 C26 9 14 9 0 6 Z" fill="#a81c0e"/><path d="M0 0 C14 -3 26 1 34 6" stroke="#ff5a3a" stroke-width="1.2" fill="none" opacity=".5"/></g>
  <g transform="translate(198 108) rotate(-10)"><path d="M0 0 C12 -3 22 1 29 5 C22 8 12 8 0 5 Z" fill="#c31f12"/><path d="M0 0 C12 -3 22 1 29 5" stroke="#ff5a3a" stroke-width="1.1" fill="none" opacity=".6"/></g>
  <g transform="translate(112 122) rotate(28)"><path d="M0 0 C12 -3 22 1 29 5 C22 8 12 8 0 5 Z" fill="#a81c0e"/><path d="M0 0 C12 -3 22 1 29 5" stroke="#ff5a3a" stroke-width="1.1" fill="none" opacity=".5"/></g>
  <g transform="translate(176 120) rotate(6)"><path d="M0 0 C12 -3 22 1 29 5 C22 8 12 8 0 5 Z" fill="#c31f12"/><path d="M0 0 C12 -3 22 1 29 5" stroke="#ff5a3a" stroke-width="1.1" fill="none" opacity=".6"/></g>
  <!-- lotus root slice -->
  <g transform="translate(142 109) rotate(-6)"><ellipse rx="9" ry="6" fill="#f4ead0"/><ellipse rx="9" ry="6" fill="none" stroke="#c9b487" stroke-width="1.1"/><ellipse cx="0" cy="-1.6" rx="1" ry="1.3" fill="#7a1305"/><ellipse cx="-3.4" cy="0.8" rx="1" ry="1.3" fill="#7a1305"/><ellipse cx="3.4" cy="0.8" rx="1" ry="1.3" fill="#7a1305"/><ellipse cx="-1.8" cy="2.6" rx=".9" ry="1.1" fill="#7a1305"/><ellipse cx="1.8" cy="2.6" rx=".9" ry="1.1" fill="#7a1305"/></g>
  <!-- beef roll -->
  <g transform="translate(170 122) rotate(8)"><ellipse rx="12" ry="6" fill="#8f3826"/><path d="M-10 -1 Q0 -5 10 -1" stroke="#d88a70" stroke-width="2" fill="none" opacity=".7"/><path d="M-9 2 Q0 -1 9 2" stroke="#f4d8c0" stroke-width="1.6" fill="none" opacity=".6"/></g>
  <!-- floating peppercorns -->
  <circle cx="120" cy="106" r="1.4" fill="#260903"/><circle cx="146" cy="98" r="1.4" fill="#260903"/>
  <circle cx="184" cy="98" r="1.4" fill="#260903"/><circle cx="132" cy="114" r="1.2" fill="#260903"/>
  <circle cx="206" cy="120" r="1.3" fill="#260903"/><circle cx="164" cy="114" r="1.2" fill="#260903"/>
  <!-- scallion + cilantro flecks -->
  <rect x="104" y="102" width="7" height="2.6" rx="1.3" fill="#58c14a" transform="rotate(-18 107 103)"/>
  <rect x="150" y="106" width="7" height="2.6" rx="1.3" fill="#3f9c37" transform="rotate(16 153 107)"/>
  <rect x="188" y="112" width="7" height="2.6" rx="1.3" fill="#58c14a" transform="rotate(-8 191 113)"/>
  <rect x="124" y="118" width="6" height="2.4" rx="1.2" fill="#58c14a" transform="rotate(26 127 119)"/>
  <rect x="174" y="100" width="6" height="2.4" rx="1.2" fill="#2f7d2b" transform="rotate(-30 177 101)"/>
  <!-- oil gloss dots -->
  <circle cx="118" cy="104" r="1.4" fill="#fff" opacity=".6"/>
  <circle cx="182" cy="108" r="1.4" fill="#fff" opacity=".55"/>
  <circle cx="150" cy="116" r="1.2" fill="#fff" opacity=".5"/>
</svg>
