<svg xmlns="http://www.w3.org/2000/svg" viewBox="0 0 320 200" preserveAspectRatio="xMidYMid slice" aria-hidden="true">
  <defs>
    <radialGradient id="tabbg" cx="85%" cy="-5%" r="100%">
      <stop offset="0%" stop-color="#102e35"/><stop offset="45%" stop-color="#0b090b"/><stop offset="100%" stop-color="#060507"/>
    </radialGradient>
    <radialGradient id="tabbowl" cx="50%" cy="30%" r="82%">
      <stop offset="0%" stop-color="#1c1622"/><stop offset="100%" stop-color="#0b0b0d"/>
    </radialGradient>
    <radialGradient id="tabsalad" cx="46%" cy="34%" r="74%">
      <stop offset="0%" stop-color="#5ecb4e"/><stop offset="55%" stop-color="#3f9c37"/><stop offset="100%" stop-color="#256b22"/>
    </radialGradient>
  </defs>
  <rect width="320" height="200" fill="url(#tabbg)"/>
  <!-- cast shadow -->
  <ellipse cx="160" cy="184" rx="150" ry="22" fill="#000" opacity=".5"/>
  <!-- freshness sparkle (cold dish: no steam) -->
  <path d="M96 60 l2.4 6 6 2.4 -6 2.4 -2.4 6 -2.4 -6 -6 -2.4 6 -2.4 Z" fill="#8fe6ff" opacity=".5"/>
  <path d="M214 52 l1.8 4.6 4.6 1.8 -4.6 1.8 -1.8 4.6 -1.8 -4.6 -4.6 -1.8 4.6 -1.8 Z" fill="#c9f2ff" opacity=".45"/>
  <circle cx="180" cy="46" r="1.6" fill="#e8fbff" opacity=".6"/>
  <!-- wide shallow salad bowl -->
  <ellipse cx="160" cy="130" rx="140" ry="52" fill="url(#tabbowl)"/>
  <ellipse cx="160" cy="130" rx="140" ry="52" fill="none" stroke="#2c2136" stroke-width="3"/>
  <ellipse cx="160" cy="128" rx="124" ry="44" fill="#100e14"/>
  <!-- neon accent arc (cyan, cool/fresh) -->
  <path d="M50 116 Q108 88 172 88" stroke="#35e0ff" stroke-width="2.5" fill="none" opacity=".4" stroke-linecap="round"/>
  <!-- chopped-parsley salad mound -->
  <path d="M52 132 C58 106 100 94 160 94 C220 94 262 106 268 132 C238 152 200 158 160 158 C120 158 82 152 52 132 Z" fill="#2b6d28" opacity=".7"/>
  <path d="M56 130 C62 102 102 90 160 90 C218 90 258 102 264 130 C236 148 200 154 160 154 C120 154 84 148 56 130 Z" fill="url(#tabsalad)"/>
  <!-- dense chopped-herb texture: short green flecks + pale bulgur grains + tomato dice -->
  <g stroke-linecap="round" fill="none">
    <path d="M84 116 l7 -3" stroke="#6fd85e" stroke-width="2.6"/>
    <path d="M102 128 l6 3" stroke="#2f7d2b" stroke-width="2.6"/>
    <path d="M120 110 l7 -2" stroke="#78e065" stroke-width="2.6"/>
    <path d="M138 124 l-6 3" stroke="#2f7d2b" stroke-width="2.6"/>
    <path d="M158 106 l6 3" stroke="#6fd85e" stroke-width="2.6"/>
    <path d="M176 122 l7 -3" stroke="#2f7d2b" stroke-width="2.6"/>
    <path d="M196 112 l-6 3" stroke="#78e065" stroke-width="2.6"/>
    <path d="M214 126 l7 2" stroke="#2f7d2b" stroke-width="2.6"/>
    <path d="M232 116 l-6 -3" stroke="#6fd85e" stroke-width="2.6"/>
    <path d="M96 138 l7 2" stroke="#2f7d2b" stroke-width="2.4"/>
    <path d="M132 142 l6 -2" stroke="#6fd85e" stroke-width="2.4"/>
    <path d="M170 142 l-7 2" stroke="#2f7d2b" stroke-width="2.4"/>
    <path d="M206 140 l6 -3" stroke="#78e065" stroke-width="2.4"/>
    <path d="M114 132 l6 3" stroke="#6fd85e" stroke-width="2.4"/>
    <path d="M186 132 l-6 3" stroke="#2f7d2b" stroke-width="2.4"/>
  </g>
  <!-- pale bulgur / grain dots woven through -->
  <g fill="#e6cf9d">
    <circle cx="108" cy="118" r="2" opacity=".9"/><circle cx="146" cy="112" r="2" opacity=".85"/>
    <circle cx="182" cy="120" r="2" opacity=".9"/><circle cx="126" cy="128" r="1.8" opacity=".8"/>
    <circle cx="200" cy="130" r="1.8" opacity=".85"/><circle cx="160" cy="126" r="2" opacity=".9"/>
    <circle cx="92" cy="126" r="1.6" opacity=".75"/><circle cx="216" cy="122" r="1.8" opacity=".8"/>
    <circle cx="150" cy="138" r="1.8" opacity=".8"/><circle cx="176" cy="138" r="1.6" opacity=".75"/>
  </g>
  <!-- diced tomato jewels -->
  <g fill="#e2451f">
    <rect x="118" y="120" width="6" height="6" rx="1.6" transform="rotate(16 121 123)"/>
    <rect x="168" y="116" width="6" height="6" rx="1.6" transform="rotate(-12 171 119)"/>
    <rect x="140" y="132" width="5.4" height="5.4" rx="1.4" transform="rotate(24 143 135)"/>
    <rect x="196" y="126" width="5.4" height="5.4" rx="1.4" transform="rotate(-20 199 129)"/>
    <rect x="98" y="132" width="5" height="5" rx="1.3" transform="rotate(10 100 134)"/>
  </g>
  <!-- fresh gloss dots (dressing sheen) -->
  <circle cx="120" cy="108" r="1.4" fill="#fff" opacity=".55"/>
  <circle cx="184" cy="112" r="1.3" fill="#fff" opacity=".5"/>
  <circle cx="150" cy="128" r="1.2" fill="#eafff2" opacity=".5"/>
  <circle cx="208" cy="134" r="1.1" fill="#fff" opacity=".45"/>
</svg>
