<svg xmlns="http://www.w3.org/2000/svg" viewBox="0 0 320 200" preserveAspectRatio="xMidYMid slice" aria-hidden="true">
  <defs>
    <filter id="tyBlur3" x="-60%" y="-60%" width="220%" height="220%">
      <feGaussianBlur stdDeviation="3"/>
    </filter>
    <radialGradient id="tybg" cx="85%" cy="-5%" r="100%">
      <stop offset="0%" stop-color="#332818"/><stop offset="45%" stop-color="#0b0a08"/><stop offset="100%" stop-color="#060606"/>
    </radialGradient>
    <radialGradient id="tybowl" cx="50%" cy="30%" r="82%">
      <stop offset="0%" stop-color="#1a1420"/><stop offset="100%" stop-color="#0b0b0d"/>
    </radialGradient>
    <radialGradient id="tyrice" cx="46%" cy="30%" r="78%">
      <stop offset="0%" stop-color="#fdfaf2"/><stop offset="60%" stop-color="#efe8d6"/><stop offset="100%" stop-color="#d8ccb2"/>
    </radialGradient>
    <linearGradient id="tyskin" x1="0" y1="0" x2="0" y2="1">
      <stop offset="0%" stop-color="#cf7a2c"/><stop offset="48%" stop-color="#9a4d17"/><stop offset="100%" stop-color="#6e2f0d"/>
    </linearGradient>
    <linearGradient id="tyglaze" x1="0" y1="0" x2="0" y2="1">
      <stop offset="0%" stop-color="#8a3f12"/><stop offset="100%" stop-color="#4c1c06"/>
    </linearGradient>
  </defs>
  <rect width="320" height="200" fill="url(#tybg)"/>
  <!-- steam -->
  <path d="M120 48 C110 30 130 22 120 4" stroke="#fff" stroke-width="7" fill="none" opacity=".1" filter="url(#tyBlur3)"/>
  <path d="M198 46 C190 30 208 22 200 4" stroke="#fff" stroke-width="6" fill="none" opacity=".08" filter="url(#tyBlur3)"/>
  <ellipse cx="160" cy="188" rx="150" ry="22" fill="#000" opacity=".5"/>
  <!-- neon steam arc (warm) -->
  <path d="M52 104 Q104 74 168 72" stroke="#ffe9c9" stroke-width="2.5" fill="none" opacity=".45" stroke-linecap="round"/>
  <!-- deep donburi bowl silhouette -->
  <path d="M56 118 C56 108 88 100 160 100 C232 100 264 108 264 118 C264 156 220 184 160 184 C100 184 56 156 56 118 Z" fill="url(#tybowl)"/>
  <path d="M56 118 C56 156 100 184 160 184 C220 184 264 156 264 118" fill="none" stroke="#26262e" stroke-width="3"/>
  <!-- bowl rim ellipse -->
  <ellipse cx="160" cy="116" rx="104" ry="20" fill="#0c0c0f"/>
  <ellipse cx="160" cy="116" rx="104" ry="20" fill="none" stroke="#2c2136" stroke-width="2.5" opacity=".8"/>
  <!-- rice mound filling the bowl -->
  <path d="M62 116 C74 100 112 94 160 94 C208 94 246 100 258 116 C240 130 204 138 160 138 C116 138 80 130 62 116 Z" fill="url(#tyrice)"/>
  <path d="M62 116 C74 100 112 94 160 94 C208 94 246 100 258 116" fill="none" stroke="#fffdf6" stroke-width="1.3" opacity=".4"/>
  <!-- rice-grain texture on the visible margins -->
  <g stroke-linecap="round" fill="none" opacity=".6">
    <path d="M84 112 l6 -2" stroke="#efe6cf" stroke-width="2"/>
    <path d="M108 118 l6 2" stroke="#d5c8a8" stroke-width="2"/>
    <path d="M204 116 l6 -2" stroke="#efe6cf" stroke-width="2"/>
    <path d="M232 112 l-6 2" stroke="#d5c8a8" stroke-width="2"/>
    <path d="M96 104 l6 -2" stroke="#efe6cf" stroke-width="2"/>
    <path d="M220 106 l-6 2" stroke="#d5c8a8" stroke-width="2"/>
  </g>
  <!-- glossy teriyaki chicken pieces mounded center: 5 glazed chunks -->
  <g>
    <!-- back piece -->
    <g transform="translate(0 -2)">
      <path d="M118 96 C112 86 128 80 144 82 C160 78 172 88 168 98 C172 108 156 116 140 112 C124 114 116 106 118 96 Z" fill="url(#tyskin)"/>
      <path d="M118 96 C112 86 128 80 144 82 C160 78 172 88 168 98 C172 108 156 116 140 112 C124 114 116 106 118 96 Z" fill="none" stroke="#3d1706" stroke-width="1.4" opacity=".55"/>
      <path d="M124 90 C136 84 156 84 164 92" stroke="url(#tyglaze)" stroke-width="3" fill="none" opacity=".7" stroke-linecap="round"/>
      <ellipse cx="132" cy="88" rx="8" ry="3.4" fill="#f0b26a" opacity=".7"/>
    </g>
    <!-- mid pieces -->
    <g>
      <path d="M92 106 C86 96 102 90 118 92 C134 88 146 98 142 108 C146 118 130 126 114 122 C98 124 90 116 92 106 Z" fill="url(#tyskin)"/>
      <path d="M92 106 C86 96 102 90 118 92 C134 88 146 98 142 108 C146 118 130 126 114 122 C98 124 90 116 92 106 Z" fill="none" stroke="#3d1706" stroke-width="1.4" opacity=".55"/>
      <path d="M98 100 C112 94 130 94 138 102" stroke="url(#tyglaze)" stroke-width="3" fill="none" opacity=".7" stroke-linecap="round"/>
      <ellipse cx="106" cy="98" rx="9" ry="3.6" fill="#f0b26a" opacity=".75"/>
    </g>
    <g>
      <path d="M178 106 C172 96 188 90 204 92 C220 88 232 98 228 108 C232 118 216 126 200 122 C184 124 176 116 178 106 Z" fill="url(#tyskin)"/>
      <path d="M178 106 C172 96 188 90 204 92 C220 88 232 98 228 108 C232 118 216 126 200 122 C184 124 176 116 178 106 Z" fill="none" stroke="#3d1706" stroke-width="1.4" opacity=".55"/>
      <path d="M184 100 C198 94 216 94 224 102" stroke="url(#tyglaze)" stroke-width="3" fill="none" opacity=".7" stroke-linecap="round"/>
      <ellipse cx="192" cy="98" rx="9" ry="3.6" fill="#f0b26a" opacity=".75"/>
    </g>
    <!-- front pieces (larger, glossiest) -->
    <g>
      <path d="M124 120 C118 108 136 102 154 104 C172 100 186 110 182 122 C186 134 168 142 150 138 C132 140 122 132 124 120 Z" fill="url(#tyskin)"/>
      <path d="M124 120 C118 108 136 102 154 104 C172 100 186 110 182 122 C186 134 168 142 150 138 C132 140 122 132 124 120 Z" fill="none" stroke="#3d1706" stroke-width="1.5" opacity=".6"/>
      <path d="M130 113 C146 106 168 106 178 116" stroke="url(#tyglaze)" stroke-width="3.4" fill="none" opacity=".75" stroke-linecap="round"/>
      <ellipse cx="140" cy="112" rx="11" ry="4.2" fill="#f4bd76" opacity=".8"/>
    </g>
    <g>
      <path d="M180 124 C174 114 190 108 206 110 C222 106 234 116 230 126 C234 136 218 144 202 140 C186 142 178 134 180 124 Z" fill="url(#tyskin)"/>
      <path d="M180 124 C174 114 190 108 206 110 C222 106 234 116 230 126 C234 136 218 144 202 140 C186 142 178 134 180 124 Z" fill="none" stroke="#3d1706" stroke-width="1.5" opacity=".6"/>
      <path d="M186 117 C200 110 220 110 228 120" stroke="url(#tyglaze)" stroke-width="3.4" fill="none" opacity=".75" stroke-linecap="round"/>
      <ellipse cx="194" cy="116" rx="10" ry="4" fill="#f4bd76" opacity=".8"/>
    </g>
  </g>
  <!-- glossy teriyaki glaze pooling drips -->
  <path d="M118 132 Q150 144 186 134" stroke="url(#tyglaze)" stroke-width="3" fill="none" opacity=".55" stroke-linecap="round"/>
  <!-- toasted sesame seeds scattered -->
  <g>
    <ellipse cx="138" cy="106" rx="2" ry="1.1" fill="#f8eed6" transform="rotate(18 138 106)"/>
    <ellipse cx="168" cy="112" rx="2" ry="1.1" fill="#e6d3ab" transform="rotate(-12 168 112)"/>
    <ellipse cx="150" cy="126" rx="2" ry="1.1" fill="#f8eed6" transform="rotate(24 150 126)"/>
    <ellipse cx="200" cy="120" rx="2" ry="1.1" fill="#e6d3ab" transform="rotate(-8 200 120)"/>
    <ellipse cx="118" cy="118" rx="1.8" ry="1" fill="#f8eed6" transform="rotate(14 118 118)"/>
    <ellipse cx="214" cy="128" rx="1.8" ry="1" fill="#e6d3ab" transform="rotate(-18 214 128)"/>
  </g>
  <!-- scallion greens on top -->
  <rect x="132" y="100" width="7" height="2.6" rx="1.3" fill="#5ecb4e" transform="rotate(-20 135 101)"/>
  <rect x="196" y="104" width="7" height="2.6" rx="1.3" fill="#3f9c37" transform="rotate(16 199 105)"/>
  <rect x="160" y="128" width="7" height="2.6" rx="1.3" fill="#58c14a" transform="rotate(-8 163 129)"/>
  <rect x="112" y="126" width="6" height="2.4" rx="1.2" fill="#3f9c37" transform="rotate(24 115 127)"/>
  <rect x="216" y="134" width="6" height="2.4" rx="1.2" fill="#5ecb4e" transform="rotate(-14 219 135)"/>
  <!-- gloss highlight dots -->
  <circle cx="142" cy="110" r="1.6" fill="#fff" opacity=".65"/>
  <circle cx="198" cy="114" r="1.4" fill="#fff" opacity=".55"/>
  <circle cx="156" cy="130" r="1.3" fill="#fff" opacity=".5"/>
</svg>
