<svg xmlns="http://www.w3.org/2000/svg" viewBox="0 0 320 200" preserveAspectRatio="xMidYMid slice" aria-hidden="true">
  <defs>
    <filter id="nnBlur3" x="-60%" y="-60%" width="220%" height="220%">
      <feGaussianBlur stdDeviation="3"/>
    </filter>
    <radialGradient id="w1bg" cx="85%" cy="-5%" r="100%">
      <stop offset="0%" stop-color="#113036"/><stop offset="45%" stop-color="#0b090a"/><stop offset="100%" stop-color="#060506"/>
    </radialGradient>
    <radialGradient id="w1broth" cx="50%" cy="34%" r="82%">
      <stop offset="0%" stop-color="#e8c98a"/><stop offset="55%" stop-color="#c39a52"/><stop offset="100%" stop-color="#8a6528"/>
    </radialGradient>
    <linearGradient id="w1wrap" x1="0" y1="0" x2="0" y2="1">
      <stop offset="0%" stop-color="#fdf3d8"/><stop offset="100%" stop-color="#ecd39c"/>
    </linearGradient>
  </defs>
  <rect width="320" height="200" fill="url(#w1bg)"/>
  <!-- steam -->
  <path d="M126 58 C116 40 136 32 126 12" stroke="#fff" stroke-width="7" fill="none" opacity=".1" filter="url(#nnBlur3)"/>
  <path d="M198 54 C190 38 208 30 200 10" stroke="#fff" stroke-width="6" fill="none" opacity=".08" filter="url(#nnBlur3)"/>
  <ellipse cx="160" cy="188" rx="152" ry="21" fill="#000" opacity=".5"/>
  <!-- bowl -->
  <path d="M52 112 C52 154 102 176 160 176 C218 176 268 154 268 112 Z" fill="#141018"/>
  <ellipse cx="160" cy="112" rx="116" ry="30" fill="#0f0d12"/>
  <ellipse cx="160" cy="112" rx="116" ry="30" fill="none" stroke="#2c2136" stroke-width="3"/>
  <!-- neon steam arc -->
  <path d="M58 104 Q104 78 166 76" stroke="#35e0ff" stroke-width="2.5" fill="none" opacity=".4" stroke-linecap="round"/>
  <!-- broth -->
  <ellipse cx="160" cy="114" rx="104" ry="25" fill="url(#w1broth)"/>
  <ellipse cx="134" cy="106" rx="34" ry="7" fill="#fff0cc" opacity=".3" transform="rotate(-8 134 106)"/>
  <!-- broth ripples -->
  <path d="M78 118 Q120 110 168 116" stroke="#f6e3b0" stroke-width="1.6" fill="none" opacity=".4" stroke-linecap="round"/>
  <path d="M110 124 Q160 118 216 124" stroke="#a67c3a" stroke-width="1.4" fill="none" opacity=".4" stroke-linecap="round"/>
  <!-- wontons: pillow body + pinched ruffled top -->
  <g transform="translate(96 94) rotate(-6)">
    <path d="M0 12 C2 -2 30 -2 32 12 C33 20 26 26 16 26 C6 26 -1 20 0 12 Z" fill="url(#w1wrap)"/>
    <path d="M4 4 C8 -6 24 -6 28 4 C22 0 10 0 4 4 Z" fill="#f9ecc6"/>
    <path d="M6 3 C10 -4 22 -4 26 3" stroke="#cbab68" stroke-width="1.2" fill="none" opacity=".7"/>
    <path d="M10 14 Q16 10 22 14" stroke="#d1b06a" stroke-width="1.4" fill="none" opacity=".6"/>
    <ellipse cx="12" cy="16" rx="6" ry="3" fill="#fff" opacity=".35"/>
    <path d="M0 12 C2 -2 30 -2 32 12 C33 20 26 26 16 26 C6 26 -1 20 0 12 Z" fill="none" stroke="#a3300f" stroke-opacity=".28" stroke-width="1.3"/>
  </g>
  <g transform="translate(150 84) rotate(8)">
    <path d="M0 12 C2 -2 30 -2 32 12 C33 20 26 26 16 26 C6 26 -1 20 0 12 Z" fill="url(#w1wrap)"/>
    <path d="M4 4 C8 -6 24 -6 28 4 C22 0 10 0 4 4 Z" fill="#f9ecc6"/>
    <path d="M6 3 C10 -4 22 -4 26 3" stroke="#cbab68" stroke-width="1.2" fill="none" opacity=".7"/>
    <path d="M10 14 Q16 10 22 14" stroke="#d1b06a" stroke-width="1.4" fill="none" opacity=".6"/>
    <ellipse cx="12" cy="16" rx="6" ry="3" fill="#fff" opacity=".35"/>
    <path d="M0 12 C2 -2 30 -2 32 12 C33 20 26 26 16 26 C6 26 -1 20 0 12 Z" fill="none" stroke="#a3300f" stroke-opacity=".28" stroke-width="1.3"/>
  </g>
  <g transform="translate(196 100) rotate(-10)">
    <path d="M0 12 C2 -2 30 -2 32 12 C33 20 26 26 16 26 C6 26 -1 20 0 12 Z" fill="url(#w1wrap)"/>
    <path d="M4 4 C8 -6 24 -6 28 4 C22 0 10 0 4 4 Z" fill="#f9ecc6"/>
    <path d="M6 3 C10 -4 22 -4 26 3" stroke="#cbab68" stroke-width="1.2" fill="none" opacity=".7"/>
    <path d="M10 14 Q16 10 22 14" stroke="#d1b06a" stroke-width="1.4" fill="none" opacity=".6"/>
    <ellipse cx="12" cy="16" rx="6" ry="3" fill="#fff" opacity=".35"/>
    <path d="M0 12 C2 -2 30 -2 32 12 C33 20 26 26 16 26 C6 26 -1 20 0 12 Z" fill="none" stroke="#a3300f" stroke-opacity=".28" stroke-width="1.3"/>
  </g>
  <g transform="translate(124 116) rotate(4) scale(.92)">
    <path d="M0 12 C2 -2 30 -2 32 12 C33 20 26 26 16 26 C6 26 -1 20 0 12 Z" fill="url(#w1wrap)"/>
    <path d="M4 4 C8 -6 24 -6 28 4 C22 0 10 0 4 4 Z" fill="#f9ecc6"/>
    <path d="M6 3 C10 -4 22 -4 26 3" stroke="#cbab68" stroke-width="1.2" fill="none" opacity=".7"/>
    <path d="M10 14 Q16 10 22 14" stroke="#d1b06a" stroke-width="1.4" fill="none" opacity=".6"/>
    <ellipse cx="12" cy="16" rx="6" ry="3" fill="#fff" opacity=".35"/>
    <path d="M0 12 C2 -2 30 -2 32 12 C33 20 26 26 16 26 C6 26 -1 20 0 12 Z" fill="none" stroke="#a3300f" stroke-opacity=".28" stroke-width="1.3"/>
  </g>
  <!-- scallion rings floating -->
  <g fill="none" stroke-width="2.4" stroke-linecap="round">
    <path d="M116 100 A3 1.6 0 1 1 116 103" stroke="#58c14a" transform="rotate(-14 118 101)"/>
    <path d="M172 96 A3 1.6 0 1 1 172 99" stroke="#6abf5a" transform="rotate(18 174 97)"/>
    <path d="M210 116 A3 1.6 0 1 1 210 119" stroke="#58c14a" transform="rotate(-8 212 117)"/>
    <path d="M140 124 A2.6 1.4 0 1 1 140 127" stroke="#3f9c37" transform="rotate(24 142 125)"/>
    <path d="M96 116 A2.6 1.4 0 1 1 96 119" stroke="#58c14a" transform="rotate(10 98 117)"/>
  </g>
  <!-- oil gloss dots -->
  <circle cx="118" cy="108" r="1.4" fill="#fff" opacity=".55"/>
  <circle cx="180" cy="110" r="1.4" fill="#fff" opacity=".5"/>
  <circle cx="150" cy="120" r="1.2" fill="#fff" opacity=".5"/>
</svg>
