<svg xmlns="http://www.w3.org/2000/svg" viewBox="0 0 320 200" preserveAspectRatio="xMidYMid slice" aria-hidden="true">
  <defs>
    <filter id="ykBlur3" x="-60%" y="-60%" width="220%" height="220%">
      <feGaussianBlur stdDeviation="3"/>
    </filter>
    <radialGradient id="ykbg" cx="85%" cy="-5%" r="100%">
      <stop offset="0%" stop-color="#332818"/><stop offset="45%" stop-color="#0b0a08"/><stop offset="100%" stop-color="#060606"/>
    </radialGradient>
    <linearGradient id="ykchic" x1="0" y1="0" x2="0" y2="1">
      <stop offset="0%" stop-color="#c98a3e"/><stop offset="50%" stop-color="#9c5c1e"/><stop offset="100%" stop-color="#6e380d"/>
    </linearGradient>
    <linearGradient id="ykboard" x1="0" y1="0" x2="0" y2="1">
      <stop offset="0%" stop-color="#3a2814"/><stop offset="100%" stop-color="#22160a"/>
    </linearGradient>
    <linearGradient id="ykleek" x1="0" y1="0" x2="0" y2="1">
      <stop offset="0%" stop-color="#c8d67a"/><stop offset="100%" stop-color="#8fae3e"/>
    </linearGradient>
  </defs>
  <rect width="320" height="200" fill="url(#ykbg)"/>
  <!-- rising steam (hot grill) -->
  <path d="M118 52 C108 34 128 26 118 6" stroke="#fff" stroke-width="7" fill="none" opacity=".1" filter="url(#ykBlur3)"/>
  <path d="M198 54 C190 38 208 30 200 8" stroke="#fff" stroke-width="6" fill="none" opacity=".08" filter="url(#ykBlur3)"/>
  <!-- cast shadow -->
  <ellipse cx="160" cy="188" rx="150" ry="20" fill="#000" opacity=".5"/>
  <!-- neon steam arc (warm white) -->
  <path d="M52 100 Q106 70 168 72" stroke="#ffe9c9" stroke-width="2.5" fill="none" opacity=".42" stroke-linecap="round"/>
  <!-- wooden serving board (rounded rectangle, tilted slightly) -->
  <g transform="rotate(-3 160 132)">
    <rect x="34" y="112" width="252" height="52" rx="14" fill="url(#ykboard)"/>
    <rect x="34" y="112" width="252" height="52" rx="14" fill="none" stroke="#4a3218" stroke-width="2.5"/>
    <!-- wood grain lines -->
    <path d="M46 126 L274 126 M46 138 L274 138 M46 150 L274 150" stroke="#4d3517" stroke-width="1.2" opacity=".5"/>
  </g>
  <!-- three negima skewers: alternating glazed chicken chunks + leek segments -->
  <!-- bamboo sticks poking out to the right -->
  <g stroke-linecap="round">
    <path d="M70 118 L292 108" stroke="#b98a4e" stroke-width="4.5"/>
    <path d="M70 134 L292 130" stroke="#b98a4e" stroke-width="4.5"/>
    <path d="M70 150 L292 152" stroke="#b98a4e" stroke-width="4.5"/>
    <path d="M70 118 L292 108" stroke="#8a6534" stroke-width="1.6" opacity=".6"/>
    <path d="M70 134 L292 130" stroke="#8a6534" stroke-width="1.6" opacity=".6"/>
    <path d="M70 150 L292 152" stroke="#8a6534" stroke-width="1.6" opacity=".6"/>
  </g>
  <!-- SKEWER 1 (top) chunks -->
  <g>
    <rect x="92" y="106" width="26" height="24" rx="7" fill="url(#ykchic)" stroke="#5a2c0c" stroke-width="1.3"/>
    <rect x="94" y="108" width="22" height="6" rx="3" fill="#e2a852" opacity=".6"/>
    <rect x="124" y="107" width="14" height="20" rx="4" fill="url(#ykleek)" stroke="#5f7a24" stroke-width="1.2"/>
    <rect x="126" y="109" width="10" height="4" rx="2" fill="#e0eaa0" opacity=".7"/>
    <rect x="146" y="104" width="26" height="24" rx="7" fill="url(#ykchic)" stroke="#5a2c0c" stroke-width="1.3"/>
    <rect x="148" y="106" width="22" height="6" rx="3" fill="#e2a852" opacity=".6"/>
    <rect x="178" y="105" width="14" height="20" rx="4" fill="url(#ykleek)" stroke="#5f7a24" stroke-width="1.2"/>
    <rect x="200" y="102" width="24" height="24" rx="7" fill="url(#ykchic)" stroke="#5a2c0c" stroke-width="1.3"/>
    <rect x="202" y="104" width="20" height="6" rx="3" fill="#e2a852" opacity=".6"/>
    <!-- char marks -->
    <path d="M98 122 L112 118 M154 120 L168 116 M206 118 L220 114" stroke="#3a1c08" stroke-width="2.4" opacity=".5" stroke-linecap="round"/>
  </g>
  <!-- SKEWER 2 (middle) -->
  <g>
    <rect x="90" y="122" width="26" height="24" rx="7" fill="url(#ykchic)" stroke="#5a2c0c" stroke-width="1.3"/>
    <rect x="92" y="124" width="22" height="6" rx="3" fill="#e2a852" opacity=".6"/>
    <rect x="122" y="124" width="14" height="20" rx="4" fill="url(#ykleek)" stroke="#5f7a24" stroke-width="1.2"/>
    <rect x="124" y="126" width="10" height="4" rx="2" fill="#e0eaa0" opacity=".7"/>
    <rect x="144" y="121" width="26" height="24" rx="7" fill="url(#ykchic)" stroke="#5a2c0c" stroke-width="1.3"/>
    <rect x="146" y="123" width="22" height="6" rx="3" fill="#e2a852" opacity=".6"/>
    <rect x="176" y="123" width="14" height="20" rx="4" fill="url(#ykleek)" stroke="#5f7a24" stroke-width="1.2"/>
    <rect x="198" y="120" width="24" height="24" rx="7" fill="url(#ykchic)" stroke="#5a2c0c" stroke-width="1.3"/>
    <rect x="200" y="122" width="20" height="6" rx="3" fill="#e2a852" opacity=".6"/>
    <path d="M96 138 L110 134 M152 137 L166 133 M204 136 L218 132" stroke="#3a1c08" stroke-width="2.4" opacity=".5" stroke-linecap="round"/>
  </g>
  <!-- SKEWER 3 (bottom) -->
  <g>
    <rect x="92" y="139" width="26" height="24" rx="7" fill="url(#ykchic)" stroke="#5a2c0c" stroke-width="1.3"/>
    <rect x="94" y="141" width="22" height="6" rx="3" fill="#e2a852" opacity=".6"/>
    <rect x="124" y="141" width="14" height="20" rx="4" fill="url(#ykleek)" stroke="#5f7a24" stroke-width="1.2"/>
    <rect x="126" y="143" width="10" height="4" rx="2" fill="#e0eaa0" opacity=".7"/>
    <rect x="146" y="138" width="26" height="24" rx="7" fill="url(#ykchic)" stroke="#5a2c0c" stroke-width="1.3"/>
    <rect x="148" y="140" width="22" height="6" rx="3" fill="#e2a852" opacity=".6"/>
    <rect x="178" y="140" width="14" height="20" rx="4" fill="url(#ykleek)" stroke="#5f7a24" stroke-width="1.2"/>
    <rect x="200" y="138" width="24" height="24" rx="7" fill="url(#ykchic)" stroke="#5a2c0c" stroke-width="1.3"/>
    <rect x="202" y="140" width="20" height="6" rx="3" fill="#e2a852" opacity=".6"/>
    <path d="M98 155 L112 151 M154 154 L168 150 M206 153 L220 149" stroke="#3a1c08" stroke-width="2.4" opacity=".5" stroke-linecap="round"/>
  </g>
  <!-- tare glaze sheen + sesame -->
  <circle cx="106" cy="112" r="1.4" fill="#fff" opacity=".55"/>
  <circle cx="160" cy="110" r="1.3" fill="#fff" opacity=".5"/>
  <circle cx="212" cy="108" r="1.3" fill="#fff" opacity=".5"/>
  <circle cx="158" cy="128" r="1.2" fill="#fff" opacity=".45"/>
  <ellipse cx="150" cy="150" rx="1.5" ry="0.9" fill="#f8eed6"/>
  <ellipse cx="118" cy="145" rx="1.5" ry="0.9" fill="#f8eed6"/>
  <ellipse cx="206" cy="150" rx="1.5" ry="0.9" fill="#f8eed6"/>
</svg>
