<svg xmlns="http://www.w3.org/2000/svg" viewBox="0 0 320 200" preserveAspectRatio="xMidYMid slice" aria-hidden="true">
  <defs>
    <filter id="yzBlur3" x="-60%" y="-60%" width="220%" height="220%">
      <feGaussianBlur stdDeviation="3"/>
    </filter>
    <radialGradient id="yzbg" cx="85%" cy="-5%" r="100%">
      <stop offset="0%" stop-color="#332818"/><stop offset="45%" stop-color="#0b0a08"/><stop offset="100%" stop-color="#060606"/>
    </radialGradient>
    <radialGradient id="yzplate" cx="50%" cy="34%" r="80%">
      <stop offset="0%" stop-color="#1a1420"/><stop offset="100%" stop-color="#0b0b0d"/>
    </radialGradient>
    <radialGradient id="yzmound" cx="46%" cy="32%" r="80%">
      <stop offset="0%" stop-color="#fbf3df"/><stop offset="56%" stop-color="#f0e0ba"/><stop offset="100%" stop-color="#d6bf8e"/>
    </radialGradient>
    <linearGradient id="yzshrimp" x1="0" y1="0" x2="1" y2="1">
      <stop offset="0%" stop-color="#ff8a5a"/><stop offset="100%" stop-color="#e35526"/>
    </linearGradient>
  </defs>
  <rect width="320" height="200" fill="url(#yzbg)"/>
  <!-- steam -->
  <path d="M124 56 C114 38 134 30 124 12" stroke="#fff" stroke-width="7" fill="none" opacity=".1" filter="url(#yzBlur3)"/>
  <path d="M198 52 C190 36 208 28 200 10" stroke="#fff" stroke-width="6" fill="none" opacity=".08" filter="url(#yzBlur3)"/>
  <ellipse cx="160" cy="186" rx="152" ry="22" fill="#000" opacity=".5"/>
  <!-- oval plate (dark ring) -->
  <ellipse cx="160" cy="130" rx="136" ry="47" fill="url(#yzplate)"/>
  <ellipse cx="160" cy="130" rx="136" ry="47" fill="none" stroke="#26262e" stroke-width="3"/>
  <ellipse cx="160" cy="130" rx="120" ry="38" fill="#0c0c0f"/>
  <!-- neon steam arc -->
  <path d="M56 116 Q106 86 168 84" stroke="#ffe9c9" stroke-width="2.5" fill="none" opacity=".42" stroke-linecap="round"/>
  <!-- fluffy rice mound -->
  <path d="M60 134 C66 104 106 92 160 92 C214 92 254 104 260 134 C232 154 196 158 160 158 C124 158 88 154 60 134 Z" fill="#9a7c42" opacity=".55"/>
  <path d="M64 130 C70 100 108 88 160 88 C212 88 250 100 256 130 C230 148 196 152 160 152 C124 152 90 148 64 130 Z" fill="url(#yzmound)"/>
  <path d="M64 130 C70 100 108 88 160 88 C212 88 250 100 256 130" fill="none" stroke="#fff6d8" stroke-width="1.3" opacity=".32"/>
  <!-- dense rice-grain texture -->
  <g stroke-linecap="round" fill="none" opacity=".9">
    <path d="M90 114 l7 -3" stroke="#fffbe8" stroke-width="2.4"/>
    <path d="M110 124 l6 3" stroke="#dcc088" stroke-width="2.4"/>
    <path d="M128 108 l7 -2" stroke="#fffbe8" stroke-width="2.4"/>
    <path d="M146 122 l-6 3" stroke="#dcc088" stroke-width="2.4"/>
    <path d="M162 104 l6 3" stroke="#fffbe8" stroke-width="2.4"/>
    <path d="M180 120 l7 -3" stroke="#dcc088" stroke-width="2.4"/>
    <path d="M198 108 l-6 3" stroke="#fffbe8" stroke-width="2.4"/>
    <path d="M214 122 l7 2" stroke="#dcc088" stroke-width="2.4"/>
    <path d="M230 114 l-6 -3" stroke="#fffbe8" stroke-width="2.4"/>
    <path d="M102 138 l7 2" stroke="#dcc088" stroke-width="2.2"/>
    <path d="M138 142 l6 -2" stroke="#fffbe8" stroke-width="2.2"/>
    <path d="M178 142 l-7 2" stroke="#dcc088" stroke-width="2.2"/>
    <path d="M210 138 l6 -3" stroke="#fffbe8" stroke-width="2.2"/>
    <path d="M120 132 l6 3" stroke="#fffbe8" stroke-width="2.2"/>
    <path d="M188 132 l-6 3" stroke="#dcc088" stroke-width="2.2"/>
    <path d="M156 134 l6 -3" stroke="#fffbe8" stroke-width="2.2"/>
  </g>
  <!-- YANGZHOU CONFETTI: pink shrimp, pink ham dice, golden egg bits, green peas, orange carrot -->
  <!-- curled pink shrimp (hero specks) -->
  <g transform="translate(112 106) rotate(-14)">
    <path d="M0 0 C-4 -8 6 -12 12 -8 C18 -4 16 6 8 8 C2 9 -2 5 0 0 Z" fill="url(#yzshrimp)" stroke="#c23c18" stroke-width="1.1"/>
    <path d="M4 -6 L6 -8 M8 -4 L11 -5 M9 1 L12 1" stroke="#c23c18" stroke-width=".8" opacity=".6"/>
    <ellipse cx="5" cy="-4" rx="3" ry="1.4" fill="#ffd0b0" opacity=".7"/>
  </g>
  <g transform="translate(176 104) rotate(10)">
    <path d="M0 0 C-4 -8 6 -12 12 -8 C18 -4 16 6 8 8 C2 9 -2 5 0 0 Z" fill="url(#yzshrimp)" stroke="#c23c18" stroke-width="1.1"/>
    <path d="M4 -6 L6 -8 M8 -4 L11 -5 M9 1 L12 1" stroke="#c23c18" stroke-width=".8" opacity=".6"/>
    <ellipse cx="5" cy="-4" rx="3" ry="1.4" fill="#ffd0b0" opacity=".7"/>
  </g>
  <g transform="translate(146 128) rotate(-4)">
    <path d="M0 0 C-4 -8 6 -12 12 -8 C18 -4 16 6 8 8 C2 9 -2 5 0 0 Z" fill="url(#yzshrimp)" stroke="#c23c18" stroke-width="1.1"/>
    <ellipse cx="5" cy="-4" rx="3" ry="1.4" fill="#ffd0b0" opacity=".7"/>
  </g>
  <!-- pink ham dice -->
  <rect x="126" y="112" width="9" height="7" rx="1.6" fill="#e78a8a" stroke="#b85a5a" stroke-width="1" transform="rotate(12 130 115)"/>
  <rect x="192" y="118" width="9" height="7" rx="1.6" fill="#e78a8a" stroke="#b85a5a" stroke-width="1" transform="rotate(-10 196 121)"/>
  <rect x="164" y="120" width="8" height="6" rx="1.4" fill="#e78a8a" stroke="#b85a5a" stroke-width="1" transform="rotate(8 168 123)"/>
  <!-- golden egg bits -->
  <path d="M98 118 C94 112 104 108 110 112 C114 118 106 124 98 118 Z" fill="#ffc23a" stroke="#e39a1a" stroke-width="1"/>
  <path d="M206 108 C202 102 212 98 218 102 C222 108 214 114 206 108 Z" fill="#ffc23a" stroke="#e39a1a" stroke-width="1"/>
  <path d="M160 108 C156 102 166 98 172 102 C176 108 168 114 160 108 Z" fill="#ffd45a" stroke="#e39a1a" stroke-width="1"/>
  <!-- green peas -->
  <circle cx="120" cy="126" r="3" fill="#5ecb4e"/><circle cx="118.6" cy="124.6" r="1" fill="#a6e89a" opacity=".8"/>
  <circle cx="182" cy="128" r="3" fill="#4fb840"/><circle cx="180.6" cy="126.6" r="1" fill="#a6e89a" opacity=".8"/>
  <circle cx="150" cy="112" r="2.8" fill="#5ecb4e"/><circle cx="148.8" cy="110.8" r="1" fill="#a6e89a" opacity=".8"/>
  <circle cx="214" cy="124" r="2.8" fill="#4fb840"/>
  <circle cx="98" cy="130" r="2.6" fill="#5ecb4e"/>
  <!-- diced carrot -->
  <rect x="140" y="132" width="6" height="5" rx="1.2" fill="#ff8a3a" transform="rotate(-14 143 134)"/>
  <rect x="198" y="132" width="6" height="5" rx="1.2" fill="#ff8a3a" transform="rotate(16 201 134)"/>
  <!-- scallion flecks -->
  <rect x="134" y="102" width="7" height="2.4" rx="1.2" fill="#3f9c37" transform="rotate(-18 137 103)"/>
  <rect x="188" y="112" width="7" height="2.4" rx="1.2" fill="#58c14a" transform="rotate(14 191 113)"/>
  <!-- oil gloss dots -->
  <circle cx="134" cy="118" r="1.4" fill="#fff" opacity=".6"/>
  <circle cx="178" cy="116" r="1.3" fill="#fff" opacity=".55"/>
  <circle cx="156" cy="126" r="1.2" fill="#fff" opacity=".5"/>
</svg>
